<?xml version="1.0" encoding="UTF-8"?><svg version="1.1" width="384px" height="384px" viewBox="0 0 384.0 384.0" xmlns="http://www.w3.org/2000/svg" xmlns:xlink="http://www.w3.org/1999/xlink"><defs><clipPath id="i0"><path d="M384,0 L384,384 L0,384 L0,0 L384,0 Z"></path></clipPath><clipPath id="i1"><path d="M71.5,0 C110.98836,0 143,32.0116404 143,71.5 C143,110.98836 110.98836,143 71.5,143 C32.0116404,143 0,110.98836 0,71.5 C0,32.0116404 32.0116404,0 71.5,0 Z"></path></clipPath></defs><rect x="0px" y="0px" width="384px" height="384px" fill="#FFFFFF"></rect><g clip-path="url(#i0)"><g transform="translate(21.0 21.0)"><path d="M340,0 C152.223185,0 0,152.223185 0,340" stroke="#000000" stroke-width="4" fill="none" stroke-miterlimit="10"></path><g transform="translate(133.0 60.0)"><g clip-path="url(#i1)"><path d="M71.5,143 C110.98836,143 143,110.98836 143,71.5 C143,32.0116404 110.98836,0 71.5,0 C32.0116404,0 0,32.0116404 0,71.5 C0,110.98836 32.0116404,143 71.5,143 Z" stroke="#000000" stroke-width="8" fill="none" stroke-miterlimit="5"></path></g></g><g transform="translate(133.0 199.0)"><g clip-path="url(#i1)"><path d="M71.5,143 C110.98836,143 143,110.98836 143,71.5 C143,32.0116404 110.98836,0 71.5,0 C32.0116404,0 0,32.0116404 0,71.5 C0,110.98836 32.0116404,143 71.5,143 Z" stroke="#000000" stroke-width="8" fill="none" stroke-miterlimit="5"></path></g></g><g transform="translate(60.0 123.0)"><g clip-path="url(#i1)"><path d="M71.5,143 C110.98836,143 143,110.98836 143,71.5 C143,32.0116404 110.98836,0 71.5,0 C32.0116404,0 0,32.0116404 0,71.5 C0,110.98836 32.0116404,143 71.5,143 Z" stroke="#000000" stroke-width="8" fill="none" stroke-miterlimit="5"></path></g></g><g transform="translate(199.0 123.0)"><g clip-path="url(#i1)"><path d="M71.5,143 C110.98836,143 143,110.98836 143,71.5 C143,32.0116404 110.98836,0 71.5,0 C32.0116404,0 0,32.0116404 0,71.5 C0,110.98836 32.0116404,143 71.5,143 Z" stroke="#000000" stroke-width="8" fill="none" stroke-miterlimit="5"></path></g></g></g></g></svg>