<svg width="64" height="64" viewBox="0 0 64 64" fill="none" xmlns="http://www.w3.org/2000/svg">
<path d="M60.9399 30.48H63.9999V42.66H60.9399V30.48Z" fill="#101010"/>
<path d="M60.94 54.86H57.9V51.8H54.86V48.76H51.8V45.72H48.76V42.66H45.7V39.62H42.66V36.56H39.62V33.52H36.56V30.48H33.52V27.42H30.48V24.38H27.42V21.34H24.38V18.28H21.32V15.24H18.28V12.18H15.24V9.14H12.18V6.1H9.14V3.04H6.1V0L0 0V6.1H3.04V9.14H6.1V12.18H9.14V15.24H12.18V18.28H15.24V21.34H18.28V24.38H21.32V27.42H24.38V30.48H27.42V33.52H30.48V36.56H33.52V39.62H36.56V42.66H39.62V45.72H42.66V48.76H45.7V51.8H48.76V54.86H51.8V57.9H54.86V60.96H57.9V64H64V57.9H60.94V54.86Z" fill="#101010"/>
<path d="M57.9 42.66H60.94V45.72H57.9V42.66Z" fill="#101010"/>
<path d="M57.9 27.42H60.94V30.48H57.9V27.42Z" fill="#101010"/>
<path d="M54.86 24.38H57.9V27.42H54.86V24.38Z" fill="#101010"/>
<path d="M48.7599 21.34V18.28H45.7V24.38H54.86V21.34H48.7599Z" fill="#101010"/>
<path d="M42.66 24.38H45.7V27.42H42.66V24.38Z" fill="#101010"/>
<path d="M42.66 15.24H45.7V18.28H42.66V15.24Z" fill="#101010"/>
<path d="M39.62 27.42H42.66V30.48H39.62V27.42Z" fill="#101010"/>
<path d="M36.5601 12.18H42.6601V15.24H36.5601V12.18Z" fill="#101010"/>
<path d="M6.09998 48.76H39.62V51.8H6.09998V48.76Z" fill="#101010"/>
<path d="M27.42 9.14H36.56V12.18H27.42V9.14Z" fill="#101010"/>
<path d="M24.38 12.18H27.42V15.24H24.38V12.18Z" fill="#101010"/>
<path d="M6.09998 24.38H15.24V27.42H6.09998V24.38Z" fill="#101010"/>
<path d="M3.04004 45.72H6.10004V48.76H3.04004V45.72Z" fill="#101010"/>
<path d="M3.04004 27.42H6.10004V30.48H3.04004V27.42Z" fill="#101010"/>
<path d="M0 30.48H3.04V45.72H0V30.48Z" fill="#101010"/>
</svg>
