<svg width="64" height="64" viewBox="0 0 64 64" fill="none" xmlns="http://www.w3.org/2000/svg">
<path d="M59.42 51.81H62.48V57.91H59.42V51.81Z" fill="#101010"/>
<path d="M56.38 45.71H59.42V51.81H56.38V45.71Z" fill="#101010"/>
<path d="M4.56006 57.91H59.4201V60.95H4.56006V57.91Z" fill="#101010"/>
<path d="M53.34 39.61H56.38V45.71H53.34V39.61Z" fill="#101010"/>
<path d="M50.28 33.53H53.34V39.61H50.28V33.53Z" fill="#101010"/>
<path d="M47.24 27.43H50.28V33.53H47.24V27.43Z" fill="#101010"/>
<path d="M44.1801 21.33H47.2401V27.43H44.1801V21.33Z" fill="#101010"/>
<path d="M41.14 15.23H44.18V21.33H41.14V15.23Z" fill="#101010"/>
<path d="M38.1 9.15001H41.14V15.23H38.1V9.15001Z" fill="#101010"/>
<path d="M35.04 6.09H38.1V9.15H35.04V6.09Z" fill="#101010"/>
<path d="M28.94 51.81H35.04V48.77H38.1V42.67H35.04V39.61H28.94V42.67H25.9V48.77H28.94V51.81Z" fill="#101010"/>
<path d="M28.9401 18.29H35.0401V36.57H28.9401V18.29Z" fill="#101010"/>
<path d="M28.9401 3.05H35.0401V6.09H28.9401V3.05Z" fill="#101010"/>
<path d="M25.9 6.09H28.94V9.15H25.9V6.09Z" fill="#101010"/>
<path d="M22.86 9.15001H25.9V15.23H22.86V9.15001Z" fill="#101010"/>
<path d="M19.8 15.23H22.8601V21.33H19.8V15.23Z" fill="#101010"/>
<path d="M16.76 21.33H19.8V27.43H16.76V21.33Z" fill="#101010"/>
<path d="M13.72 27.43H16.76V33.53H13.72V27.43Z" fill="#101010"/>
<path d="M10.66 33.53H13.72V39.61H10.66V33.53Z" fill="#101010"/>
<path d="M7.62 39.61H10.66V45.71H7.62V39.61Z" fill="#101010"/>
<path d="M4.56006 45.71H7.62006V51.81H4.56006V45.71Z" fill="#101010"/>
<path d="M1.52002 51.81H4.56002V57.91H1.52002V51.81Z" fill="#101010"/>
</svg>
