<svg width="512" height="512" viewBox="0 0 512 512" fill="none" xmlns="http://www.w3.org/2000/svg">
<rect width="512" height="511.999" fill="#101010"/>
<mask id="mask0_299_28808" style="mask-type:alpha" maskUnits="userSpaceOnUse" x="71" y="72" width="369" height="368">
<path d="M416.994 164.001C404.292 164.001 393.994 153.703 393.994 141.001C393.994 128.299 383.696 118.001 370.994 118.001C358.292 118.001 347.994 107.703 347.994 95.0009C347.994 82.2989 337.696 72.001 324.994 72.001H186.994C174.292 72.001 163.994 82.2989 163.994 95.0009C163.994 107.703 153.696 118.001 140.994 118.001C128.292 118.001 117.994 128.299 117.994 141.001C117.994 153.703 107.696 164.001 94.9941 164.001C82.292 164.001 71.9941 174.299 71.9941 187.001V325.001C71.9941 337.703 82.292 348.001 94.9941 348.001C107.696 348.001 117.994 358.298 117.994 371.001C117.994 383.703 128.292 394.001 140.994 394.001C153.696 394.001 163.994 404.298 163.994 417.001C163.994 429.703 174.292 440 186.994 440H324.994C337.696 440 347.994 429.703 347.994 417.001C347.994 404.298 358.292 394.001 370.994 394.001C383.696 394.001 393.994 383.703 393.994 371.001C393.994 358.298 404.292 348.001 416.994 348.001C429.696 348.001 439.994 337.703 439.994 325.001V187.001C439.994 174.299 429.696 164.001 416.994 164.001Z" fill="#0039DE"/>
</mask>
<g mask="url(#mask0_299_28808)">
<circle cx="374.499" cy="225.001" r="200" fill="#FF6C58"/>
<circle cx="172.998" cy="177.001" r="200" fill="#ED8FFF"/>
<circle cx="188.495" cy="474" r="200" fill="#87FB67"/>
<circle cx="43.9939" cy="290.501" r="200" fill="#D6E6F4"/>
<circle cx="396.996" cy="0.000717163" r="200" fill="#EFF7BB"/>
</g>
</svg>
