<svg width="980" height="140" viewBox="0 0 980 140" fill="none" xmlns="http://www.w3.org/2000/svg">
<path d="M26.224 0.755577C23.3274 0.755577 20.9792 3.10376 20.9792 6.00038C20.9792 8.89701 18.631 11.2452 15.7344 11.2452C12.8378 11.2452 10.4896 13.5934 10.4896 16.49C10.4896 19.3866 8.14143 21.7348 5.2448 21.7348C2.34818 21.7348 0 24.083 0 26.9796V58.4484C0 61.3451 2.34818 63.6932 5.2448 63.6932C8.14143 63.6932 10.4896 66.0414 10.4896 68.938C10.4896 71.8347 12.8378 74.1828 15.7344 74.1828C18.631 74.1828 20.9792 76.531 20.9792 79.4276C20.9792 82.3243 23.3274 84.6724 26.224 84.6724H57.6928C60.5895 84.6724 62.9376 82.3243 62.9376 79.4276C62.9376 76.531 65.2858 74.1828 68.1824 74.1828C71.0791 74.1828 73.4273 71.8347 73.4273 68.938C73.4273 66.0414 75.7754 63.6932 78.6721 63.6932C81.5687 63.6932 83.9169 61.3451 83.9169 58.4484V26.9796C83.9169 24.083 81.5687 21.7348 78.6721 21.7348C75.7754 21.7348 73.4273 19.3866 73.4273 16.49C73.4273 13.5934 71.0791 11.2452 68.1824 11.2452C65.2858 11.2452 62.9376 8.89701 62.9376 6.00038C62.9376 3.10376 60.5895 0.755577 57.6928 0.755577H26.224Z" fill="#F8F8F8"/>
<path fill-rule="evenodd" clip-rule="evenodd" d="M246.506 0.755577C243.609 0.755577 241.261 3.10376 241.261 6.00039V131.876C241.261 134.772 243.609 137.12 246.506 137.12H256.995C259.892 137.12 262.24 134.772 262.24 131.876V89.9173C262.24 87.0206 264.588 84.6724 267.485 84.6724H309.443C312.34 84.6724 314.688 87.0206 314.688 89.9173C314.688 92.8139 317.036 95.1621 319.933 95.1621C322.83 95.1621 325.178 97.5102 325.178 100.407C325.178 103.303 327.526 105.652 330.423 105.652C333.319 105.652 335.667 108 335.667 110.896V131.876C335.667 134.772 338.016 137.12 340.912 137.12H351.402C354.298 137.12 356.647 134.772 356.647 131.876V100.407C356.647 97.5102 354.298 95.1621 351.402 95.1621C348.505 95.1621 346.157 92.8139 346.157 89.9173C346.157 87.0206 343.809 84.6724 340.912 84.6724C338.016 84.6724 335.667 82.3243 335.667 79.4276C335.667 76.531 338.016 74.1828 340.912 74.1828C343.809 74.1828 346.157 71.8347 346.157 68.938C346.157 66.0414 348.505 63.6932 351.402 63.6932C354.298 63.6932 356.647 61.3451 356.647 58.4484V26.9796C356.647 24.083 354.298 21.7348 351.402 21.7348C348.505 21.7348 346.157 19.3866 346.157 16.49C346.157 13.5934 343.809 11.2452 340.912 11.2452C338.016 11.2452 335.667 8.89701 335.667 6.00038C335.667 3.10376 333.319 0.755577 330.423 0.755577H246.506ZM335.667 47.9588C335.667 50.8554 333.319 53.2036 330.423 53.2036C327.526 53.2036 325.178 55.5518 325.178 58.4484C325.178 61.3451 322.83 63.6932 319.933 63.6932H267.485C264.588 63.6932 262.24 61.3451 262.24 58.4484V26.9796C262.24 24.083 264.588 21.7348 267.485 21.7348H319.933C322.83 21.7348 325.178 24.083 325.178 26.9796C325.178 29.8762 327.526 32.2244 330.423 32.2244C333.319 32.2244 335.667 34.5726 335.667 37.4692V47.9588Z" fill="#F8F8F8"/>
<path d="M110.141 0.755577C107.244 0.755577 104.896 3.10376 104.896 6.00038V110.896C104.896 113.793 107.244 116.141 110.141 116.141C113.038 116.141 115.386 118.489 115.386 121.386C115.386 124.283 117.734 126.631 120.63 126.631C123.527 126.631 125.875 128.979 125.875 131.876C125.875 134.772 128.223 137.12 131.12 137.12H194.058C196.954 137.12 199.303 134.772 199.303 131.876C199.303 128.979 201.651 126.631 204.547 126.631C207.444 126.631 209.792 124.283 209.792 121.386C209.792 118.489 212.14 116.141 215.037 116.141C217.934 116.141 220.282 113.793 220.282 110.896V6.00038C220.282 3.10376 217.934 0.755577 215.037 0.755577H204.547C201.651 0.755577 199.303 3.10376 199.303 6.00038V100.407C199.303 103.303 196.954 105.652 194.058 105.652C191.161 105.652 188.813 108 188.813 110.896C188.813 113.793 186.465 116.141 183.568 116.141H141.61C138.713 116.141 136.365 113.793 136.365 110.896C136.365 108 134.017 105.652 131.12 105.652C128.223 105.652 125.875 103.303 125.875 100.407V6.00038C125.875 3.10376 123.527 0.755577 120.63 0.755577H110.141Z" fill="#F8F8F8"/>
<path d="M377.626 137.121V31.8221H409.615V45.6271C413.805 36.1064 422.373 29.5371 433.703 29.5371C447.317 29.5371 454.839 38.5818 454.839 55.8143V137.121H421.707V61.3363C421.707 57.1471 419.517 55.4334 416.566 55.4334C413.424 55.4334 410.758 57.528 410.758 62.2883V137.121H377.626Z" fill="#F8F8F8"/>
<path d="M502.823 139.406C478.26 139.406 462.836 126.267 462.836 101.323V68.7624C462.836 43.0565 478.64 29.5371 503.109 29.5371C527.386 29.5371 542.81 42.8661 542.81 68.0959V92.4689H495.968V106.179C495.968 111.225 497.967 114.747 502.823 114.747C507.679 114.747 509.487 111.605 509.487 106.464V98.943H542.715V105.131C542.715 127.124 526.529 139.406 502.823 139.406ZM496.063 71.809H509.487V62.0979C509.487 56.9567 507.488 53.6245 502.918 53.6245C498.063 53.6245 496.063 56.9567 496.063 62.0979V71.809Z" fill="#F8F8F8"/>
<path d="M584.13 138.454C568.992 138.454 556.424 131.694 556.424 112.653V55.1478H545.285V31.8221H556.52V12.5903L589.556 3.54565V31.8221H602.6V55.1478H589.556V107.892C589.556 112.843 592.603 114.271 596.507 114.271C598.792 114.271 600.791 113.795 602.6 113.224V134.836C598.411 136.835 592.127 138.454 584.13 138.454Z" fill="#F8F8F8"/>
<path d="M620.213 137.121L605.456 31.8221H636.779L641.92 104.465H642.015L649.537 31.8221H682.669L690.19 104.275H690.285L695.522 31.8221H726.75L711.993 137.121H673.053L666.198 71.0474H666.008L659.153 137.121H620.213Z" fill="#F8F8F8"/>
<path d="M769.974 139.406C745.791 139.406 729.225 126.077 729.225 101.133V67.6199C729.225 42.3901 745.791 29.5371 769.974 29.5371C794.061 29.5371 810.722 42.3901 810.722 67.6199V101.133C810.722 126.077 794.251 139.406 769.974 139.406ZM763.309 105.417C763.309 111.415 765.404 115.033 769.974 115.033C774.544 115.033 776.638 111.415 776.638 105.417V63.4308C776.638 57.6232 774.544 53.9101 769.974 53.9101C765.404 53.9101 763.309 57.4328 763.309 63.4308V105.417Z" fill="#F8F8F8"/>
<path d="M819.005 137.121V31.8221H850.614V48.6737C854.803 36.7729 862.991 30.0132 872.987 30.0132C884.317 30.0132 890.029 37.5345 890.029 53.8149V89.9935H859.754V63.8116C859.754 60.765 858.421 59.4321 856.231 59.4321C853.851 59.4321 852.137 61.1458 852.137 64.7637V137.121H819.005Z" fill="#F8F8F8"/>
<path d="M944.107 137.121L930.207 87.2325V137.121H897.075V0.594238H930.207V74.4748L944.012 31.8221H979.524L960.863 79.9016L980 137.121H944.107Z" fill="#F8F8F8"/>
</svg>
