<?xml version="1.0" encoding="UTF-8" standalone="no"?>
<!DOCTYPE svg PUBLIC "-//W3C//DTD SVG 1.1//EN" "http://www.w3.org/Graphics/SVG/1.1/DTD/svg11.dtd">
<svg width="100%" height="100%" viewBox="0 0 400 80" version="1.1" xmlns="http://www.w3.org/2000/svg" xmlns:xlink="http://www.w3.org/1999/xlink" xml:space="preserve" xmlns:serif="http://www.serif.com/" style="fill-rule:evenodd;clip-rule:evenodd;stroke-linejoin:round;stroke-miterlimit:2;">
    <g id="Page-1">
        <g id="Redeem400">
            <path id="Rectangle" d="M400,5.333L400,74.667C400,77.61 397.61,80 394.667,80L5.333,80C2.39,80 0,77.61 0,74.667L0,5.333C0,2.39 2.39,0 5.333,0L394.667,0C397.61,0 400,2.39 400,5.333Z" style="fill:url(#_Linear1);"/>
            <g id="Redeem-30GiB-Free-Da" transform="matrix(1,0,0,1,22.864,44.312)">
                <g>
                    <g transform="matrix(32,0,0,32,0,0)">
                        <path d="M0.481,-0C0.476,-0 0.472,-0.002 0.47,-0.007L0.33,-0.306C0.329,-0.308 0.328,-0.309 0.326,-0.309L0.182,-0.309C0.179,-0.309 0.178,-0.308 0.178,-0.305L0.178,-0.01C0.178,-0.003 0.175,-0 0.168,-0L0.092,-0C0.085,-0 0.082,-0.003 0.082,-0.01L0.082,-0.69C0.082,-0.697 0.085,-0.7 0.092,-0.7L0.361,-0.7C0.401,-0.7 0.436,-0.692 0.467,-0.675C0.497,-0.658 0.52,-0.635 0.537,-0.605C0.554,-0.575 0.562,-0.54 0.562,-0.501C0.562,-0.454 0.55,-0.415 0.526,-0.383C0.501,-0.35 0.467,-0.328 0.424,-0.317C0.421,-0.316 0.421,-0.314 0.422,-0.312L0.567,-0.012C0.568,-0.011 0.568,-0.009 0.568,-0.007C0.568,-0.002 0.565,-0 0.56,-0L0.481,-0ZM0.182,-0.617C0.179,-0.617 0.178,-0.616 0.178,-0.613L0.178,-0.389C0.178,-0.386 0.179,-0.385 0.182,-0.385L0.349,-0.385C0.384,-0.385 0.413,-0.396 0.434,-0.417C0.455,-0.438 0.466,-0.465 0.466,-0.5C0.466,-0.535 0.455,-0.564 0.434,-0.585C0.413,-0.606 0.384,-0.617 0.349,-0.617L0.182,-0.617Z" style="fill:white;fill-rule:nonzero;"/>
                    </g>
                    <g transform="matrix(32,0,0,32,19.9147,0)">
                        <path d="M0.482,-0.318C0.485,-0.291 0.486,-0.26 0.485,-0.226C0.485,-0.219 0.482,-0.216 0.475,-0.216L0.156,-0.216C0.153,-0.216 0.152,-0.215 0.152,-0.212C0.152,-0.189 0.154,-0.172 0.158,-0.16C0.165,-0.133 0.18,-0.113 0.203,-0.098C0.225,-0.083 0.253,-0.075 0.287,-0.075C0.336,-0.075 0.374,-0.095 0.401,-0.136C0.404,-0.143 0.409,-0.144 0.414,-0.139L0.471,-0.101C0.476,-0.097 0.477,-0.093 0.474,-0.088C0.455,-0.058 0.429,-0.034 0.395,-0.017C0.36,0 0.321,0.009 0.278,0.009C0.229,0.009 0.188,-0.002 0.155,-0.023C0.122,-0.044 0.097,-0.075 0.08,-0.114C0.064,-0.153 0.056,-0.201 0.056,-0.257C0.056,-0.306 0.06,-0.343 0.067,-0.368C0.079,-0.414 0.103,-0.45 0.139,-0.477C0.175,-0.504 0.219,-0.517 0.27,-0.517C0.337,-0.517 0.388,-0.5 0.421,-0.467C0.454,-0.433 0.475,-0.383 0.482,-0.318ZM0.27,-0.434C0.241,-0.434 0.218,-0.427 0.199,-0.413C0.18,-0.398 0.168,-0.379 0.161,-0.355C0.156,-0.34 0.153,-0.322 0.152,-0.299C0.152,-0.296 0.153,-0.295 0.156,-0.295L0.385,-0.295C0.388,-0.295 0.389,-0.296 0.389,-0.299C0.388,-0.321 0.386,-0.337 0.383,-0.348C0.376,-0.374 0.363,-0.395 0.344,-0.411C0.324,-0.426 0.299,-0.434 0.27,-0.434Z" style="fill:white;fill-rule:nonzero;"/>
                    </g>
                    <g transform="matrix(32,0,0,32,37.4933,0)">
                        <path d="M0.386,-0.69C0.386,-0.697 0.389,-0.7 0.396,-0.7L0.472,-0.7C0.479,-0.7 0.482,-0.697 0.482,-0.69L0.482,-0.01C0.482,-0.003 0.479,-0 0.472,-0L0.396,-0C0.389,-0 0.386,-0.003 0.386,-0.01L0.386,-0.043C0.386,-0.044 0.386,-0.045 0.385,-0.046C0.384,-0.047 0.382,-0.046 0.381,-0.045C0.366,-0.028 0.349,-0.015 0.329,-0.006C0.309,0.003 0.287,0.008 0.264,0.008C0.216,0.008 0.176,-0.004 0.145,-0.028C0.113,-0.051 0.09,-0.085 0.075,-0.128C0.062,-0.163 0.056,-0.206 0.056,-0.256C0.056,-0.303 0.061,-0.343 0.072,-0.377C0.086,-0.421 0.109,-0.455 0.141,-0.48C0.173,-0.505 0.214,-0.517 0.264,-0.517C0.287,-0.517 0.308,-0.513 0.329,-0.504C0.349,-0.495 0.366,-0.482 0.381,-0.465C0.382,-0.464 0.384,-0.463 0.385,-0.464C0.386,-0.465 0.386,-0.466 0.386,-0.467L0.386,-0.69ZM0.361,-0.129C0.376,-0.157 0.384,-0.199 0.384,-0.255C0.384,-0.311 0.376,-0.354 0.359,-0.383C0.34,-0.417 0.311,-0.434 0.274,-0.434C0.234,-0.434 0.204,-0.418 0.185,-0.386C0.164,-0.353 0.153,-0.309 0.153,-0.254C0.153,-0.203 0.161,-0.161 0.178,-0.13C0.197,-0.093 0.229,-0.075 0.273,-0.075C0.312,-0.075 0.341,-0.093 0.361,-0.129Z" style="fill:white;fill-rule:nonzero;"/>
                    </g>
                    <g transform="matrix(32,0,0,32,55.616,0)">
                        <path d="M0.482,-0.318C0.485,-0.291 0.486,-0.26 0.485,-0.226C0.485,-0.219 0.482,-0.216 0.475,-0.216L0.156,-0.216C0.153,-0.216 0.152,-0.215 0.152,-0.212C0.152,-0.189 0.154,-0.172 0.158,-0.16C0.165,-0.133 0.18,-0.113 0.203,-0.098C0.225,-0.083 0.253,-0.075 0.287,-0.075C0.336,-0.075 0.374,-0.095 0.401,-0.136C0.404,-0.143 0.409,-0.144 0.414,-0.139L0.471,-0.101C0.476,-0.097 0.477,-0.093 0.474,-0.088C0.455,-0.058 0.429,-0.034 0.395,-0.017C0.36,0 0.321,0.009 0.278,0.009C0.229,0.009 0.188,-0.002 0.155,-0.023C0.122,-0.044 0.097,-0.075 0.08,-0.114C0.064,-0.153 0.056,-0.201 0.056,-0.257C0.056,-0.306 0.06,-0.343 0.067,-0.368C0.079,-0.414 0.103,-0.45 0.139,-0.477C0.175,-0.504 0.219,-0.517 0.27,-0.517C0.337,-0.517 0.388,-0.5 0.421,-0.467C0.454,-0.433 0.475,-0.383 0.482,-0.318ZM0.27,-0.434C0.241,-0.434 0.218,-0.427 0.199,-0.413C0.18,-0.398 0.168,-0.379 0.161,-0.355C0.156,-0.34 0.153,-0.322 0.152,-0.299C0.152,-0.296 0.153,-0.295 0.156,-0.295L0.385,-0.295C0.388,-0.295 0.389,-0.296 0.389,-0.299C0.388,-0.321 0.386,-0.337 0.383,-0.348C0.376,-0.374 0.363,-0.395 0.344,-0.411C0.324,-0.426 0.299,-0.434 0.27,-0.434Z" style="fill:white;fill-rule:nonzero;"/>
                    </g>
                    <g transform="matrix(32,0,0,32,73.1947,0)">
                        <path d="M0.482,-0.318C0.485,-0.291 0.486,-0.26 0.485,-0.226C0.485,-0.219 0.482,-0.216 0.475,-0.216L0.156,-0.216C0.153,-0.216 0.152,-0.215 0.152,-0.212C0.152,-0.189 0.154,-0.172 0.158,-0.16C0.165,-0.133 0.18,-0.113 0.203,-0.098C0.225,-0.083 0.253,-0.075 0.287,-0.075C0.336,-0.075 0.374,-0.095 0.401,-0.136C0.404,-0.143 0.409,-0.144 0.414,-0.139L0.471,-0.101C0.476,-0.097 0.477,-0.093 0.474,-0.088C0.455,-0.058 0.429,-0.034 0.395,-0.017C0.36,0 0.321,0.009 0.278,0.009C0.229,0.009 0.188,-0.002 0.155,-0.023C0.122,-0.044 0.097,-0.075 0.08,-0.114C0.064,-0.153 0.056,-0.201 0.056,-0.257C0.056,-0.306 0.06,-0.343 0.067,-0.368C0.079,-0.414 0.103,-0.45 0.139,-0.477C0.175,-0.504 0.219,-0.517 0.27,-0.517C0.337,-0.517 0.388,-0.5 0.421,-0.467C0.454,-0.433 0.475,-0.383 0.482,-0.318ZM0.27,-0.434C0.241,-0.434 0.218,-0.427 0.199,-0.413C0.18,-0.398 0.168,-0.379 0.161,-0.355C0.156,-0.34 0.153,-0.322 0.152,-0.299C0.152,-0.296 0.153,-0.295 0.156,-0.295L0.385,-0.295C0.388,-0.295 0.389,-0.296 0.389,-0.299C0.388,-0.321 0.386,-0.337 0.383,-0.348C0.376,-0.374 0.363,-0.395 0.344,-0.411C0.324,-0.426 0.299,-0.434 0.27,-0.434Z" style="fill:white;fill-rule:nonzero;"/>
                    </g>
                    <g transform="matrix(32,0,0,32,90.7733,0)">
                        <path d="M0.599,-0.516C0.65,-0.516 0.69,-0.501 0.719,-0.471C0.748,-0.44 0.763,-0.398 0.763,-0.344L0.763,-0.01C0.763,-0.003 0.76,-0 0.753,-0L0.678,-0C0.671,-0 0.668,-0.003 0.668,-0.01L0.668,-0.324C0.668,-0.357 0.659,-0.384 0.641,-0.404C0.622,-0.423 0.598,-0.433 0.567,-0.433C0.536,-0.433 0.511,-0.423 0.492,-0.404C0.473,-0.385 0.463,-0.359 0.463,-0.326L0.463,-0.01C0.463,-0.003 0.46,-0 0.453,-0L0.378,-0C0.371,-0 0.368,-0.003 0.368,-0.01L0.368,-0.324C0.368,-0.357 0.359,-0.384 0.341,-0.404C0.322,-0.423 0.298,-0.433 0.267,-0.433C0.236,-0.433 0.212,-0.423 0.194,-0.404C0.175,-0.385 0.166,-0.359 0.166,-0.326L0.166,-0.01C0.166,-0.003 0.163,-0 0.156,-0L0.08,-0C0.073,-0 0.07,-0.003 0.07,-0.01L0.07,-0.499C0.07,-0.506 0.073,-0.509 0.08,-0.509L0.156,-0.509C0.163,-0.509 0.166,-0.506 0.166,-0.499L0.166,-0.465C0.166,-0.464 0.167,-0.463 0.168,-0.462C0.169,-0.461 0.17,-0.462 0.171,-0.463C0.2,-0.498 0.243,-0.516 0.299,-0.516C0.333,-0.516 0.362,-0.509 0.386,-0.497C0.41,-0.484 0.429,-0.464 0.442,-0.439C0.444,-0.436 0.446,-0.436 0.448,-0.439C0.464,-0.465 0.485,-0.484 0.512,-0.497C0.538,-0.51 0.567,-0.516 0.599,-0.516Z" style="fill:white;fill-rule:nonzero;"/>
                    </g>
                    <g transform="matrix(32,0,0,32,124.459,0)">
                        <path d="M0.447,-0.332C0.46,-0.299 0.467,-0.262 0.467,-0.219C0.467,-0.184 0.462,-0.151 0.451,-0.121C0.436,-0.08 0.412,-0.048 0.378,-0.026C0.344,-0.003 0.303,0.008 0.255,0.008C0.207,0.008 0.166,-0.004 0.131,-0.029C0.095,-0.054 0.071,-0.087 0.057,-0.129C0.05,-0.148 0.045,-0.174 0.044,-0.209C0.044,-0.216 0.047,-0.219 0.054,-0.219L0.131,-0.219C0.138,-0.219 0.141,-0.216 0.141,-0.209C0.142,-0.185 0.145,-0.167 0.149,-0.156C0.156,-0.131 0.168,-0.112 0.187,-0.097C0.205,-0.082 0.228,-0.075 0.255,-0.075C0.306,-0.075 0.34,-0.098 0.357,-0.144C0.366,-0.164 0.37,-0.19 0.37,-0.222C0.37,-0.256 0.365,-0.286 0.354,-0.313C0.335,-0.354 0.302,-0.375 0.254,-0.375C0.243,-0.375 0.228,-0.37 0.211,-0.36C0.208,-0.359 0.206,-0.358 0.205,-0.358C0.202,-0.358 0.199,-0.36 0.197,-0.363L0.159,-0.415C0.158,-0.418 0.157,-0.42 0.157,-0.422C0.157,-0.424 0.158,-0.426 0.16,-0.429L0.331,-0.612C0.333,-0.615 0.332,-0.617 0.329,-0.617L0.063,-0.617C0.056,-0.617 0.053,-0.62 0.053,-0.627L0.053,-0.69C0.053,-0.697 0.056,-0.7 0.063,-0.7L0.451,-0.7C0.458,-0.7 0.461,-0.697 0.461,-0.69L0.461,-0.618C0.461,-0.615 0.459,-0.611 0.456,-0.606L0.304,-0.44C0.303,-0.439 0.302,-0.438 0.303,-0.437C0.304,-0.436 0.305,-0.435 0.307,-0.434C0.341,-0.431 0.37,-0.42 0.393,-0.403C0.416,-0.385 0.434,-0.361 0.447,-0.332Z" style="fill:white;fill-rule:nonzero;"/>
                    </g>
                    <g transform="matrix(32,0,0,32,141.653,0)">
                        <path d="M0.282,0.01C0.215,0.01 0.161,-0.009 0.122,-0.048C0.082,-0.086 0.062,-0.137 0.062,-0.202L0.062,-0.498C0.062,-0.563 0.082,-0.614 0.122,-0.652C0.161,-0.69 0.215,-0.709 0.282,-0.709C0.349,-0.709 0.403,-0.69 0.444,-0.652C0.484,-0.614 0.504,-0.563 0.504,-0.498L0.504,-0.202C0.504,-0.137 0.484,-0.086 0.444,-0.048C0.403,-0.009 0.349,0.01 0.282,0.01ZM0.282,-0.073C0.321,-0.073 0.351,-0.084 0.374,-0.107C0.397,-0.129 0.408,-0.159 0.408,-0.196L0.408,-0.502C0.408,-0.539 0.397,-0.569 0.374,-0.592C0.351,-0.614 0.321,-0.625 0.282,-0.625C0.245,-0.625 0.215,-0.614 0.192,-0.592C0.169,-0.569 0.158,-0.539 0.158,-0.502L0.158,-0.196C0.158,-0.159 0.169,-0.129 0.192,-0.107C0.215,-0.084 0.245,-0.073 0.282,-0.073Z" style="fill:white;fill-rule:nonzero;"/>
                    </g>
                    <g transform="matrix(32,0,0,32,160.192,0)">
                        <path d="M0.307,0.008C0.259,0.008 0.217,-0.002 0.18,-0.021C0.142,-0.04 0.114,-0.067 0.094,-0.102C0.073,-0.136 0.063,-0.177 0.063,-0.222L0.063,-0.478C0.063,-0.524 0.073,-0.564 0.094,-0.599C0.114,-0.634 0.142,-0.661 0.18,-0.68C0.217,-0.699 0.259,-0.708 0.307,-0.708C0.355,-0.708 0.397,-0.699 0.434,-0.68C0.471,-0.661 0.499,-0.636 0.52,-0.603C0.54,-0.57 0.55,-0.532 0.55,-0.491L0.55,-0.48C0.55,-0.473 0.547,-0.47 0.54,-0.47L0.464,-0.47C0.457,-0.47 0.454,-0.473 0.454,-0.48L0.454,-0.489C0.454,-0.529 0.441,-0.562 0.414,-0.587C0.387,-0.612 0.351,-0.624 0.307,-0.624C0.262,-0.624 0.227,-0.611 0.2,-0.585C0.173,-0.559 0.159,-0.524 0.159,-0.481L0.159,-0.219C0.159,-0.176 0.173,-0.141 0.201,-0.115C0.229,-0.089 0.266,-0.076 0.311,-0.076C0.355,-0.076 0.39,-0.088 0.416,-0.111C0.441,-0.133 0.454,-0.165 0.454,-0.205L0.454,-0.282C0.454,-0.285 0.453,-0.286 0.45,-0.286L0.315,-0.286C0.308,-0.286 0.305,-0.289 0.305,-0.296L0.305,-0.358C0.305,-0.365 0.308,-0.368 0.315,-0.368L0.54,-0.368C0.547,-0.368 0.55,-0.365 0.55,-0.358L0.55,-0.231C0.55,-0.154 0.528,-0.095 0.485,-0.054C0.441,-0.013 0.382,0.008 0.307,0.008Z" style="fill:white;fill-rule:nonzero;"/>
                    </g>
                    <g transform="matrix(32,0,0,32,180.235,0)">
                        <path d="M0.128,-0.589C0.109,-0.589 0.094,-0.595 0.082,-0.607C0.07,-0.619 0.064,-0.634 0.064,-0.653C0.064,-0.672 0.07,-0.687 0.082,-0.699C0.094,-0.711 0.109,-0.717 0.128,-0.717C0.147,-0.717 0.162,-0.711 0.174,-0.699C0.186,-0.687 0.192,-0.672 0.192,-0.653C0.192,-0.634 0.186,-0.619 0.174,-0.607C0.162,-0.595 0.147,-0.589 0.128,-0.589ZM0.088,-0.001C0.081,-0.001 0.078,-0.004 0.078,-0.011L0.078,-0.499C0.078,-0.506 0.081,-0.509 0.088,-0.509L0.164,-0.509C0.171,-0.509 0.174,-0.506 0.174,-0.499L0.174,-0.011C0.174,-0.004 0.171,-0.001 0.164,-0.001L0.088,-0.001Z" style="fill:white;fill-rule:nonzero;"/>
                    </g>
                    <g transform="matrix(32,0,0,32,188.821,0)">
                        <path d="M0.455,-0.365C0.452,-0.363 0.452,-0.361 0.455,-0.359C0.526,-0.329 0.561,-0.273 0.561,-0.192C0.561,-0.131 0.541,-0.083 0.5,-0.05C0.459,-0.017 0.406,-0 0.341,-0L0.092,-0C0.085,-0 0.082,-0.003 0.082,-0.01L0.082,-0.69C0.082,-0.697 0.085,-0.7 0.092,-0.7L0.333,-0.7C0.402,-0.7 0.456,-0.684 0.495,-0.653C0.533,-0.621 0.552,-0.575 0.552,-0.514C0.552,-0.442 0.52,-0.392 0.455,-0.365ZM0.182,-0.617C0.179,-0.617 0.178,-0.616 0.178,-0.613L0.178,-0.402C0.178,-0.399 0.179,-0.398 0.182,-0.398L0.333,-0.398C0.372,-0.398 0.402,-0.408 0.425,-0.427C0.447,-0.446 0.458,-0.473 0.458,-0.506C0.458,-0.54 0.447,-0.567 0.425,-0.587C0.402,-0.607 0.372,-0.617 0.333,-0.617L0.182,-0.617ZM0.341,-0.084C0.379,-0.084 0.409,-0.095 0.432,-0.116C0.454,-0.136 0.465,-0.165 0.465,-0.201C0.465,-0.237 0.454,-0.266 0.431,-0.287C0.408,-0.308 0.377,-0.318 0.338,-0.318L0.182,-0.318C0.179,-0.318 0.178,-0.317 0.178,-0.314L0.178,-0.088C0.178,-0.085 0.179,-0.084 0.182,-0.084L0.341,-0.084Z" style="fill:white;fill-rule:nonzero;"/>
                    </g>
                    <g transform="matrix(32,0,0,32,216.043,0)">
                        <path d="M0.546,-0.627C0.546,-0.62 0.543,-0.617 0.536,-0.617L0.182,-0.617C0.179,-0.617 0.178,-0.616 0.178,-0.613L0.178,-0.398C0.178,-0.395 0.179,-0.394 0.182,-0.394L0.425,-0.394C0.432,-0.394 0.435,-0.391 0.435,-0.384L0.435,-0.321C0.435,-0.314 0.432,-0.311 0.425,-0.311L0.182,-0.311C0.179,-0.311 0.178,-0.31 0.178,-0.307L0.178,-0.01C0.178,-0.003 0.175,-0 0.168,-0L0.092,-0C0.085,-0 0.082,-0.003 0.082,-0.01L0.082,-0.69C0.082,-0.697 0.085,-0.7 0.092,-0.7L0.536,-0.7C0.543,-0.7 0.546,-0.697 0.546,-0.69L0.546,-0.627Z" style="fill:white;fill-rule:nonzero;"/>
                    </g>
                    <g transform="matrix(32,0,0,32,233.973,0)">
                        <path d="M0.293,-0.514C0.314,-0.514 0.334,-0.51 0.351,-0.501C0.356,-0.499 0.357,-0.495 0.356,-0.489L0.34,-0.414C0.339,-0.408 0.335,-0.406 0.328,-0.408C0.317,-0.413 0.303,-0.415 0.288,-0.415L0.274,-0.414C0.243,-0.413 0.217,-0.402 0.197,-0.382C0.176,-0.361 0.166,-0.335 0.166,-0.302L0.166,-0.01C0.166,-0.003 0.163,-0 0.156,-0L0.08,-0C0.073,-0 0.07,-0.003 0.07,-0.01L0.07,-0.499C0.07,-0.506 0.073,-0.509 0.08,-0.509L0.156,-0.509C0.163,-0.509 0.166,-0.506 0.166,-0.499L0.166,-0.446C0.166,-0.444 0.167,-0.443 0.168,-0.443C0.169,-0.442 0.169,-0.443 0.17,-0.444C0.2,-0.491 0.241,-0.514 0.293,-0.514Z" style="fill:white;fill-rule:nonzero;"/>
                    </g>
                    <g transform="matrix(32,0,0,32,246.016,0)">
                        <path d="M0.482,-0.318C0.485,-0.291 0.486,-0.26 0.485,-0.226C0.485,-0.219 0.482,-0.216 0.475,-0.216L0.156,-0.216C0.153,-0.216 0.152,-0.215 0.152,-0.212C0.152,-0.189 0.154,-0.172 0.158,-0.16C0.165,-0.133 0.18,-0.113 0.203,-0.098C0.225,-0.083 0.253,-0.075 0.287,-0.075C0.336,-0.075 0.374,-0.095 0.401,-0.136C0.404,-0.143 0.409,-0.144 0.414,-0.139L0.471,-0.101C0.476,-0.097 0.477,-0.093 0.474,-0.088C0.455,-0.058 0.429,-0.034 0.395,-0.017C0.36,0 0.321,0.009 0.278,0.009C0.229,0.009 0.188,-0.002 0.155,-0.023C0.122,-0.044 0.097,-0.075 0.08,-0.114C0.064,-0.153 0.056,-0.201 0.056,-0.257C0.056,-0.306 0.06,-0.343 0.067,-0.368C0.079,-0.414 0.103,-0.45 0.139,-0.477C0.175,-0.504 0.219,-0.517 0.27,-0.517C0.337,-0.517 0.388,-0.5 0.421,-0.467C0.454,-0.433 0.475,-0.383 0.482,-0.318ZM0.27,-0.434C0.241,-0.434 0.218,-0.427 0.199,-0.413C0.18,-0.398 0.168,-0.379 0.161,-0.355C0.156,-0.34 0.153,-0.322 0.152,-0.299C0.152,-0.296 0.153,-0.295 0.156,-0.295L0.385,-0.295C0.388,-0.295 0.389,-0.296 0.389,-0.299C0.388,-0.321 0.386,-0.337 0.383,-0.348C0.376,-0.374 0.363,-0.395 0.344,-0.411C0.324,-0.426 0.299,-0.434 0.27,-0.434Z" style="fill:white;fill-rule:nonzero;"/>
                    </g>
                    <g transform="matrix(32,0,0,32,263.595,0)">
                        <path d="M0.482,-0.318C0.485,-0.291 0.486,-0.26 0.485,-0.226C0.485,-0.219 0.482,-0.216 0.475,-0.216L0.156,-0.216C0.153,-0.216 0.152,-0.215 0.152,-0.212C0.152,-0.189 0.154,-0.172 0.158,-0.16C0.165,-0.133 0.18,-0.113 0.203,-0.098C0.225,-0.083 0.253,-0.075 0.287,-0.075C0.336,-0.075 0.374,-0.095 0.401,-0.136C0.404,-0.143 0.409,-0.144 0.414,-0.139L0.471,-0.101C0.476,-0.097 0.477,-0.093 0.474,-0.088C0.455,-0.058 0.429,-0.034 0.395,-0.017C0.36,0 0.321,0.009 0.278,0.009C0.229,0.009 0.188,-0.002 0.155,-0.023C0.122,-0.044 0.097,-0.075 0.08,-0.114C0.064,-0.153 0.056,-0.201 0.056,-0.257C0.056,-0.306 0.06,-0.343 0.067,-0.368C0.079,-0.414 0.103,-0.45 0.139,-0.477C0.175,-0.504 0.219,-0.517 0.27,-0.517C0.337,-0.517 0.388,-0.5 0.421,-0.467C0.454,-0.433 0.475,-0.383 0.482,-0.318ZM0.27,-0.434C0.241,-0.434 0.218,-0.427 0.199,-0.413C0.18,-0.398 0.168,-0.379 0.161,-0.355C0.156,-0.34 0.153,-0.322 0.152,-0.299C0.152,-0.296 0.153,-0.295 0.156,-0.295L0.385,-0.295C0.388,-0.295 0.389,-0.296 0.389,-0.299C0.388,-0.321 0.386,-0.337 0.383,-0.348C0.376,-0.374 0.363,-0.395 0.344,-0.411C0.324,-0.426 0.299,-0.434 0.27,-0.434Z" style="fill:white;fill-rule:nonzero;"/>
                    </g>
                    <g transform="matrix(32,0,0,32,288,0)">
                        <path d="M0.092,-0C0.085,-0 0.082,-0.003 0.082,-0.01L0.082,-0.69C0.082,-0.697 0.085,-0.7 0.092,-0.7L0.334,-0.7C0.403,-0.7 0.459,-0.682 0.5,-0.646C0.541,-0.609 0.562,-0.561 0.562,-0.5L0.562,-0.2C0.562,-0.139 0.541,-0.091 0.5,-0.055C0.459,-0.018 0.403,-0 0.334,-0L0.092,-0ZM0.178,-0.087C0.178,-0.084 0.179,-0.083 0.182,-0.083L0.338,-0.083C0.377,-0.083 0.408,-0.095 0.431,-0.119C0.454,-0.142 0.465,-0.174 0.466,-0.214L0.466,-0.486C0.466,-0.526 0.455,-0.558 0.432,-0.582C0.409,-0.605 0.377,-0.617 0.338,-0.617L0.182,-0.617C0.179,-0.617 0.178,-0.616 0.178,-0.613L0.178,-0.087Z" style="fill:white;fill-rule:nonzero;"/>
                    </g>
                    <g transform="matrix(32,0,0,32,308.043,0)">
                        <path d="M0.256,-0.517C0.297,-0.517 0.332,-0.51 0.363,-0.496C0.393,-0.481 0.416,-0.461 0.433,-0.436C0.449,-0.41 0.457,-0.381 0.457,-0.348L0.457,-0.01C0.457,-0.003 0.454,-0 0.447,-0L0.371,-0C0.364,-0 0.361,-0.003 0.361,-0.01L0.361,-0.046C0.361,-0.049 0.359,-0.05 0.356,-0.048C0.339,-0.03 0.318,-0.016 0.293,-0.007C0.268,0.003 0.24,0.008 0.209,0.008C0.16,0.008 0.119,-0.005 0.087,-0.03C0.054,-0.055 0.038,-0.092 0.038,-0.143C0.038,-0.195 0.056,-0.236 0.093,-0.266C0.129,-0.295 0.18,-0.31 0.245,-0.31L0.357,-0.31C0.36,-0.31 0.361,-0.311 0.361,-0.314L0.361,-0.341C0.361,-0.37 0.353,-0.393 0.336,-0.41C0.319,-0.426 0.293,-0.434 0.258,-0.434C0.23,-0.434 0.207,-0.428 0.19,-0.418C0.172,-0.407 0.161,-0.392 0.157,-0.373C0.155,-0.366 0.151,-0.363 0.145,-0.364L0.064,-0.375C0.057,-0.376 0.054,-0.379 0.055,-0.383C0.06,-0.422 0.081,-0.455 0.118,-0.48C0.155,-0.505 0.201,-0.517 0.256,-0.517ZM0.23,-0.073C0.265,-0.073 0.296,-0.082 0.322,-0.101C0.348,-0.12 0.361,-0.143 0.361,-0.172L0.361,-0.231C0.361,-0.234 0.36,-0.235 0.357,-0.235L0.263,-0.235C0.224,-0.235 0.192,-0.227 0.169,-0.212C0.146,-0.197 0.134,-0.175 0.134,-0.148C0.134,-0.123 0.143,-0.105 0.161,-0.092C0.178,-0.079 0.201,-0.073 0.23,-0.073Z" style="fill:white;fill-rule:nonzero;"/>
                    </g>
                    <g transform="matrix(32,0,0,32,324.789,0)">
                        <path d="M0.321,-0.44C0.321,-0.433 0.318,-0.43 0.311,-0.43L0.203,-0.43C0.2,-0.43 0.199,-0.429 0.199,-0.426L0.199,-0.161C0.199,-0.133 0.205,-0.113 0.218,-0.101C0.231,-0.088 0.25,-0.082 0.277,-0.082L0.306,-0.082C0.313,-0.082 0.316,-0.079 0.316,-0.072L0.316,-0.01C0.316,-0.003 0.313,-0 0.306,-0C0.285,0.001 0.269,0.002 0.26,0.002C0.209,0.002 0.171,-0.007 0.146,-0.026C0.12,-0.044 0.107,-0.078 0.107,-0.127L0.107,-0.426C0.107,-0.429 0.106,-0.43 0.103,-0.43L0.042,-0.43C0.035,-0.43 0.032,-0.433 0.032,-0.44L0.032,-0.499C0.032,-0.506 0.035,-0.509 0.042,-0.509L0.103,-0.509C0.106,-0.509 0.107,-0.51 0.107,-0.513L0.107,-0.631C0.107,-0.638 0.11,-0.641 0.117,-0.641L0.189,-0.641C0.196,-0.641 0.199,-0.638 0.199,-0.631L0.199,-0.513C0.199,-0.51 0.2,-0.509 0.203,-0.509L0.311,-0.509C0.318,-0.509 0.321,-0.506 0.321,-0.499L0.321,-0.44Z" style="fill:white;fill-rule:nonzero;"/>
                    </g>
                    <g transform="matrix(32,0,0,32,337.024,0)">
                        <path d="M0.256,-0.517C0.297,-0.517 0.332,-0.51 0.363,-0.496C0.393,-0.481 0.416,-0.461 0.433,-0.436C0.449,-0.41 0.457,-0.381 0.457,-0.348L0.457,-0.01C0.457,-0.003 0.454,-0 0.447,-0L0.371,-0C0.364,-0 0.361,-0.003 0.361,-0.01L0.361,-0.046C0.361,-0.049 0.359,-0.05 0.356,-0.048C0.339,-0.03 0.318,-0.016 0.293,-0.007C0.268,0.003 0.24,0.008 0.209,0.008C0.16,0.008 0.119,-0.005 0.087,-0.03C0.054,-0.055 0.038,-0.092 0.038,-0.143C0.038,-0.195 0.056,-0.236 0.093,-0.266C0.129,-0.295 0.18,-0.31 0.245,-0.31L0.357,-0.31C0.36,-0.31 0.361,-0.311 0.361,-0.314L0.361,-0.341C0.361,-0.37 0.353,-0.393 0.336,-0.41C0.319,-0.426 0.293,-0.434 0.258,-0.434C0.23,-0.434 0.207,-0.428 0.19,-0.418C0.172,-0.407 0.161,-0.392 0.157,-0.373C0.155,-0.366 0.151,-0.363 0.145,-0.364L0.064,-0.375C0.057,-0.376 0.054,-0.379 0.055,-0.383C0.06,-0.422 0.081,-0.455 0.118,-0.48C0.155,-0.505 0.201,-0.517 0.256,-0.517ZM0.23,-0.073C0.265,-0.073 0.296,-0.082 0.322,-0.101C0.348,-0.12 0.361,-0.143 0.361,-0.172L0.361,-0.231C0.361,-0.234 0.36,-0.235 0.357,-0.235L0.263,-0.235C0.224,-0.235 0.192,-0.227 0.169,-0.212C0.146,-0.197 0.134,-0.175 0.134,-0.148C0.134,-0.123 0.143,-0.105 0.161,-0.092C0.178,-0.079 0.201,-0.073 0.23,-0.073Z" style="fill:white;fill-rule:nonzero;"/>
                    </g>
                </g>
            </g>
            <g id="For-new-networks-val" transform="matrix(1,0,0,1,24.504,66.438)">
                <g>
                    <g transform="matrix(12,0,0,12,0,0)">
                        <path d="M0.546,-0.627C0.546,-0.62 0.543,-0.617 0.536,-0.617L0.182,-0.617C0.179,-0.617 0.178,-0.616 0.178,-0.613L0.178,-0.398C0.178,-0.395 0.179,-0.394 0.182,-0.394L0.425,-0.394C0.432,-0.394 0.435,-0.391 0.435,-0.384L0.435,-0.321C0.435,-0.314 0.432,-0.311 0.425,-0.311L0.182,-0.311C0.179,-0.311 0.178,-0.31 0.178,-0.307L0.178,-0.01C0.178,-0.003 0.175,-0 0.168,-0L0.092,-0C0.085,-0 0.082,-0.003 0.082,-0.01L0.082,-0.69C0.082,-0.697 0.085,-0.7 0.092,-0.7L0.536,-0.7C0.543,-0.7 0.546,-0.697 0.546,-0.69L0.546,-0.627Z" style="fill:white;fill-rule:nonzero;"/>
                    </g>
                    <g transform="matrix(12,0,0,12,6.276,0)">
                        <path d="M0.278,0.008C0.229,0.008 0.186,-0.005 0.149,-0.03C0.112,-0.055 0.087,-0.089 0.072,-0.134C0.06,-0.17 0.054,-0.211 0.054,-0.256C0.054,-0.303 0.06,-0.343 0.071,-0.376C0.086,-0.42 0.111,-0.455 0.148,-0.48C0.185,-0.505 0.228,-0.517 0.279,-0.517C0.327,-0.517 0.369,-0.505 0.405,-0.48C0.44,-0.455 0.466,-0.42 0.481,-0.377C0.493,-0.343 0.499,-0.303 0.499,-0.257C0.499,-0.21 0.493,-0.169 0.481,-0.134C0.466,-0.089 0.441,-0.055 0.405,-0.03C0.369,-0.005 0.327,0.008 0.278,0.008ZM0.278,-0.075C0.305,-0.075 0.328,-0.083 0.348,-0.098C0.368,-0.113 0.382,-0.134 0.391,-0.161C0.398,-0.186 0.402,-0.218 0.402,-0.255C0.402,-0.292 0.399,-0.323 0.392,-0.348C0.383,-0.375 0.369,-0.397 0.349,-0.412C0.329,-0.427 0.305,-0.434 0.276,-0.434C0.249,-0.434 0.225,-0.427 0.205,-0.412C0.185,-0.397 0.171,-0.375 0.162,-0.348C0.155,-0.325 0.151,-0.294 0.151,-0.255C0.151,-0.216 0.155,-0.185 0.162,-0.161C0.17,-0.134 0.184,-0.113 0.205,-0.098C0.225,-0.083 0.249,-0.075 0.278,-0.075Z" style="fill:white;fill-rule:nonzero;"/>
                    </g>
                    <g transform="matrix(12,0,0,12,12.996,0)">
                        <path d="M0.293,-0.514C0.314,-0.514 0.334,-0.51 0.351,-0.501C0.356,-0.499 0.357,-0.495 0.356,-0.489L0.34,-0.414C0.339,-0.408 0.335,-0.406 0.328,-0.408C0.317,-0.413 0.303,-0.415 0.288,-0.415L0.274,-0.414C0.243,-0.413 0.217,-0.402 0.197,-0.382C0.176,-0.361 0.166,-0.335 0.166,-0.302L0.166,-0.01C0.166,-0.003 0.163,-0 0.156,-0L0.08,-0C0.073,-0 0.07,-0.003 0.07,-0.01L0.07,-0.499C0.07,-0.506 0.073,-0.509 0.08,-0.509L0.156,-0.509C0.163,-0.509 0.166,-0.506 0.166,-0.499L0.166,-0.446C0.166,-0.444 0.167,-0.443 0.168,-0.443C0.169,-0.442 0.169,-0.443 0.17,-0.444C0.2,-0.491 0.241,-0.514 0.293,-0.514Z" style="fill:white;fill-rule:nonzero;"/>
                    </g>
                    <g transform="matrix(12,0,0,12,19.968,0)">
                        <path d="M0.297,-0.516C0.352,-0.516 0.395,-0.5 0.427,-0.469C0.459,-0.437 0.475,-0.394 0.475,-0.34L0.475,-0.01C0.475,-0.003 0.472,-0 0.465,-0L0.389,-0C0.382,-0 0.379,-0.003 0.379,-0.01L0.379,-0.321C0.379,-0.354 0.369,-0.381 0.35,-0.402C0.331,-0.423 0.305,-0.433 0.273,-0.433C0.242,-0.433 0.216,-0.423 0.196,-0.402C0.176,-0.381 0.166,-0.355 0.166,-0.322L0.166,-0.01C0.166,-0.003 0.163,-0 0.156,-0L0.08,-0C0.073,-0 0.07,-0.003 0.07,-0.01L0.07,-0.499C0.07,-0.506 0.073,-0.509 0.08,-0.509L0.156,-0.509C0.163,-0.509 0.166,-0.506 0.166,-0.499L0.166,-0.463C0.166,-0.462 0.167,-0.461 0.168,-0.46C0.169,-0.459 0.169,-0.46 0.17,-0.461C0.199,-0.498 0.241,-0.516 0.297,-0.516Z" style="fill:white;fill-rule:nonzero;"/>
                    </g>
                    <g transform="matrix(12,0,0,12,26.46,0)">
                        <path d="M0.482,-0.318C0.485,-0.291 0.486,-0.26 0.485,-0.226C0.485,-0.219 0.482,-0.216 0.475,-0.216L0.156,-0.216C0.153,-0.216 0.152,-0.215 0.152,-0.212C0.152,-0.189 0.154,-0.172 0.158,-0.16C0.165,-0.133 0.18,-0.113 0.203,-0.098C0.225,-0.083 0.253,-0.075 0.287,-0.075C0.336,-0.075 0.374,-0.095 0.401,-0.136C0.404,-0.143 0.409,-0.144 0.414,-0.139L0.471,-0.101C0.476,-0.097 0.477,-0.093 0.474,-0.088C0.455,-0.058 0.429,-0.034 0.395,-0.017C0.36,0 0.321,0.009 0.278,0.009C0.229,0.009 0.188,-0.002 0.155,-0.023C0.122,-0.044 0.097,-0.075 0.08,-0.114C0.064,-0.153 0.056,-0.201 0.056,-0.257C0.056,-0.306 0.06,-0.343 0.067,-0.368C0.079,-0.414 0.103,-0.45 0.139,-0.477C0.175,-0.504 0.219,-0.517 0.27,-0.517C0.337,-0.517 0.388,-0.5 0.421,-0.467C0.454,-0.433 0.475,-0.383 0.482,-0.318ZM0.27,-0.434C0.241,-0.434 0.218,-0.427 0.199,-0.413C0.18,-0.398 0.168,-0.379 0.161,-0.355C0.156,-0.34 0.153,-0.322 0.152,-0.299C0.152,-0.296 0.153,-0.295 0.156,-0.295L0.385,-0.295C0.388,-0.295 0.389,-0.296 0.389,-0.299C0.388,-0.321 0.386,-0.337 0.383,-0.348C0.376,-0.374 0.363,-0.395 0.344,-0.411C0.324,-0.426 0.299,-0.434 0.27,-0.434Z" style="fill:white;fill-rule:nonzero;"/>
                    </g>
                    <g transform="matrix(12,0,0,12,32.736,0)">
                        <path d="M0.183,-0C0.178,-0 0.174,-0.003 0.172,-0.008L0.028,-0.498L0.027,-0.501C0.027,-0.506 0.03,-0.509 0.037,-0.509L0.115,-0.509C0.121,-0.509 0.125,-0.506 0.126,-0.5L0.221,-0.137C0.222,-0.136 0.223,-0.135 0.224,-0.135C0.225,-0.135 0.225,-0.136 0.226,-0.137L0.323,-0.5C0.324,-0.506 0.328,-0.509 0.334,-0.509L0.403,-0.509C0.409,-0.509 0.413,-0.506 0.414,-0.5L0.513,-0.138C0.514,-0.137 0.515,-0.136 0.516,-0.136C0.517,-0.136 0.517,-0.137 0.518,-0.138L0.617,-0.5C0.618,-0.506 0.622,-0.509 0.628,-0.509L0.705,-0.508C0.708,-0.508 0.711,-0.507 0.713,-0.505C0.714,-0.503 0.715,-0.5 0.714,-0.497L0.569,-0.008C0.567,-0.003 0.563,-0 0.558,-0L0.48,-0C0.475,-0 0.471,-0.003 0.469,-0.008L0.371,-0.346C0.37,-0.347 0.37,-0.348 0.369,-0.348C0.368,-0.348 0.367,-0.347 0.366,-0.346L0.273,-0.009C0.272,-0.003 0.268,-0 0.262,-0L0.183,-0Z" style="fill:white;fill-rule:nonzero;"/>
                    </g>
                    <g transform="matrix(12,0,0,12,44.172,0)">
                        <path d="M0.297,-0.516C0.352,-0.516 0.395,-0.5 0.427,-0.469C0.459,-0.437 0.475,-0.394 0.475,-0.34L0.475,-0.01C0.475,-0.003 0.472,-0 0.465,-0L0.389,-0C0.382,-0 0.379,-0.003 0.379,-0.01L0.379,-0.321C0.379,-0.354 0.369,-0.381 0.35,-0.402C0.331,-0.423 0.305,-0.433 0.273,-0.433C0.242,-0.433 0.216,-0.423 0.196,-0.402C0.176,-0.381 0.166,-0.355 0.166,-0.322L0.166,-0.01C0.166,-0.003 0.163,-0 0.156,-0L0.08,-0C0.073,-0 0.07,-0.003 0.07,-0.01L0.07,-0.499C0.07,-0.506 0.073,-0.509 0.08,-0.509L0.156,-0.509C0.163,-0.509 0.166,-0.506 0.166,-0.499L0.166,-0.463C0.166,-0.462 0.167,-0.461 0.168,-0.46C0.169,-0.459 0.169,-0.46 0.17,-0.461C0.199,-0.498 0.241,-0.516 0.297,-0.516Z" style="fill:white;fill-rule:nonzero;"/>
                    </g>
                    <g transform="matrix(12,0,0,12,50.664,0)">
                        <path d="M0.482,-0.318C0.485,-0.291 0.486,-0.26 0.485,-0.226C0.485,-0.219 0.482,-0.216 0.475,-0.216L0.156,-0.216C0.153,-0.216 0.152,-0.215 0.152,-0.212C0.152,-0.189 0.154,-0.172 0.158,-0.16C0.165,-0.133 0.18,-0.113 0.203,-0.098C0.225,-0.083 0.253,-0.075 0.287,-0.075C0.336,-0.075 0.374,-0.095 0.401,-0.136C0.404,-0.143 0.409,-0.144 0.414,-0.139L0.471,-0.101C0.476,-0.097 0.477,-0.093 0.474,-0.088C0.455,-0.058 0.429,-0.034 0.395,-0.017C0.36,0 0.321,0.009 0.278,0.009C0.229,0.009 0.188,-0.002 0.155,-0.023C0.122,-0.044 0.097,-0.075 0.08,-0.114C0.064,-0.153 0.056,-0.201 0.056,-0.257C0.056,-0.306 0.06,-0.343 0.067,-0.368C0.079,-0.414 0.103,-0.45 0.139,-0.477C0.175,-0.504 0.219,-0.517 0.27,-0.517C0.337,-0.517 0.388,-0.5 0.421,-0.467C0.454,-0.433 0.475,-0.383 0.482,-0.318ZM0.27,-0.434C0.241,-0.434 0.218,-0.427 0.199,-0.413C0.18,-0.398 0.168,-0.379 0.161,-0.355C0.156,-0.34 0.153,-0.322 0.152,-0.299C0.152,-0.296 0.153,-0.295 0.156,-0.295L0.385,-0.295C0.388,-0.295 0.389,-0.296 0.389,-0.299C0.388,-0.321 0.386,-0.337 0.383,-0.348C0.376,-0.374 0.363,-0.395 0.344,-0.411C0.324,-0.426 0.299,-0.434 0.27,-0.434Z" style="fill:white;fill-rule:nonzero;"/>
                    </g>
                    <g transform="matrix(12,0,0,12,57.06,0)">
                        <path d="M0.321,-0.44C0.321,-0.433 0.318,-0.43 0.311,-0.43L0.203,-0.43C0.2,-0.43 0.199,-0.429 0.199,-0.426L0.199,-0.161C0.199,-0.133 0.205,-0.113 0.218,-0.101C0.231,-0.088 0.25,-0.082 0.277,-0.082L0.306,-0.082C0.313,-0.082 0.316,-0.079 0.316,-0.072L0.316,-0.01C0.316,-0.003 0.313,-0 0.306,-0C0.285,0.001 0.269,0.002 0.26,0.002C0.209,0.002 0.171,-0.007 0.146,-0.026C0.12,-0.044 0.107,-0.078 0.107,-0.127L0.107,-0.426C0.107,-0.429 0.106,-0.43 0.103,-0.43L0.042,-0.43C0.035,-0.43 0.032,-0.433 0.032,-0.44L0.032,-0.499C0.032,-0.506 0.035,-0.509 0.042,-0.509L0.103,-0.509C0.106,-0.509 0.107,-0.51 0.107,-0.513L0.107,-0.631C0.107,-0.638 0.11,-0.641 0.117,-0.641L0.189,-0.641C0.196,-0.641 0.199,-0.638 0.199,-0.631L0.199,-0.513C0.199,-0.51 0.2,-0.509 0.203,-0.509L0.311,-0.509C0.318,-0.509 0.321,-0.506 0.321,-0.499L0.321,-0.44Z" style="fill:white;fill-rule:nonzero;"/>
                    </g>
                    <g transform="matrix(12,0,0,12,61.548,0)">
                        <path d="M0.183,-0C0.178,-0 0.174,-0.003 0.172,-0.008L0.028,-0.498L0.027,-0.501C0.027,-0.506 0.03,-0.509 0.037,-0.509L0.115,-0.509C0.121,-0.509 0.125,-0.506 0.126,-0.5L0.221,-0.137C0.222,-0.136 0.223,-0.135 0.224,-0.135C0.225,-0.135 0.225,-0.136 0.226,-0.137L0.323,-0.5C0.324,-0.506 0.328,-0.509 0.334,-0.509L0.403,-0.509C0.409,-0.509 0.413,-0.506 0.414,-0.5L0.513,-0.138C0.514,-0.137 0.515,-0.136 0.516,-0.136C0.517,-0.136 0.517,-0.137 0.518,-0.138L0.617,-0.5C0.618,-0.506 0.622,-0.509 0.628,-0.509L0.705,-0.508C0.708,-0.508 0.711,-0.507 0.713,-0.505C0.714,-0.503 0.715,-0.5 0.714,-0.497L0.569,-0.008C0.567,-0.003 0.563,-0 0.558,-0L0.48,-0C0.475,-0 0.471,-0.003 0.469,-0.008L0.371,-0.346C0.37,-0.347 0.37,-0.348 0.369,-0.348C0.368,-0.348 0.367,-0.347 0.366,-0.346L0.273,-0.009C0.272,-0.003 0.268,-0 0.262,-0L0.183,-0Z" style="fill:white;fill-rule:nonzero;"/>
                    </g>
                    <g transform="matrix(12,0,0,12,70.26,0)">
                        <path d="M0.278,0.008C0.229,0.008 0.186,-0.005 0.149,-0.03C0.112,-0.055 0.087,-0.089 0.072,-0.134C0.06,-0.17 0.054,-0.211 0.054,-0.256C0.054,-0.303 0.06,-0.343 0.071,-0.376C0.086,-0.42 0.111,-0.455 0.148,-0.48C0.185,-0.505 0.228,-0.517 0.279,-0.517C0.327,-0.517 0.369,-0.505 0.405,-0.48C0.44,-0.455 0.466,-0.42 0.481,-0.377C0.493,-0.343 0.499,-0.303 0.499,-0.257C0.499,-0.21 0.493,-0.169 0.481,-0.134C0.466,-0.089 0.441,-0.055 0.405,-0.03C0.369,-0.005 0.327,0.008 0.278,0.008ZM0.278,-0.075C0.305,-0.075 0.328,-0.083 0.348,-0.098C0.368,-0.113 0.382,-0.134 0.391,-0.161C0.398,-0.186 0.402,-0.218 0.402,-0.255C0.402,-0.292 0.399,-0.323 0.392,-0.348C0.383,-0.375 0.369,-0.397 0.349,-0.412C0.329,-0.427 0.305,-0.434 0.276,-0.434C0.249,-0.434 0.225,-0.427 0.205,-0.412C0.185,-0.397 0.171,-0.375 0.162,-0.348C0.155,-0.325 0.151,-0.294 0.151,-0.255C0.151,-0.216 0.155,-0.185 0.162,-0.161C0.17,-0.134 0.184,-0.113 0.205,-0.098C0.225,-0.083 0.249,-0.075 0.278,-0.075Z" style="fill:white;fill-rule:nonzero;"/>
                    </g>
                    <g transform="matrix(12,0,0,12,76.98,0)">
                        <path d="M0.293,-0.514C0.314,-0.514 0.334,-0.51 0.351,-0.501C0.356,-0.499 0.357,-0.495 0.356,-0.489L0.34,-0.414C0.339,-0.408 0.335,-0.406 0.328,-0.408C0.317,-0.413 0.303,-0.415 0.288,-0.415L0.274,-0.414C0.243,-0.413 0.217,-0.402 0.197,-0.382C0.176,-0.361 0.166,-0.335 0.166,-0.302L0.166,-0.01C0.166,-0.003 0.163,-0 0.156,-0L0.08,-0C0.073,-0 0.07,-0.003 0.07,-0.01L0.07,-0.499C0.07,-0.506 0.073,-0.509 0.08,-0.509L0.156,-0.509C0.163,-0.509 0.166,-0.506 0.166,-0.499L0.166,-0.446C0.166,-0.444 0.167,-0.443 0.168,-0.443C0.169,-0.442 0.169,-0.443 0.17,-0.444C0.2,-0.491 0.241,-0.514 0.293,-0.514Z" style="fill:white;fill-rule:nonzero;"/>
                    </g>
                    <g transform="matrix(12,0,0,12,81.492,0)">
                        <path d="M0.08,-0C0.073,-0 0.07,-0.003 0.07,-0.01L0.07,-0.69C0.07,-0.697 0.073,-0.7 0.08,-0.7L0.156,-0.7C0.163,-0.7 0.166,-0.697 0.166,-0.69L0.166,-0.305C0.166,-0.304 0.167,-0.303 0.168,-0.302C0.169,-0.301 0.17,-0.302 0.171,-0.303L0.356,-0.504C0.359,-0.507 0.363,-0.509 0.368,-0.509L0.457,-0.509C0.461,-0.509 0.464,-0.508 0.465,-0.506C0.466,-0.503 0.465,-0.5 0.462,-0.497L0.333,-0.348C0.332,-0.345 0.331,-0.343 0.332,-0.342L0.485,-0.012L0.486,-0.008C0.486,-0.003 0.483,-0 0.477,-0L0.397,-0C0.392,-0 0.388,-0.003 0.386,-0.008L0.267,-0.28C0.266,-0.283 0.264,-0.284 0.262,-0.281L0.168,-0.177C0.167,-0.174 0.166,-0.173 0.166,-0.172L0.166,-0.01C0.166,-0.003 0.163,-0 0.156,-0L0.08,-0Z" style="fill:white;fill-rule:nonzero;"/>
                    </g>
                    <g transform="matrix(12,0,0,12,87.612,0)">
                        <path d="M0.249,0.006C0.209,0.006 0.174,0 0.144,-0.012C0.113,-0.024 0.09,-0.041 0.073,-0.062C0.056,-0.083 0.048,-0.106 0.048,-0.131L0.048,-0.142C0.048,-0.149 0.051,-0.152 0.058,-0.152L0.13,-0.152C0.137,-0.152 0.14,-0.149 0.14,-0.142L0.14,-0.137C0.14,-0.118 0.15,-0.102 0.171,-0.088C0.191,-0.074 0.217,-0.067 0.248,-0.067C0.278,-0.067 0.302,-0.074 0.321,-0.087C0.34,-0.099 0.349,-0.116 0.349,-0.136C0.349,-0.155 0.34,-0.17 0.323,-0.18C0.306,-0.189 0.278,-0.199 0.239,-0.21C0.201,-0.221 0.169,-0.232 0.144,-0.243C0.118,-0.254 0.096,-0.269 0.079,-0.29C0.061,-0.31 0.052,-0.336 0.052,-0.368C0.052,-0.413 0.07,-0.448 0.105,-0.475C0.139,-0.501 0.186,-0.514 0.244,-0.514C0.283,-0.514 0.317,-0.508 0.347,-0.496C0.376,-0.483 0.399,-0.466 0.415,-0.444C0.431,-0.422 0.439,-0.397 0.439,-0.37L0.439,-0.367C0.439,-0.36 0.436,-0.357 0.429,-0.357L0.359,-0.357C0.352,-0.357 0.349,-0.36 0.349,-0.367L0.349,-0.37C0.349,-0.389 0.339,-0.405 0.321,-0.419C0.302,-0.432 0.276,-0.438 0.243,-0.438C0.214,-0.438 0.19,-0.432 0.172,-0.421C0.153,-0.41 0.144,-0.394 0.144,-0.375C0.144,-0.356 0.153,-0.341 0.171,-0.331C0.188,-0.321 0.217,-0.31 0.256,-0.299C0.295,-0.288 0.327,-0.278 0.353,-0.268C0.378,-0.257 0.4,-0.242 0.418,-0.222C0.436,-0.201 0.445,-0.175 0.445,-0.142C0.445,-0.097 0.427,-0.061 0.392,-0.034C0.356,-0.007 0.308,0.006 0.249,0.006Z" style="fill:white;fill-rule:nonzero;"/>
                    </g>
                    <g transform="matrix(12,0,0,12,95.976,0)">
                        <path d="M0.204,-0C0.198,-0 0.194,-0.003 0.192,-0.008L0.029,-0.498L0.028,-0.502C0.028,-0.507 0.031,-0.509 0.037,-0.509L0.121,-0.509C0.127,-0.509 0.131,-0.506 0.133,-0.501L0.243,-0.139C0.244,-0.138 0.245,-0.137 0.246,-0.137C0.247,-0.137 0.248,-0.138 0.249,-0.139L0.358,-0.501C0.36,-0.506 0.364,-0.509 0.37,-0.509L0.454,-0.508C0.461,-0.508 0.464,-0.504 0.462,-0.497L0.3,-0.008C0.298,-0.003 0.294,-0 0.288,-0L0.204,-0Z" style="fill:white;fill-rule:nonzero;"/>
                    </g>
                    <g transform="matrix(12,0,0,12,101.724,0)">
                        <path d="M0.256,-0.517C0.297,-0.517 0.332,-0.51 0.363,-0.496C0.393,-0.481 0.416,-0.461 0.433,-0.436C0.449,-0.41 0.457,-0.381 0.457,-0.348L0.457,-0.01C0.457,-0.003 0.454,-0 0.447,-0L0.371,-0C0.364,-0 0.361,-0.003 0.361,-0.01L0.361,-0.046C0.361,-0.049 0.359,-0.05 0.356,-0.048C0.339,-0.03 0.318,-0.016 0.293,-0.007C0.268,0.003 0.24,0.008 0.209,0.008C0.16,0.008 0.119,-0.005 0.087,-0.03C0.054,-0.055 0.038,-0.092 0.038,-0.143C0.038,-0.195 0.056,-0.236 0.093,-0.266C0.129,-0.295 0.18,-0.31 0.245,-0.31L0.357,-0.31C0.36,-0.31 0.361,-0.311 0.361,-0.314L0.361,-0.341C0.361,-0.37 0.353,-0.393 0.336,-0.41C0.319,-0.426 0.293,-0.434 0.258,-0.434C0.23,-0.434 0.207,-0.428 0.19,-0.418C0.172,-0.407 0.161,-0.392 0.157,-0.373C0.155,-0.366 0.151,-0.363 0.145,-0.364L0.064,-0.375C0.057,-0.376 0.054,-0.379 0.055,-0.383C0.06,-0.422 0.081,-0.455 0.118,-0.48C0.155,-0.505 0.201,-0.517 0.256,-0.517ZM0.23,-0.073C0.265,-0.073 0.296,-0.082 0.322,-0.101C0.348,-0.12 0.361,-0.143 0.361,-0.172L0.361,-0.231C0.361,-0.234 0.36,-0.235 0.357,-0.235L0.263,-0.235C0.224,-0.235 0.192,-0.227 0.169,-0.212C0.146,-0.197 0.134,-0.175 0.134,-0.148C0.134,-0.123 0.143,-0.105 0.161,-0.092C0.178,-0.079 0.201,-0.073 0.23,-0.073Z" style="fill:white;fill-rule:nonzero;"/>
                    </g>
                    <g transform="matrix(12,0,0,12,107.988,0)">
                        <path d="M0.08,-0C0.073,-0 0.07,-0.003 0.07,-0.01L0.07,-0.69C0.07,-0.697 0.073,-0.7 0.08,-0.7L0.156,-0.7C0.163,-0.7 0.166,-0.697 0.166,-0.69L0.166,-0.01C0.166,-0.003 0.163,-0 0.156,-0L0.08,-0Z" style="fill:white;fill-rule:nonzero;"/>
                    </g>
                    <g transform="matrix(12,0,0,12,110.868,0)">
                        <path d="M0.128,-0.589C0.109,-0.589 0.094,-0.595 0.082,-0.607C0.07,-0.619 0.064,-0.634 0.064,-0.653C0.064,-0.672 0.07,-0.687 0.082,-0.699C0.094,-0.711 0.109,-0.717 0.128,-0.717C0.147,-0.717 0.162,-0.711 0.174,-0.699C0.186,-0.687 0.192,-0.672 0.192,-0.653C0.192,-0.634 0.186,-0.619 0.174,-0.607C0.162,-0.595 0.147,-0.589 0.128,-0.589ZM0.088,-0.001C0.081,-0.001 0.078,-0.004 0.078,-0.011L0.078,-0.499C0.078,-0.506 0.081,-0.509 0.088,-0.509L0.164,-0.509C0.171,-0.509 0.174,-0.506 0.174,-0.499L0.174,-0.011C0.174,-0.004 0.171,-0.001 0.164,-0.001L0.088,-0.001Z" style="fill:white;fill-rule:nonzero;"/>
                    </g>
                    <g transform="matrix(12,0,0,12,113.988,0)">
                        <path d="M0.386,-0.69C0.386,-0.697 0.389,-0.7 0.396,-0.7L0.472,-0.7C0.479,-0.7 0.482,-0.697 0.482,-0.69L0.482,-0.01C0.482,-0.003 0.479,-0 0.472,-0L0.396,-0C0.389,-0 0.386,-0.003 0.386,-0.01L0.386,-0.043C0.386,-0.044 0.386,-0.045 0.385,-0.046C0.384,-0.047 0.382,-0.046 0.381,-0.045C0.366,-0.028 0.349,-0.015 0.329,-0.006C0.309,0.003 0.287,0.008 0.264,0.008C0.216,0.008 0.176,-0.004 0.145,-0.028C0.113,-0.051 0.09,-0.085 0.075,-0.128C0.062,-0.163 0.056,-0.206 0.056,-0.256C0.056,-0.303 0.061,-0.343 0.072,-0.377C0.086,-0.421 0.109,-0.455 0.141,-0.48C0.173,-0.505 0.214,-0.517 0.264,-0.517C0.287,-0.517 0.308,-0.513 0.329,-0.504C0.349,-0.495 0.366,-0.482 0.381,-0.465C0.382,-0.464 0.384,-0.463 0.385,-0.464C0.386,-0.465 0.386,-0.466 0.386,-0.467L0.386,-0.69ZM0.361,-0.129C0.376,-0.157 0.384,-0.199 0.384,-0.255C0.384,-0.311 0.376,-0.354 0.359,-0.383C0.34,-0.417 0.311,-0.434 0.274,-0.434C0.234,-0.434 0.204,-0.418 0.185,-0.386C0.164,-0.353 0.153,-0.309 0.153,-0.254C0.153,-0.203 0.161,-0.161 0.178,-0.13C0.197,-0.093 0.229,-0.075 0.273,-0.075C0.312,-0.075 0.341,-0.093 0.361,-0.129Z" style="fill:white;fill-rule:nonzero;"/>
                    </g>
                    <g transform="matrix(12,0,0,12,123.144,0)">
                        <path d="M0.294,-0.616C0.261,-0.616 0.238,-0.61 0.226,-0.597C0.214,-0.584 0.208,-0.56 0.208,-0.525L0.208,-0.513C0.208,-0.51 0.209,-0.509 0.212,-0.509L0.317,-0.509C0.324,-0.509 0.327,-0.506 0.327,-0.499L0.327,-0.431C0.327,-0.424 0.324,-0.421 0.317,-0.421L0.212,-0.421C0.209,-0.421 0.208,-0.42 0.208,-0.417L0.208,-0.01C0.208,-0.003 0.205,-0 0.198,-0L0.122,-0C0.115,-0 0.112,-0.003 0.112,-0.01L0.112,-0.417C0.112,-0.42 0.111,-0.421 0.108,-0.421L0.041,-0.421C0.034,-0.421 0.031,-0.424 0.031,-0.431L0.031,-0.499C0.031,-0.506 0.034,-0.509 0.041,-0.509L0.108,-0.509C0.111,-0.509 0.112,-0.51 0.112,-0.513L0.112,-0.531C0.112,-0.575 0.117,-0.609 0.128,-0.633C0.138,-0.657 0.155,-0.674 0.18,-0.685C0.205,-0.695 0.239,-0.7 0.284,-0.7L0.318,-0.7C0.325,-0.7 0.328,-0.697 0.328,-0.69L0.328,-0.626C0.328,-0.619 0.325,-0.616 0.318,-0.616L0.294,-0.616Z" style="fill:white;fill-rule:nonzero;"/>
                    </g>
                    <g transform="matrix(12,0,0,12,127.116,0)">
                        <path d="M0.278,0.008C0.229,0.008 0.186,-0.005 0.149,-0.03C0.112,-0.055 0.087,-0.089 0.072,-0.134C0.06,-0.17 0.054,-0.211 0.054,-0.256C0.054,-0.303 0.06,-0.343 0.071,-0.376C0.086,-0.42 0.111,-0.455 0.148,-0.48C0.185,-0.505 0.228,-0.517 0.279,-0.517C0.327,-0.517 0.369,-0.505 0.405,-0.48C0.44,-0.455 0.466,-0.42 0.481,-0.377C0.493,-0.343 0.499,-0.303 0.499,-0.257C0.499,-0.21 0.493,-0.169 0.481,-0.134C0.466,-0.089 0.441,-0.055 0.405,-0.03C0.369,-0.005 0.327,0.008 0.278,0.008ZM0.278,-0.075C0.305,-0.075 0.328,-0.083 0.348,-0.098C0.368,-0.113 0.382,-0.134 0.391,-0.161C0.398,-0.186 0.402,-0.218 0.402,-0.255C0.402,-0.292 0.399,-0.323 0.392,-0.348C0.383,-0.375 0.369,-0.397 0.349,-0.412C0.329,-0.427 0.305,-0.434 0.276,-0.434C0.249,-0.434 0.225,-0.427 0.205,-0.412C0.185,-0.397 0.171,-0.375 0.162,-0.348C0.155,-0.325 0.151,-0.294 0.151,-0.255C0.151,-0.216 0.155,-0.185 0.162,-0.161C0.17,-0.134 0.184,-0.113 0.205,-0.098C0.225,-0.083 0.249,-0.075 0.278,-0.075Z" style="fill:white;fill-rule:nonzero;"/>
                    </g>
                    <g transform="matrix(12,0,0,12,133.836,0)">
                        <path d="M0.293,-0.514C0.314,-0.514 0.334,-0.51 0.351,-0.501C0.356,-0.499 0.357,-0.495 0.356,-0.489L0.34,-0.414C0.339,-0.408 0.335,-0.406 0.328,-0.408C0.317,-0.413 0.303,-0.415 0.288,-0.415L0.274,-0.414C0.243,-0.413 0.217,-0.402 0.197,-0.382C0.176,-0.361 0.166,-0.335 0.166,-0.302L0.166,-0.01C0.166,-0.003 0.163,-0 0.156,-0L0.08,-0C0.073,-0 0.07,-0.003 0.07,-0.01L0.07,-0.499C0.07,-0.506 0.073,-0.509 0.08,-0.509L0.156,-0.509C0.163,-0.509 0.166,-0.506 0.166,-0.499L0.166,-0.446C0.166,-0.444 0.167,-0.443 0.168,-0.443C0.169,-0.442 0.169,-0.443 0.17,-0.444C0.2,-0.491 0.241,-0.514 0.293,-0.514Z" style="fill:white;fill-rule:nonzero;"/>
                    </g>
                    <g transform="matrix(12,0,0,12,140.808,0)">
                        <path d="M0.321,-0.44C0.321,-0.433 0.318,-0.43 0.311,-0.43L0.203,-0.43C0.2,-0.43 0.199,-0.429 0.199,-0.426L0.199,-0.161C0.199,-0.133 0.205,-0.113 0.218,-0.101C0.231,-0.088 0.25,-0.082 0.277,-0.082L0.306,-0.082C0.313,-0.082 0.316,-0.079 0.316,-0.072L0.316,-0.01C0.316,-0.003 0.313,-0 0.306,-0C0.285,0.001 0.269,0.002 0.26,0.002C0.209,0.002 0.171,-0.007 0.146,-0.026C0.12,-0.044 0.107,-0.078 0.107,-0.127L0.107,-0.426C0.107,-0.429 0.106,-0.43 0.103,-0.43L0.042,-0.43C0.035,-0.43 0.032,-0.433 0.032,-0.44L0.032,-0.499C0.032,-0.506 0.035,-0.509 0.042,-0.509L0.103,-0.509C0.106,-0.509 0.107,-0.51 0.107,-0.513L0.107,-0.631C0.107,-0.638 0.11,-0.641 0.117,-0.641L0.189,-0.641C0.196,-0.641 0.199,-0.638 0.199,-0.631L0.199,-0.513C0.199,-0.51 0.2,-0.509 0.203,-0.509L0.311,-0.509C0.318,-0.509 0.321,-0.506 0.321,-0.499L0.321,-0.44Z" style="fill:white;fill-rule:nonzero;"/>
                    </g>
                    <g transform="matrix(12,0,0,12,145.296,0)">
                        <path d="M0.297,-0.516C0.352,-0.516 0.395,-0.5 0.427,-0.469C0.459,-0.437 0.475,-0.394 0.475,-0.34L0.475,-0.01C0.475,-0.003 0.472,-0 0.465,-0L0.389,-0C0.382,-0 0.379,-0.003 0.379,-0.01L0.379,-0.321C0.379,-0.354 0.369,-0.381 0.35,-0.402C0.331,-0.423 0.305,-0.433 0.273,-0.433C0.242,-0.433 0.216,-0.423 0.196,-0.402C0.176,-0.381 0.166,-0.355 0.166,-0.322L0.166,-0.01C0.166,-0.003 0.163,-0 0.156,-0L0.08,-0C0.073,-0 0.07,-0.003 0.07,-0.01L0.07,-0.69C0.07,-0.697 0.073,-0.7 0.08,-0.7L0.156,-0.7C0.163,-0.7 0.166,-0.697 0.166,-0.69L0.166,-0.463C0.166,-0.462 0.167,-0.461 0.168,-0.46C0.169,-0.459 0.169,-0.46 0.17,-0.461C0.199,-0.498 0.241,-0.516 0.297,-0.516Z" style="fill:white;fill-rule:nonzero;"/>
                    </g>
                    <g transform="matrix(12,0,0,12,151.788,0)">
                        <path d="M0.482,-0.318C0.485,-0.291 0.486,-0.26 0.485,-0.226C0.485,-0.219 0.482,-0.216 0.475,-0.216L0.156,-0.216C0.153,-0.216 0.152,-0.215 0.152,-0.212C0.152,-0.189 0.154,-0.172 0.158,-0.16C0.165,-0.133 0.18,-0.113 0.203,-0.098C0.225,-0.083 0.253,-0.075 0.287,-0.075C0.336,-0.075 0.374,-0.095 0.401,-0.136C0.404,-0.143 0.409,-0.144 0.414,-0.139L0.471,-0.101C0.476,-0.097 0.477,-0.093 0.474,-0.088C0.455,-0.058 0.429,-0.034 0.395,-0.017C0.36,0 0.321,0.009 0.278,0.009C0.229,0.009 0.188,-0.002 0.155,-0.023C0.122,-0.044 0.097,-0.075 0.08,-0.114C0.064,-0.153 0.056,-0.201 0.056,-0.257C0.056,-0.306 0.06,-0.343 0.067,-0.368C0.079,-0.414 0.103,-0.45 0.139,-0.477C0.175,-0.504 0.219,-0.517 0.27,-0.517C0.337,-0.517 0.388,-0.5 0.421,-0.467C0.454,-0.433 0.475,-0.383 0.482,-0.318ZM0.27,-0.434C0.241,-0.434 0.218,-0.427 0.199,-0.413C0.18,-0.398 0.168,-0.379 0.161,-0.355C0.156,-0.34 0.153,-0.322 0.152,-0.299C0.152,-0.296 0.153,-0.295 0.156,-0.295L0.385,-0.295C0.388,-0.295 0.389,-0.296 0.389,-0.299C0.388,-0.321 0.386,-0.337 0.383,-0.348C0.376,-0.374 0.363,-0.395 0.344,-0.411C0.324,-0.426 0.299,-0.434 0.27,-0.434Z" style="fill:white;fill-rule:nonzero;"/>
                    </g>
                    <g transform="matrix(12,0,0,12,160.74,0)">
                        <path d="M0.294,-0.616C0.261,-0.616 0.238,-0.61 0.226,-0.597C0.214,-0.584 0.208,-0.56 0.208,-0.525L0.208,-0.513C0.208,-0.51 0.209,-0.509 0.212,-0.509L0.317,-0.509C0.324,-0.509 0.327,-0.506 0.327,-0.499L0.327,-0.431C0.327,-0.424 0.324,-0.421 0.317,-0.421L0.212,-0.421C0.209,-0.421 0.208,-0.42 0.208,-0.417L0.208,-0.01C0.208,-0.003 0.205,-0 0.198,-0L0.122,-0C0.115,-0 0.112,-0.003 0.112,-0.01L0.112,-0.417C0.112,-0.42 0.111,-0.421 0.108,-0.421L0.041,-0.421C0.034,-0.421 0.031,-0.424 0.031,-0.431L0.031,-0.499C0.031,-0.506 0.034,-0.509 0.041,-0.509L0.108,-0.509C0.111,-0.509 0.112,-0.51 0.112,-0.513L0.112,-0.531C0.112,-0.575 0.117,-0.609 0.128,-0.633C0.138,-0.657 0.155,-0.674 0.18,-0.685C0.205,-0.695 0.239,-0.7 0.284,-0.7L0.318,-0.7C0.325,-0.7 0.328,-0.697 0.328,-0.69L0.328,-0.626C0.328,-0.619 0.325,-0.616 0.318,-0.616L0.294,-0.616ZM0.495,-0.589C0.476,-0.589 0.461,-0.595 0.449,-0.607C0.437,-0.619 0.431,-0.634 0.431,-0.653C0.431,-0.672 0.437,-0.687 0.449,-0.699C0.461,-0.711 0.476,-0.717 0.495,-0.717C0.514,-0.717 0.529,-0.711 0.541,-0.699C0.553,-0.687 0.559,-0.672 0.559,-0.653C0.559,-0.634 0.553,-0.619 0.541,-0.607C0.529,-0.595 0.514,-0.589 0.495,-0.589ZM0.455,-0.001C0.448,-0.001 0.445,-0.004 0.445,-0.011L0.445,-0.499C0.445,-0.506 0.448,-0.509 0.455,-0.509L0.531,-0.509C0.538,-0.509 0.541,-0.506 0.541,-0.499L0.541,-0.011C0.541,-0.004 0.538,-0.001 0.531,-0.001L0.455,-0.001Z" style="fill:white;fill-rule:nonzero;"/>
                    </g>
                    <g transform="matrix(12,0,0,12,168.264,0)">
                        <path d="M0.293,-0.514C0.314,-0.514 0.334,-0.51 0.351,-0.501C0.356,-0.499 0.357,-0.495 0.356,-0.489L0.34,-0.414C0.339,-0.408 0.335,-0.406 0.328,-0.408C0.317,-0.413 0.303,-0.415 0.288,-0.415L0.274,-0.414C0.243,-0.413 0.217,-0.402 0.197,-0.382C0.176,-0.361 0.166,-0.335 0.166,-0.302L0.166,-0.01C0.166,-0.003 0.163,-0 0.156,-0L0.08,-0C0.073,-0 0.07,-0.003 0.07,-0.01L0.07,-0.499C0.07,-0.506 0.073,-0.509 0.08,-0.509L0.156,-0.509C0.163,-0.509 0.166,-0.506 0.166,-0.499L0.166,-0.446C0.166,-0.444 0.167,-0.443 0.168,-0.443C0.169,-0.442 0.169,-0.443 0.17,-0.444C0.2,-0.491 0.241,-0.514 0.293,-0.514Z" style="fill:white;fill-rule:nonzero;"/>
                    </g>
                    <g transform="matrix(12,0,0,12,172.716,0)">
                        <path d="M0.249,0.006C0.209,0.006 0.174,0 0.144,-0.012C0.113,-0.024 0.09,-0.041 0.073,-0.062C0.056,-0.083 0.048,-0.106 0.048,-0.131L0.048,-0.142C0.048,-0.149 0.051,-0.152 0.058,-0.152L0.13,-0.152C0.137,-0.152 0.14,-0.149 0.14,-0.142L0.14,-0.137C0.14,-0.118 0.15,-0.102 0.171,-0.088C0.191,-0.074 0.217,-0.067 0.248,-0.067C0.278,-0.067 0.302,-0.074 0.321,-0.087C0.34,-0.099 0.349,-0.116 0.349,-0.136C0.349,-0.155 0.34,-0.17 0.323,-0.18C0.306,-0.189 0.278,-0.199 0.239,-0.21C0.201,-0.221 0.169,-0.232 0.144,-0.243C0.118,-0.254 0.096,-0.269 0.079,-0.29C0.061,-0.31 0.052,-0.336 0.052,-0.368C0.052,-0.413 0.07,-0.448 0.105,-0.475C0.139,-0.501 0.186,-0.514 0.244,-0.514C0.283,-0.514 0.317,-0.508 0.347,-0.496C0.376,-0.483 0.399,-0.466 0.415,-0.444C0.431,-0.422 0.439,-0.397 0.439,-0.37L0.439,-0.367C0.439,-0.36 0.436,-0.357 0.429,-0.357L0.359,-0.357C0.352,-0.357 0.349,-0.36 0.349,-0.367L0.349,-0.37C0.349,-0.389 0.339,-0.405 0.321,-0.419C0.302,-0.432 0.276,-0.438 0.243,-0.438C0.214,-0.438 0.19,-0.432 0.172,-0.421C0.153,-0.41 0.144,-0.394 0.144,-0.375C0.144,-0.356 0.153,-0.341 0.171,-0.331C0.188,-0.321 0.217,-0.31 0.256,-0.299C0.295,-0.288 0.327,-0.278 0.353,-0.268C0.378,-0.257 0.4,-0.242 0.418,-0.222C0.436,-0.201 0.445,-0.175 0.445,-0.142C0.445,-0.097 0.427,-0.061 0.392,-0.034C0.356,-0.007 0.308,0.006 0.249,0.006Z" style="fill:white;fill-rule:nonzero;"/>
                    </g>
                    <g transform="matrix(12,0,0,12,178.608,0)">
                        <path d="M0.321,-0.44C0.321,-0.433 0.318,-0.43 0.311,-0.43L0.203,-0.43C0.2,-0.43 0.199,-0.429 0.199,-0.426L0.199,-0.161C0.199,-0.133 0.205,-0.113 0.218,-0.101C0.231,-0.088 0.25,-0.082 0.277,-0.082L0.306,-0.082C0.313,-0.082 0.316,-0.079 0.316,-0.072L0.316,-0.01C0.316,-0.003 0.313,-0 0.306,-0C0.285,0.001 0.269,0.002 0.26,0.002C0.209,0.002 0.171,-0.007 0.146,-0.026C0.12,-0.044 0.107,-0.078 0.107,-0.127L0.107,-0.426C0.107,-0.429 0.106,-0.43 0.103,-0.43L0.042,-0.43C0.035,-0.43 0.032,-0.433 0.032,-0.44L0.032,-0.499C0.032,-0.506 0.035,-0.509 0.042,-0.509L0.103,-0.509C0.106,-0.509 0.107,-0.51 0.107,-0.513L0.107,-0.631C0.107,-0.638 0.11,-0.641 0.117,-0.641L0.189,-0.641C0.196,-0.641 0.199,-0.638 0.199,-0.631L0.199,-0.513C0.199,-0.51 0.2,-0.509 0.203,-0.509L0.311,-0.509C0.318,-0.509 0.321,-0.506 0.321,-0.499L0.321,-0.44Z" style="fill:white;fill-rule:nonzero;"/>
                    </g>
                    <g transform="matrix(12,0,0,12,185.556,0)">
                        <path d="M0.447,-0.332C0.46,-0.299 0.467,-0.262 0.467,-0.219C0.467,-0.184 0.462,-0.151 0.451,-0.121C0.436,-0.08 0.412,-0.048 0.378,-0.026C0.344,-0.003 0.303,0.008 0.255,0.008C0.207,0.008 0.166,-0.004 0.131,-0.029C0.095,-0.054 0.071,-0.087 0.057,-0.129C0.05,-0.148 0.045,-0.174 0.044,-0.209C0.044,-0.216 0.047,-0.219 0.054,-0.219L0.131,-0.219C0.138,-0.219 0.141,-0.216 0.141,-0.209C0.142,-0.185 0.145,-0.167 0.149,-0.156C0.156,-0.131 0.168,-0.112 0.187,-0.097C0.205,-0.082 0.228,-0.075 0.255,-0.075C0.306,-0.075 0.34,-0.098 0.357,-0.144C0.366,-0.164 0.37,-0.19 0.37,-0.222C0.37,-0.256 0.365,-0.286 0.354,-0.313C0.335,-0.354 0.302,-0.375 0.254,-0.375C0.243,-0.375 0.228,-0.37 0.211,-0.36C0.208,-0.359 0.206,-0.358 0.205,-0.358C0.202,-0.358 0.199,-0.36 0.197,-0.363L0.159,-0.415C0.158,-0.418 0.157,-0.42 0.157,-0.422C0.157,-0.424 0.158,-0.426 0.16,-0.429L0.331,-0.612C0.333,-0.615 0.332,-0.617 0.329,-0.617L0.063,-0.617C0.056,-0.617 0.053,-0.62 0.053,-0.627L0.053,-0.69C0.053,-0.697 0.056,-0.7 0.063,-0.7L0.451,-0.7C0.458,-0.7 0.461,-0.697 0.461,-0.69L0.461,-0.618C0.461,-0.615 0.459,-0.611 0.456,-0.606L0.304,-0.44C0.303,-0.439 0.302,-0.438 0.303,-0.437C0.304,-0.436 0.305,-0.435 0.307,-0.434C0.341,-0.431 0.37,-0.42 0.393,-0.403C0.416,-0.385 0.434,-0.361 0.447,-0.332Z" style="fill:white;fill-rule:nonzero;"/>
                    </g>
                    <g transform="matrix(12,0,0,12,191.904,0)">
                        <path d="M0.282,0.01C0.215,0.01 0.161,-0.009 0.122,-0.048C0.082,-0.086 0.062,-0.137 0.062,-0.202L0.062,-0.498C0.062,-0.563 0.082,-0.614 0.122,-0.652C0.161,-0.69 0.215,-0.709 0.282,-0.709C0.349,-0.709 0.403,-0.69 0.444,-0.652C0.484,-0.614 0.504,-0.563 0.504,-0.498L0.504,-0.202C0.504,-0.137 0.484,-0.086 0.444,-0.048C0.403,-0.009 0.349,0.01 0.282,0.01ZM0.282,-0.073C0.321,-0.073 0.351,-0.084 0.374,-0.107C0.397,-0.129 0.408,-0.159 0.408,-0.196L0.408,-0.502C0.408,-0.539 0.397,-0.569 0.374,-0.592C0.351,-0.614 0.321,-0.625 0.282,-0.625C0.245,-0.625 0.215,-0.614 0.192,-0.592C0.169,-0.569 0.158,-0.539 0.158,-0.502L0.158,-0.196C0.158,-0.159 0.169,-0.129 0.192,-0.107C0.215,-0.084 0.245,-0.073 0.282,-0.073Z" style="fill:white;fill-rule:nonzero;"/>
                    </g>
                    <g transform="matrix(12,0,0,12,201.216,0)">
                        <path d="M0.386,-0.69C0.386,-0.697 0.389,-0.7 0.396,-0.7L0.472,-0.7C0.479,-0.7 0.482,-0.697 0.482,-0.69L0.482,-0.01C0.482,-0.003 0.479,-0 0.472,-0L0.396,-0C0.389,-0 0.386,-0.003 0.386,-0.01L0.386,-0.043C0.386,-0.044 0.386,-0.045 0.385,-0.046C0.384,-0.047 0.382,-0.046 0.381,-0.045C0.366,-0.028 0.349,-0.015 0.329,-0.006C0.309,0.003 0.287,0.008 0.264,0.008C0.216,0.008 0.176,-0.004 0.145,-0.028C0.113,-0.051 0.09,-0.085 0.075,-0.128C0.062,-0.163 0.056,-0.206 0.056,-0.256C0.056,-0.303 0.061,-0.343 0.072,-0.377C0.086,-0.421 0.109,-0.455 0.141,-0.48C0.173,-0.505 0.214,-0.517 0.264,-0.517C0.287,-0.517 0.308,-0.513 0.329,-0.504C0.349,-0.495 0.366,-0.482 0.381,-0.465C0.382,-0.464 0.384,-0.463 0.385,-0.464C0.386,-0.465 0.386,-0.466 0.386,-0.467L0.386,-0.69ZM0.361,-0.129C0.376,-0.157 0.384,-0.199 0.384,-0.255C0.384,-0.311 0.376,-0.354 0.359,-0.383C0.34,-0.417 0.311,-0.434 0.274,-0.434C0.234,-0.434 0.204,-0.418 0.185,-0.386C0.164,-0.353 0.153,-0.309 0.153,-0.254C0.153,-0.203 0.161,-0.161 0.178,-0.13C0.197,-0.093 0.229,-0.075 0.273,-0.075C0.312,-0.075 0.341,-0.093 0.361,-0.129Z" style="fill:white;fill-rule:nonzero;"/>
                    </g>
                    <g transform="matrix(12,0,0,12,207.912,0)">
                        <path d="M0.256,-0.517C0.297,-0.517 0.332,-0.51 0.363,-0.496C0.393,-0.481 0.416,-0.461 0.433,-0.436C0.449,-0.41 0.457,-0.381 0.457,-0.348L0.457,-0.01C0.457,-0.003 0.454,-0 0.447,-0L0.371,-0C0.364,-0 0.361,-0.003 0.361,-0.01L0.361,-0.046C0.361,-0.049 0.359,-0.05 0.356,-0.048C0.339,-0.03 0.318,-0.016 0.293,-0.007C0.268,0.003 0.24,0.008 0.209,0.008C0.16,0.008 0.119,-0.005 0.087,-0.03C0.054,-0.055 0.038,-0.092 0.038,-0.143C0.038,-0.195 0.056,-0.236 0.093,-0.266C0.129,-0.295 0.18,-0.31 0.245,-0.31L0.357,-0.31C0.36,-0.31 0.361,-0.311 0.361,-0.314L0.361,-0.341C0.361,-0.37 0.353,-0.393 0.336,-0.41C0.319,-0.426 0.293,-0.434 0.258,-0.434C0.23,-0.434 0.207,-0.428 0.19,-0.418C0.172,-0.407 0.161,-0.392 0.157,-0.373C0.155,-0.366 0.151,-0.363 0.145,-0.364L0.064,-0.375C0.057,-0.376 0.054,-0.379 0.055,-0.383C0.06,-0.422 0.081,-0.455 0.118,-0.48C0.155,-0.505 0.201,-0.517 0.256,-0.517ZM0.23,-0.073C0.265,-0.073 0.296,-0.082 0.322,-0.101C0.348,-0.12 0.361,-0.143 0.361,-0.172L0.361,-0.231C0.361,-0.234 0.36,-0.235 0.357,-0.235L0.263,-0.235C0.224,-0.235 0.192,-0.227 0.169,-0.212C0.146,-0.197 0.134,-0.175 0.134,-0.148C0.134,-0.123 0.143,-0.105 0.161,-0.092C0.178,-0.079 0.201,-0.073 0.23,-0.073Z" style="fill:white;fill-rule:nonzero;"/>
                    </g>
                    <g transform="matrix(12,0,0,12,214.068,0)">
                        <path d="M0.055,0.199C0.05,0.199 0.048,0.196 0.048,0.189L0.048,0.13C0.048,0.123 0.051,0.12 0.058,0.12L0.06,0.12C0.087,0.119 0.108,0.116 0.123,0.11C0.138,0.104 0.151,0.093 0.161,0.077C0.171,0.06 0.181,0.036 0.19,0.003C0.191,0.002 0.191,0.001 0.191,-0.001C0.19,-0.002 0.19,-0.003 0.19,-0.003L0.023,-0.498L0.022,-0.502C0.022,-0.507 0.025,-0.509 0.031,-0.509L0.112,-0.509C0.118,-0.509 0.122,-0.506 0.124,-0.501L0.237,-0.124C0.238,-0.123 0.239,-0.122 0.24,-0.122C0.241,-0.122 0.242,-0.123 0.243,-0.124L0.355,-0.501C0.357,-0.506 0.361,-0.509 0.367,-0.509L0.446,-0.509C0.453,-0.509 0.456,-0.505 0.454,-0.498L0.272,0.035C0.257,0.081 0.241,0.115 0.226,0.138C0.211,0.16 0.191,0.176 0.166,0.185C0.141,0.194 0.107,0.199 0.062,0.199L0.055,0.199Z" style="fill:white;fill-rule:nonzero;"/>
                    </g>
                    <g transform="matrix(12,0,0,12,219.456,0)">
                        <path d="M0.249,0.006C0.209,0.006 0.174,0 0.144,-0.012C0.113,-0.024 0.09,-0.041 0.073,-0.062C0.056,-0.083 0.048,-0.106 0.048,-0.131L0.048,-0.142C0.048,-0.149 0.051,-0.152 0.058,-0.152L0.13,-0.152C0.137,-0.152 0.14,-0.149 0.14,-0.142L0.14,-0.137C0.14,-0.118 0.15,-0.102 0.171,-0.088C0.191,-0.074 0.217,-0.067 0.248,-0.067C0.278,-0.067 0.302,-0.074 0.321,-0.087C0.34,-0.099 0.349,-0.116 0.349,-0.136C0.349,-0.155 0.34,-0.17 0.323,-0.18C0.306,-0.189 0.278,-0.199 0.239,-0.21C0.201,-0.221 0.169,-0.232 0.144,-0.243C0.118,-0.254 0.096,-0.269 0.079,-0.29C0.061,-0.31 0.052,-0.336 0.052,-0.368C0.052,-0.413 0.07,-0.448 0.105,-0.475C0.139,-0.501 0.186,-0.514 0.244,-0.514C0.283,-0.514 0.317,-0.508 0.347,-0.496C0.376,-0.483 0.399,-0.466 0.415,-0.444C0.431,-0.422 0.439,-0.397 0.439,-0.37L0.439,-0.367C0.439,-0.36 0.436,-0.357 0.429,-0.357L0.359,-0.357C0.352,-0.357 0.349,-0.36 0.349,-0.367L0.349,-0.37C0.349,-0.389 0.339,-0.405 0.321,-0.419C0.302,-0.432 0.276,-0.438 0.243,-0.438C0.214,-0.438 0.19,-0.432 0.172,-0.421C0.153,-0.41 0.144,-0.394 0.144,-0.375C0.144,-0.356 0.153,-0.341 0.171,-0.331C0.188,-0.321 0.217,-0.31 0.256,-0.299C0.295,-0.288 0.327,-0.278 0.353,-0.268C0.378,-0.257 0.4,-0.242 0.418,-0.222C0.436,-0.201 0.445,-0.175 0.445,-0.142C0.445,-0.097 0.427,-0.061 0.392,-0.034C0.356,-0.007 0.308,0.006 0.249,0.006Z" style="fill:white;fill-rule:nonzero;"/>
                    </g>
                </g>
            </g>
        </g>
    </g>
    <defs>
        <linearGradient id="_Linear1" x1="0" y1="0" x2="1" y2="0" gradientUnits="userSpaceOnUse" gradientTransform="matrix(-58.3087,3.58044,-3.58044,-58.3087,205.239,38.6698)"><stop offset="0" style="stop-color:rgb(107,183,247);stop-opacity:1"/><stop offset="1" style="stop-color:rgb(107,139,255);stop-opacity:1"/></linearGradient>
    </defs>
</svg>
