<?xml version="1.0" encoding="UTF-8" standalone="no"?>
<!DOCTYPE svg PUBLIC "-//W3C//DTD SVG 1.1//EN" "http://www.w3.org/Graphics/SVG/1.1/DTD/svg11.dtd">
<svg width="100%" height="100%" viewBox="0 0 400 80" version="1.1" xmlns="http://www.w3.org/2000/svg" xmlns:xlink="http://www.w3.org/1999/xlink" xml:space="preserve" xmlns:serif="http://www.serif.com/" style="fill-rule:evenodd;clip-rule:evenodd;stroke-linejoin:round;stroke-miterlimit:2;">
    <g transform="matrix(0.408163,0,0,0.407143,0,11.5)">
        <path d="M26.224,0.756C23.327,0.756 20.979,3.104 20.979,6C20.979,8.897 18.631,11.245 15.734,11.245C12.838,11.245 10.49,13.593 10.49,16.49C10.49,19.387 8.141,21.735 5.245,21.735C2.348,21.735 0,24.083 0,26.98L0,58.448C0,61.345 2.348,63.693 5.245,63.693C8.141,63.693 10.49,66.041 10.49,68.938C10.49,71.835 12.838,74.183 15.734,74.183C18.631,74.183 20.979,76.531 20.979,79.428C20.979,82.324 23.327,84.672 26.224,84.672L57.693,84.672C60.59,84.672 62.938,82.324 62.938,79.428C62.938,76.531 65.286,74.183 68.182,74.183C71.079,74.183 73.427,71.835 73.427,68.938C73.427,66.041 75.775,63.693 78.672,63.693C81.569,63.693 83.917,61.345 83.917,58.448L83.917,26.98C83.917,24.083 81.569,21.735 78.672,21.735C75.775,21.735 73.427,19.387 73.427,16.49C73.427,13.593 71.079,11.245 68.182,11.245C65.286,11.245 62.938,8.897 62.938,6C62.938,3.104 60.59,0.756 57.693,0.756L26.224,0.756Z" style="fill:rgb(16,16,16);fill-rule:nonzero;"/>
    </g>
    <g transform="matrix(0.408163,0,0,0.407143,0,11.5)">
        <path d="M246.506,0.756C243.609,0.756 241.261,3.104 241.261,6L241.261,131.876C241.261,134.772 243.609,137.12 246.506,137.12L256.995,137.12C259.892,137.12 262.24,134.772 262.24,131.876L262.24,89.917C262.24,87.021 264.588,84.672 267.485,84.672L309.443,84.672C312.34,84.672 314.688,87.021 314.688,89.917C314.688,92.814 317.036,95.162 319.933,95.162C322.83,95.162 325.178,97.51 325.178,100.407C325.178,103.303 327.526,105.652 330.423,105.652C333.319,105.652 335.667,108 335.667,110.896L335.667,131.876C335.667,134.772 338.016,137.12 340.912,137.12L351.402,137.12C354.298,137.12 356.647,134.772 356.647,131.876L356.647,100.407C356.647,97.51 354.298,95.162 351.402,95.162C348.505,95.162 346.157,92.814 346.157,89.917C346.157,87.021 343.809,84.672 340.912,84.672C338.016,84.672 335.667,82.324 335.667,79.428C335.667,76.531 338.016,74.183 340.912,74.183C343.809,74.183 346.157,71.835 346.157,68.938C346.157,66.041 348.505,63.693 351.402,63.693C354.298,63.693 356.647,61.345 356.647,58.448L356.647,26.98C356.647,24.083 354.298,21.735 351.402,21.735C348.505,21.735 346.157,19.387 346.157,16.49C346.157,13.593 343.809,11.245 340.912,11.245C338.016,11.245 335.667,8.897 335.667,6C335.667,3.104 333.319,0.756 330.423,0.756L246.506,0.756ZM335.667,47.959C335.667,50.855 333.319,53.204 330.423,53.204C327.526,53.204 325.178,55.552 325.178,58.448C325.178,61.345 322.83,63.693 319.933,63.693L267.485,63.693C264.588,63.693 262.24,61.345 262.24,58.448L262.24,26.98C262.24,24.083 264.588,21.735 267.485,21.735L319.933,21.735C322.83,21.735 325.178,24.083 325.178,26.98C325.178,29.876 327.526,32.224 330.423,32.224C333.319,32.224 335.667,34.573 335.667,37.469L335.667,47.959Z" style="fill:rgb(16,16,16);"/>
    </g>
    <g transform="matrix(0.408163,0,0,0.407143,0,11.5)">
        <path d="M110.141,0.756C107.244,0.756 104.896,3.104 104.896,6L104.896,110.896C104.896,113.793 107.244,116.141 110.141,116.141C113.038,116.141 115.386,118.489 115.386,121.386C115.386,124.283 117.734,126.631 120.63,126.631C123.527,126.631 125.875,128.979 125.875,131.876C125.875,134.772 128.223,137.12 131.12,137.12L194.058,137.12C196.954,137.12 199.303,134.772 199.303,131.876C199.303,128.979 201.651,126.631 204.547,126.631C207.444,126.631 209.792,124.283 209.792,121.386C209.792,118.489 212.14,116.141 215.037,116.141C217.934,116.141 220.282,113.793 220.282,110.896L220.282,6C220.282,3.104 217.934,0.756 215.037,0.756L204.547,0.756C201.651,0.756 199.303,3.104 199.303,6L199.303,100.407C199.303,103.303 196.954,105.652 194.058,105.652C191.161,105.652 188.813,108 188.813,110.896C188.813,113.793 186.465,116.141 183.568,116.141L141.61,116.141C138.713,116.141 136.365,113.793 136.365,110.896C136.365,108 134.017,105.652 131.12,105.652C128.223,105.652 125.875,103.303 125.875,100.407L125.875,6C125.875,3.104 123.527,0.756 120.63,0.756L110.141,0.756Z" style="fill:rgb(16,16,16);fill-rule:nonzero;"/>
    </g>
    <g transform="matrix(0.408163,0,0,0.407143,0,11.5)">
        <path d="M377.626,137.121L377.626,31.822L409.615,31.822L409.615,45.627C413.805,36.106 422.373,29.537 433.703,29.537C447.317,29.537 454.839,38.582 454.839,55.814L454.839,137.121L421.707,137.121L421.707,61.336C421.707,57.147 419.517,55.433 416.566,55.433C413.424,55.433 410.758,57.528 410.758,62.288L410.758,137.121L377.626,137.121Z" style="fill:rgb(16,16,16);fill-rule:nonzero;"/>
    </g>
    <g transform="matrix(0.408163,0,0,0.407143,0,11.5)">
        <path d="M502.823,139.406C478.26,139.406 462.836,126.267 462.836,101.323L462.836,68.762C462.836,43.057 478.64,29.537 503.109,29.537C527.386,29.537 542.81,42.866 542.81,68.096L542.81,92.469L495.968,92.469L495.968,106.179C495.968,111.225 497.967,114.747 502.823,114.747C507.679,114.747 509.487,111.605 509.487,106.464L509.487,98.943L542.715,98.943L542.715,105.131C542.715,127.124 526.529,139.406 502.823,139.406ZM496.063,71.809L509.487,71.809L509.487,62.098C509.487,56.957 507.488,53.625 502.918,53.625C498.063,53.625 496.063,56.957 496.063,62.098L496.063,71.809Z" style="fill:rgb(16,16,16);fill-rule:nonzero;"/>
    </g>
    <g transform="matrix(0.408163,0,0,0.407143,0,11.5)">
        <path d="M584.13,138.454C568.992,138.454 556.424,131.694 556.424,112.653L556.424,55.148L545.285,55.148L545.285,31.822L556.52,31.822L556.52,12.59L589.556,3.546L589.556,31.822L602.6,31.822L602.6,55.148L589.556,55.148L589.556,107.892C589.556,112.843 592.603,114.271 596.507,114.271C598.792,114.271 600.791,113.795 602.6,113.224L602.6,134.836C598.411,136.835 592.127,138.454 584.13,138.454Z" style="fill:rgb(16,16,16);fill-rule:nonzero;"/>
    </g>
    <g transform="matrix(0.408163,0,0,0.407143,0,11.5)">
        <path d="M620.213,137.121L605.456,31.822L636.779,31.822L641.92,104.465L642.015,104.465L649.537,31.822L682.669,31.822L690.19,104.275L690.285,104.275L695.522,31.822L726.75,31.822L711.993,137.121L673.053,137.121L666.198,71.047L666.008,71.047L659.153,137.121L620.213,137.121Z" style="fill:rgb(16,16,16);fill-rule:nonzero;"/>
    </g>
    <g transform="matrix(0.408163,0,0,0.407143,0,11.5)">
        <path d="M769.974,139.406C745.791,139.406 729.225,126.077 729.225,101.133L729.225,67.62C729.225,42.39 745.791,29.537 769.974,29.537C794.061,29.537 810.722,42.39 810.722,67.62L810.722,101.133C810.722,126.077 794.251,139.406 769.974,139.406ZM763.309,105.417C763.309,111.415 765.404,115.033 769.974,115.033C774.544,115.033 776.638,111.415 776.638,105.417L776.638,63.431C776.638,57.623 774.544,53.91 769.974,53.91C765.404,53.91 763.309,57.433 763.309,63.431L763.309,105.417Z" style="fill:rgb(16,16,16);fill-rule:nonzero;"/>
    </g>
    <g transform="matrix(0.408163,0,0,0.407143,0,11.5)">
        <path d="M819.005,137.121L819.005,31.822L850.614,31.822L850.614,48.674C854.803,36.773 862.991,30.013 872.987,30.013C884.317,30.013 890.029,37.535 890.029,53.815L890.029,89.994L859.754,89.994L859.754,63.812C859.754,60.765 858.421,59.432 856.231,59.432C853.851,59.432 852.137,61.146 852.137,64.764L852.137,137.121L819.005,137.121Z" style="fill:rgb(16,16,16);fill-rule:nonzero;"/>
    </g>
    <g transform="matrix(0.408163,0,0,0.407143,0,11.5)">
        <path d="M944.107,137.121L930.207,87.233L930.207,137.121L897.075,137.121L897.075,0.594L930.207,0.594L930.207,74.475L944.012,31.822L979.524,31.822L960.863,79.902L980,137.121L944.107,137.121Z" style="fill:rgb(16,16,16);fill-rule:nonzero;"/>
    </g>
</svg>
