<svg width="256" height="256" viewBox="0 0 256 256" fill="none" xmlns="http://www.w3.org/2000/svg">
<path d="M240 64C231.164 64 224 56.8363 224 48C224 39.1637 216.836 32 208 32C199.164 32 192 24.8363 192 16C192 7.16375 184.836 0 176 0H80C71.1637 0 64 7.16375 64 16C64 24.8363 56.8363 32 48 32C39.1637 32 32 39.1637 32 48C32 56.8363 24.8363 64 16 64C7.16375 64 0 71.1637 0 80V176C0 184.836 7.16375 192 16 192C24.8363 192 32 199.164 32 208C32 216.836 39.1637 224 48 224C56.8363 224 64 231.164 64 240C64 248.836 71.1637 256 80 256H176C184.836 256 192 248.836 192 240C192 231.164 199.164 224 208 224C216.836 224 224 216.836 224 208C224 199.164 231.164 192 240 192C248.836 192 256 184.836 256 176V80C256 71.1637 248.836 64 240 64Z" fill="#101010"/>
</svg>
