<svg width="64" height="64" viewBox="0 0 64 64" fill="none" xmlns="http://www.w3.org/2000/svg">
<path d="M21.3301 19.81H24.3901V22.85H21.3301V19.81Z" fill="#101010"/>
<path d="M18.2901 56.4V25.91H21.3301V22.85H18.2901V19.8H6.09009V62.46H18.2901V59.42H24.4001V56.4H18.2901ZM15.2301 32H12.2001V25.92H15.2401L15.2301 32Z" fill="#101010"/>
<path d="M24.3901 16.77H27.4301V19.81H24.3901V16.77Z" fill="#101010"/>
<path d="M27.4302 4.56999H30.4702V16.77H27.4302V4.56999Z" fill="#101010"/>
<path d="M30.47 25.91H33.53V28.95H30.47V25.91Z" fill="#101010"/>
<path d="M30.47 1.53H36.57V4.57H30.47V1.53Z" fill="#101010"/>
<path d="M33.53 22.85H36.57V25.91H33.53V22.85Z" fill="#101010"/>
<path d="M33.53 35.05H36.57V41.15H33.53V35.05Z" fill="#101010"/>
<path d="M33.53 44.19H36.57V50.29H33.53V44.19Z" fill="#101010"/>
<path d="M36.5701 4.56999H39.6101V7.60999H36.5701V4.56999Z" fill="#101010"/>
<path d="M36.5701 19.81H39.6101V22.85H36.5701V19.81Z" fill="#101010"/>
<path d="M39.6101 7.61H42.6701V19.81H39.6101V7.61Z" fill="#101010"/>
<path d="M39.6101 22.85H54.8501V25.91H39.6101V22.85Z" fill="#101010"/>
<path d="M42.6701 56.39H39.6101V59.43H24.3901V62.47H48.7701V59.43H42.6701V56.39Z" fill="#101010"/>
<path d="M36.5701 50.29V56.39H39.6101V53.33H51.8101V56.39H54.8501V50.29H36.5701Z" fill="#101010"/>
<path d="M48.77 56.39H51.81V59.43H48.77V56.39Z" fill="#101010"/>
<path d="M54.8501 31.99H39.6101V25.91H36.5701V35.05H54.8501V41.15H36.5701V44.19H54.8501V50.29H57.9101V25.91H54.8501V31.99Z" fill="#101010"/>
</svg>
