<svg xmlns="http://www.w3.org/2000/svg" viewBox="0 0 1726.75 208.72"><path d="M524.49 152.85v-92.3h18.91v10.86h2.99c1.75-3.24 4.55-6.11 8.43-8.61 3.87-2.5 9.11-3.74 15.73-3.74s12.38 1.4 16.57 4.21c4.18 2.81 7.33 6.4 9.45 10.76h2.99c2.12-4.24 5.21-7.8 9.27-10.67 4.05-2.87 9.83-4.31 17.32-4.31 5.99 0 11.29 1.22 15.91 3.65 4.62 2.43 8.3 6.06 11.05 10.86 2.74 4.81 4.12 10.76 4.12 17.88v61.41h-19.28V92.94c0-5.62-1.53-9.95-4.59-13.01-3.06-3.06-7.39-4.59-13.01-4.59-5.99 0-10.8 1.94-14.42 5.8-3.62 3.87-5.43 9.42-5.43 16.66v55.04h-19.28V92.93c0-5.62-1.53-9.95-4.59-13.01-3.06-3.06-7.39-4.59-13.01-4.59-5.99 0-10.8 1.94-14.42 5.8-3.62 3.87-5.43 9.42-5.43 16.66v55.04h-19.28zM707 155.47c-6.62 0-12.51-1.12-17.69-3.37-5.18-2.25-9.3-5.55-12.36-9.92-3.06-4.37-4.59-9.67-4.59-15.91s1.53-11.64 4.59-15.82c3.06-4.18 7.24-7.33 12.54-9.45 5.3-2.12 11.33-3.18 18.07-3.18h28.08v-5.99c0-5.36-1.62-9.67-4.87-12.92-3.25-3.24-8.24-4.87-14.98-4.87s-11.67 1.56-15.16 4.68c-3.5 3.12-5.8 7.18-6.93 12.17l-17.97-5.8c1.5-4.99 3.9-9.52 7.21-13.57 3.31-4.06 7.7-7.33 13.2-9.83 5.49-2.5 12.1-3.74 19.84-3.74 11.98 0 21.4 3.06 28.27 9.17 6.86 6.12 10.3 14.79 10.3 26.02v38c0 3.74 1.75 5.62 5.24 5.62h1.37v16.1h-7.92c-4.37 0-7.93-1.12-10.67-3.37-2.75-2.25-4.12-5.3-4.12-9.17v-.56h-2.81c-1 1.87-2.5 4.06-4.49 6.55-2 2.5-4.93 4.65-8.8 6.46-3.87 1.81-8.99 2.71-15.35 2.71zm2.81-15.91c7.74 0 13.98-2.21 18.72-6.65 4.74-4.43 7.11-10.51 7.11-18.25v-1.87h-26.96c-5.12 0-9.24 1.09-12.36 3.28-3.12 2.18-4.68 5.4-4.68 9.64s1.62 7.61 4.87 10.11c3.24 2.5 7.68 3.74 13.29 3.74zm110.29 15.91c-8.86 0-16.88-1.87-24.06-5.62-7.18-3.74-12.86-9.17-17.04-16.29-4.18-7.11-6.27-15.66-6.27-25.65v-2.43c0-9.98 2.09-18.5 6.27-25.55 4.18-7.05 9.86-12.48 17.04-16.29 7.18-3.81 15.19-5.71 24.06-5.71s16.41 1.62 22.65 4.87c6.24 3.25 11.26 7.55 15.07 12.92 3.81 5.37 6.27 11.3 7.39 17.79l-18.72 3.93c-.63-4.12-1.94-7.86-3.93-11.23-2-3.37-4.81-6.05-8.43-8.05-3.62-2-8.18-3-13.67-3s-10.2 1.22-14.51 3.65c-4.31 2.43-7.71 5.93-10.2 10.48-2.5 4.56-3.74 10.08-3.74 16.57v1.68c0 6.49 1.25 12.05 3.74 16.66 2.5 4.62 5.9 8.11 10.2 10.48 4.31 2.37 9.14 3.56 14.51 3.56 8.11 0 14.29-2.09 18.53-6.27 4.24-4.18 6.93-9.52 8.05-16.01l18.72 4.31a49.969 49.969 0 01-7.96 17.6c-3.81 5.37-8.83 9.64-15.07 12.82-6.24 3.18-13.79 4.77-22.65 4.77zm63.67-2.62v-92.3h18.91v10.86h2.99c1.5-3.87 3.9-6.71 7.21-8.52 3.31-1.81 7.39-2.71 12.26-2.71h11.05v17.41H924.4c-6.24 0-11.36 1.72-15.35 5.15-4 3.43-5.99 8.71-5.99 15.82v54.29h-19.28zm114.55 2.62c-9.24 0-17.44-1.9-24.62-5.71s-12.82-9.27-16.94-16.38c-4.12-7.11-6.18-15.54-6.18-25.27v-2.81c0-9.73 2.06-18.13 6.18-25.18 4.12-7.05 9.76-12.51 16.94-16.38 7.18-3.87 15.38-5.8 24.62-5.8s17.47 1.94 24.71 5.8c7.24 3.87 12.92 9.33 17.04 16.38 4.12 7.05 6.18 15.45 6.18 25.18v2.81c0 9.73-2.06 18.16-6.18 25.27-4.12 7.12-9.8 12.58-17.04 16.38-7.24 3.8-15.48 5.71-24.71 5.71zm0-17.22c8.49 0 15.38-2.72 20.69-8.14 5.3-5.43 7.96-12.95 7.96-22.56v-1.68c0-9.61-2.62-17.13-7.86-22.56s-12.17-8.14-20.78-8.14-15.2 2.71-20.5 8.14c-5.31 5.43-7.96 12.95-7.96 22.56v1.68c0 9.61 2.65 17.13 7.96 22.56 5.3 5.43 12.14 8.14 20.5 8.14zm111.53 17.22c-8.86 0-16.88-1.87-24.06-5.62-7.18-3.74-12.86-9.17-17.04-16.29-4.18-7.11-6.27-15.66-6.27-25.65v-2.43c0-9.98 2.09-18.5 6.27-25.55 4.18-7.05 9.86-12.48 17.04-16.29 7.18-3.81 15.19-5.71 24.06-5.71s16.41 1.62 22.65 4.87c6.24 3.25 11.26 7.55 15.07 12.92 3.81 5.37 6.27 11.3 7.39 17.79l-18.72 3.93c-.63-4.12-1.94-7.86-3.93-11.23-2-3.37-4.81-6.05-8.43-8.05-3.62-2-8.18-3-13.67-3s-10.2 1.22-14.51 3.65c-4.31 2.43-7.71 5.93-10.2 10.48-2.5 4.56-3.74 10.08-3.74 16.57v1.68c0 6.49 1.25 12.05 3.74 16.66 2.5 4.62 5.9 8.11 10.2 10.48 4.31 2.37 9.14 3.56 14.51 3.56 8.11 0 14.29-2.09 18.53-6.27 4.24-4.18 6.93-9.52 8.05-16.01l18.72 4.31a49.969 49.969 0 01-7.96 17.6c-3.81 5.37-8.83 9.64-15.07 12.82-6.24 3.18-13.79 4.77-22.65 4.77zm109.35 0c-9.24 0-17.44-1.9-24.62-5.71s-12.82-9.27-16.94-16.38c-4.12-7.11-6.18-15.54-6.18-25.27v-2.81c0-9.73 2.06-18.13 6.18-25.18 4.12-7.05 9.76-12.51 16.94-16.38 7.18-3.87 15.38-5.8 24.62-5.8s17.47 1.94 24.71 5.8c7.24 3.87 12.92 9.33 17.04 16.38 4.12 7.05 6.18 15.45 6.18 25.18v2.81c0 9.73-2.06 18.16-6.18 25.27-4.12 7.12-9.8 12.58-17.04 16.38-7.24 3.8-15.48 5.71-24.71 5.71zm0-17.22c8.49 0 15.38-2.72 20.69-8.14 5.3-5.43 7.96-12.95 7.96-22.56v-1.68c0-9.61-2.62-17.13-7.86-22.56s-12.17-8.14-20.78-8.14-15.2 2.71-20.5 8.14c-5.31 5.43-7.96 12.95-7.96 22.56v1.68c0 9.61 2.65 17.13 7.96 22.56 5.3 5.43 12.14 8.14 20.5 8.14zm103.67 17.22c-11.73 0-21.47-2.62-29.21-7.86-7.74-5.24-12.48-13.17-14.23-23.78l17.97-4.31c1 5.12 2.68 9.17 5.05 12.17 2.37 3 5.34 5.12 8.89 6.37 3.56 1.25 7.39 1.87 11.51 1.87 6.11 0 10.83-1.19 14.13-3.56 3.31-2.37 4.96-5.43 4.96-9.17s-1.56-6.49-4.68-8.24c-3.12-1.75-7.74-3.18-13.85-4.31l-6.37-1.12c-6.24-1.12-11.92-2.74-17.04-4.87-5.12-2.12-9.17-5.05-12.17-8.8-3-3.74-4.49-8.55-4.49-14.41 0-8.74 3.24-15.51 9.74-20.31 6.49-4.8 15.1-7.21 25.84-7.21s18.88 2.34 25.55 7.02c6.68 4.68 11.01 11.02 13.01 19l-17.97 5.06c-1.12-5.62-3.5-9.58-7.11-11.89-3.62-2.31-8.11-3.46-13.48-3.46s-9.36.97-12.36 2.9c-2.99 1.94-4.49 4.65-4.49 8.14 0 3.74 1.47 6.49 4.4 8.24 2.93 1.75 6.89 3.06 11.89 3.93l6.55 1.12c6.61 1.12 12.67 2.69 18.16 4.68 5.49 2 9.83 4.87 13.01 8.61 3.18 3.74 4.77 8.74 4.77 14.98 0 9.24-3.43 16.41-10.3 21.53-6.87 5.12-16.1 7.68-27.71 7.68zm52.64-2.62v-92.3h18.91v10.86h2.99c1.75-3.24 4.55-6.11 8.43-8.61 3.87-2.5 9.11-3.74 15.73-3.74s12.38 1.4 16.57 4.21c4.18 2.81 7.33 6.4 9.45 10.76h2.99c2.12-4.24 5.21-7.8 9.27-10.67 4.05-2.87 9.83-4.31 17.32-4.31 5.99 0 11.29 1.22 15.91 3.65 4.62 2.43 8.3 6.06 11.05 10.86 2.74 4.81 4.12 10.76 4.12 17.88v61.41h-19.28V92.94c0-5.62-1.53-9.95-4.59-13.01-3.06-3.06-7.39-4.59-13.01-4.59-5.99 0-10.8 1.94-14.42 5.8-3.62 3.87-5.43 9.42-5.43 16.66v55.04h-19.28V92.93c0-5.62-1.53-9.95-4.59-13.01-3.06-3.06-7.39-4.59-13.01-4.59-5.99 0-10.8 1.94-14.42 5.8-3.62 3.87-5.43 9.42-5.43 16.66v55.04h-19.28zm196.72 2.62c-9.24 0-17.44-1.9-24.62-5.71s-12.82-9.27-16.94-16.38c-4.12-7.11-6.18-15.54-6.18-25.27v-2.81c0-9.73 2.06-18.13 6.18-25.18 4.12-7.05 9.76-12.51 16.94-16.38 7.18-3.87 15.38-5.8 24.62-5.8s17.47 1.94 24.71 5.8c7.24 3.87 12.92 9.33 17.04 16.38 4.12 7.05 6.18 15.45 6.18 25.18v2.81c0 9.73-2.06 18.16-6.18 25.27-4.12 7.12-9.8 12.58-17.04 16.38-7.24 3.8-15.48 5.71-24.71 5.71zm0-17.22c8.49 0 15.38-2.72 20.69-8.14 5.3-5.43 7.96-12.95 7.96-22.56v-1.68c0-9.61-2.62-17.13-7.86-22.56s-12.17-8.14-20.78-8.14-15.2 2.71-20.5 8.14c-5.31 5.43-7.96 12.95-7.96 22.56v1.68c0 9.61 2.65 17.13 7.96 22.56 5.3 5.43 12.14 8.14 20.5 8.14zm103.68 17.22c-11.73 0-21.47-2.62-29.21-7.86-7.74-5.24-12.48-13.17-14.23-23.78l17.97-4.31c1 5.12 2.68 9.17 5.05 12.17 2.37 3 5.34 5.12 8.89 6.37 3.56 1.25 7.39 1.87 11.51 1.87 6.11 0 10.83-1.19 14.13-3.56 3.31-2.37 4.96-5.43 4.96-9.17s-1.56-6.49-4.68-8.24c-3.12-1.75-7.74-3.18-13.85-4.31l-6.37-1.12c-6.24-1.12-11.92-2.74-17.04-4.87-5.12-2.12-9.17-5.05-12.17-8.8-3-3.74-4.49-8.55-4.49-14.41 0-8.74 3.24-15.51 9.74-20.31 6.49-4.8 15.1-7.21 25.84-7.21s18.88 2.34 25.55 7.02c6.68 4.68 11.01 11.02 13.01 19l-17.97 5.06c-1.12-5.62-3.5-9.58-7.11-11.89-3.62-2.31-8.11-3.46-13.48-3.46s-9.36.97-12.36 2.9c-2.99 1.94-4.49 4.65-4.49 8.14 0 3.74 1.47 6.49 4.4 8.24 2.93 1.75 6.89 3.06 11.89 3.93l6.55 1.12c6.61 1.12 12.67 2.69 18.16 4.68 5.49 2 9.83 4.87 13.01 8.61 3.18 3.74 4.77 8.74 4.77 14.98 0 9.24-3.43 16.41-10.3 21.53-6.87 5.12-16.1 7.68-27.71 7.68zM219.96 106.7c.05.78-.71 2.05-1.27 2.51-.15.14-.97.95-1.16 1.13-15.93 15.38-32.7 29.92-50.42 43.21-19.62 14.35-48.56 34.61-73.49 34.82-18.92-.25-37.59-7.69-51.51-20.49-35.8-32.22-35.81-90.15-.02-122.39 13.92-12.81 32.59-20.26 51.53-20.51 24.92.2 53.91 20.48 73.52 34.84 17.72 13.29 34.47 27.85 50.4 43.24l.77.75.39.38.1.09s.05.02.36.39c.47.56.77 1.38.82 2.02zm-6 0c-.08.52.09 1.21.44 1.65.25.3.23.26.17.2l-.09-.09-.37-.37c-3.72-3.63-7.7-7.43-11.52-10.94-20.81-19-42.59-37.3-66.63-52.06-13.14-7.67-26.96-15.19-42.31-15.7-12.48-.07-24.92 2.96-36.01 8.71-55.33 29.25-55.35 107.95-.02 137.24 11.09 5.76 23.55 8.79 36.03 8.72 15.35-.51 29.19-8.04 42.33-15.71 24.04-14.76 45.82-33.07 66.61-52.09 3.82-3.51 7.8-7.31 11.51-10.95l.37-.37.09-.09c.06-.05.08-.1-.17.2-.34.44-.52 1.13-.44 1.65z" fill="#F8F8F8"></path><path d="M219.71 106.7c.04.94-.79 2.01-.58 1.7l-.07.09c-.2.29-.71.97-.93 1.28-11.02 14.87-22.82 29.28-35.57 42.71-12.48 12.81-35.06 35.71-53.75 35.75-12.45-.2-24.23-6.34-32.71-15.23-31.32-32.81-31.33-99.8-.03-132.63 8.49-8.9 20.28-15.05 32.74-15.25 18.72.05 41.29 22.95 53.78 35.78 12.74 13.44 24.54 27.86 35.54 42.73.64.89 1.53 1.87 1.58 3.07zm-5.5 0c-.11.41.2 1.22.33 1.34l-.06-.09c-.13-.16-.63-.88-.78-1.07-5.15-7-10.8-14.31-16.3-21.02-14.98-18-30.54-36.22-49.96-49.51-5.71-3.61-11.84-7.01-18.6-7.1-6.82-.01-13.56 1.75-19.57 5.07-47.77 27.52-47.78 117.27-.02 144.81 6.02 3.32 12.76 5.09 19.59 5.08 6.77-.09 12.91-3.5 18.62-7.11 19.42-13.29 34.98-31.52 49.95-49.54 5.82-7.12 11.78-14.82 17.19-22.28.42-.59-.48.5-.39 1.43z" fill="#F8F8F8"></path><path d="M219.71 106.7c.04.52-.34 1.39-.26 1.17-.06.13-.2.47-.26.6-.19.41-.71 1.63-.91 2.05-7.87 17.21-34.37 74.83-52.83 77.66-8.41.74-15.55-5.69-19.86-12.13-12.66-19.64-15.19-46.48-15.48-69.36.27-22.9 2.77-49.72 15.44-69.39 4.31-6.46 11.48-12.9 19.9-12.15 18.49 2.83 44.96 60.45 52.82 77.7.17.42.74 1.64.91 2.05.18.47.41.7.53 1.78zm-5.5 0c-.09.39.22 1.11.08.75-.08-.18-.35-.81-.44-1.01-9.45-20.99-19.45-42.08-32.32-61.19-3.74-5.13-11.13-15.95-17.77-15.95-6.52.22-11.51 5.02-15.33 10.06-23.38 33.16-23.42 101.51-.04 134.71 3.6 4.74 8.11 9.16 14.09 9.99 1.2.12 2.37.2 3.5-.23 10.65-4.42 21.92-25.56 27.78-35.74 7.29-13.35 13.94-27.21 20.09-41.13.12-.32.42-.94.55-1.26.1-.27-.25.54-.19 1z" fill="#F8F8F8"></path><path d="M219.71 106.7c-1.94 13.43-4.38 27.58-6.95 40.92-1.99 10.12-4.07 20.25-7.04 30.17-1.08 3.18-1.93 6.62-4.15 9.32-10.98 8.6-13.03-33.62-13.37-39.35-1.03-20.52-1.05-41.05-.72-61.58.4-12.1.49-53.63 9.43-60.44 2.55-1.63 4.69-.14 5.92 2.27 2.79 5.57 4.09 11.67 5.64 17.62 3.23 13.37 5.66 26.85 8 40.37.96 6.04 2.46 14.72 3.25 20.7zm-5.5 0s-.02.14 0 .16c-.03-.24-.11-.78-.15-1.03-.73-5.18-2.12-13.71-2.94-18.95-2.78-16.74-5.35-33.62-9.66-50.02-.79-2.6-1.46-5.33-2.88-7.58-.11-.24-.32-.16.29 0 .12.01.24.02.34 0 .03-.01.02-.02-.03.01-1.74 1.65-2.41 4.31-3.23 6.65-2.83 9.7-4.21 19.83-5.47 29.9-3.2 27.08-3.21 54.64-.03 81.73.79 6.77 1.79 13.51 3.09 20.15 1.26 5.44 2.1 11.36 5.17 16.01.2.25.41.4.5.44a.65.65 0 00-.31 0c-.58.16-.38.22-.26-.02 2.89-5.3 3.83-11.56 5.28-17.42 4.13-19.27 7.52-41.81 10.33-60.02z" fill="#F8F8F8"></path><path d="M213.96 106.7c-.05-.78.71-2.05 1.27-2.51.15-.14.97-.95 1.16-1.13 15.93-15.38 32.7-29.92 50.42-43.21 19.61-14.36 48.56-34.61 73.49-34.82 18.92.25 37.59 7.69 51.5 20.49 35.8 32.22 35.81 90.15.02 122.39-13.92 12.81-32.59 20.26-51.53 20.51-24.92-.2-53.92-20.48-73.52-34.84-17.72-13.29-34.47-27.85-50.4-43.24l-.77-.75-.39-.38-.1-.09s-.05-.02-.36-.39c-.47-.56-.77-1.38-.82-2.02zm6 0c.08-.52-.09-1.21-.44-1.65-.25-.3-.23-.26-.17-.2l.09.09.37.37c3.72 3.63 7.7 7.43 11.52 10.94 20.8 19 42.59 37.3 66.63 52.06 13.14 7.67 26.96 15.19 42.31 15.7 12.48.07 24.92-2.96 36.01-8.71 55.33-29.25 55.35-107.95.02-137.24-11.09-5.76-23.55-8.79-36.03-8.72-15.35.51-29.19 8.04-42.33 15.71-24.04 14.76-45.82 33.07-66.61 52.09-3.82 3.51-7.8 7.31-11.51 10.95l-.37.37-.09.09c-.06.05-.08.1.17-.2.34-.44.52-1.13.44-1.65z" fill="#F8F8F8"></path><path d="M214.21 106.7c-.04-.94.78-2.01.58-1.69l.07-.09c.2-.29.71-.97.93-1.28 11.01-14.87 22.79-29.27 35.52-42.71 12.45-12.8 35.03-35.73 53.7-35.76 12.45.2 24.21 6.36 32.68 15.25 31.24 32.81 31.26 99.76.03 132.58-8.47 8.9-20.25 15.07-32.71 15.27-18.7-.03-41.27-22.96-53.72-35.78-12.73-13.44-24.5-27.86-35.49-42.73-.64-.89-1.53-1.87-1.58-3.06zm5.5 0c.11-.41-.2-1.22-.32-1.34l.06.09c.13.16.63.88.77 1.07 5.15 7 10.78 14.31 16.28 21.01 14.96 18 30.49 36.22 49.89 49.52 5.7 3.61 11.83 7.01 18.58 7.1 6.82.01 13.55-1.76 19.55-5.08 47.67-27.55 47.69-117.22.02-144.78-6.01-3.32-12.75-5.1-19.57-5.09-6.77.09-12.9 3.5-18.61 7.11-19.4 13.3-34.93 31.53-49.88 49.54a493.392 493.392 0 00-17.16 22.27c-.42.59.48-.5.39-1.42z" fill="#F8F8F8"></path><path d="M214.21 106.7c-.04-.51.34-1.38.26-1.17.06-.13.2-.47.26-.6.19-.41.71-1.62.9-2.05 7.79-17.14 34.19-74.89 52.56-77.67 8.41-.72 15.5 5.75 19.78 12.2 12.56 19.68 15.05 46.42 15.33 69.29-.27 22.89-2.73 49.61-15.29 69.32-4.28 6.47-11.39 12.95-19.82 12.22-18.4-2.78-44.77-60.52-52.56-77.72-.17-.42-.73-1.64-.9-2.05-.18-.46-.4-.7-.52-1.77zm5.5 0c.09-.39-.22-1.1-.08-.75.08.18.35.81.44 1.01 9.39 20.98 19.33 42.06 32.12 61.18 3.7 5.11 11.08 15.98 17.69 15.96 6.5-.23 11.45-5.08 15.25-10.11 23.2-33.25 23.24-101.32.04-134.6-3.58-4.75-8.05-9.2-14.02-10.04-1.19-.12-2.36-.21-3.48.22-10.6 4.4-21.82 25.61-27.63 35.76-7.24 13.35-13.86 27.2-19.97 41.12-.12.32-.42.93-.54 1.26-.1.27.25-.54.19-1z" fill="#F8F8F8"></path><path d="M214.22 106.7c2.95-20.33 6.36-40.96 10.98-61.01 1.51-5.94 2.77-12.02 5.49-17.61.38-.71.94-1.59 1.62-2.16.65-.58 1.59-.9 2.45-.78 4.19.79 5.34 6.45 6.39 9.81 2.53 10.09 3.23 20.46 3.85 30.75.84 17.08.93 34.15.81 51.24-.08 10.26-.26 20.5-.78 30.76-.61 10.3-1.31 20.67-3.83 30.76-1.05 3.43-2.22 9.04-6.43 9.85-.87.11-1.83-.19-2.49-.79-.69-.57-1.25-1.47-1.63-2.18-2.72-5.59-3.98-11.68-5.49-17.63-4.62-20.06-8.01-40.66-10.94-61.02zm5.5 0c1.86 12.29 4.06 27.14 6.3 39.97 1.18 6.7 2.39 13.39 3.77 20.02.7 3.31 1.45 6.61 2.33 9.83.79 2.65 1.42 5.45 2.9 7.73.03.04.02.01.03.03 0 0 0 .02 0 0-.13-.1-.28-.13-.44-.18-.15 0-.26-.02-.37.02-.03.01-.03.02.02 0 .09-.05.27-.21.44-.43 2.98-4.71 3.8-10.61 5.02-16.05 1.26-6.63 2.24-13.37 3.02-20.13 3.84-33.77 3.11-68.3-2.98-101.75-.66-3.31-1.36-6.61-2.31-9.77-.8-2.36-1.5-5.15-3.21-6.76.22.07.57-.01.77-.15.02-.02 0 0 0 0 0 .02 0 0-.03.03-1.48 2.29-2.12 5.1-2.91 7.75-.88 3.22-1.62 6.52-2.32 9.83-4.06 19.66-7.06 40.1-10.03 59.99z" fill="#F8F8F8"></path></svg>