<?xml version="1.0" encoding="UTF-8"?>
<svg width="100px" height="100px" viewBox="0 0 100 100" version="1.1" xmlns="http://www.w3.org/2000/svg" xmlns:xlink="http://www.w3.org/1999/xlink">
    <title>Container</title>
    <g id="Page-1" stroke="none" stroke-width="1" fill="none" fill-rule="evenodd">
        <g id="Container" fill-rule="nonzero">
            <rect id="Frame-Background" fill="#20B24C" x="0" y="0" width="100" height="100" rx="15"></rect>
            <path d="M55.2799215,37.7284119 C55.9101065,40.308764 54.7093484,42.6421526 52.7251172,43.7918144 L52.7251172,69.075859 C52.7251172,70.5806387 51.5047724,71.8009834 49.9999927,71.8009834 C48.495213,71.8009834 47.2748682,70.5806387 47.2748682,69.075859 L47.2748682,43.7918144 C45.5801814,42.8465369 44.5497437,41.1092696 44.5497437,39.0994903 C44.5497437,35.7041557 47.6538305,33.0343847 51.1786087,33.7727231 C53.1509176,34.1866014 54.8030247,35.7714319 55.2799215,37.7284119 Z" id="Vector" fill="#FFFFFF"></path>
            <path d="M39.1761424,33.2243141 C38.1882847,32.6784376 36.9449476,33.0327039 36.3999227,34.0231163 C35.4887092,35.6590426 35.0118122,37.515534 35.0118122,39.3890571 C35.0118122,41.0096547 35.355093,42.5774537 36.0320309,44.040505 C36.376674,44.7879556 37.1161191,45.2267852 37.8885215,45.2267852 C38.175937,45.2267852 38.4673552,45.1655811 38.7443811,45.0378153 C39.772264,44.5667946 40.2150965,43.2808756 39.7381998,42.327082 C39.3123991,41.4073525 39.0994987,40.4194949 39.0994987,39.3890571 C39.0994987,38.2027763 39.4015617,37.0309723 39.9723901,35.9988314 C40.521673,35.0152317 40.164,33.7701906 39.1761424,33.2243141 Z M61.2581672,33.1578893 C60.2336908,33.63155 59.7866,34.8449118 60.2600903,35.8693883 C60.6875942,36.7916726 60.9004936,37.7795301 60.9004936,38.8099679 C60.9004936,39.9971002 60.5984306,41.1680533 60.0276022,42.2001943 C59.4807038,43.1872003 59.8386319,44.4330928 60.8259785,44.9781177 C61.1400491,45.151078 61.4793258,45.2335981 61.8146864,45.2335981 C62.5332676,45.2335981 63.2317528,44.8529327 63.6047542,44.1801676 C64.5112839,42.5399832 64.9881802,40.683491 64.9881802,38.8099679 C64.9881802,37.1893703 64.6448987,35.6224242 63.9679608,34.1585213 C63.4978768,33.1289352 62.2715728,32.6869537 61.2581672,33.1578893 Z M30.8057531,28.4002477 C29.4057204,27.8311224 27.8225936,28.5120629 27.2579819,29.9039203 C26.0740005,32.8283196 25.473877,35.9221874 25.473877,39.0228682 C25.473877,42.2759858 26.0740005,45.3758157 27.2579819,48.2968086 C27.6863374,49.3613104 28.7074074,50.0000114 29.7855347,50.0000114 C30.1244721,50.0000114 30.4719254,49.9403991 30.8057531,49.8041429 C32.2015277,49.2335699 32.8751441,47.6495915 32.3096808,46.2529652 C31.3899513,43.9791893 30.9241257,41.5776727 30.9241257,39.0995125 C30.9241257,36.6247588 31.3898662,34.2198362 32.3096808,31.946912 C32.8751441,30.5528403 32.2015277,28.9644336 30.8057531,28.4002477 Z M72.7377526,29.9039203 C72.1749292,28.5064424 70.5891646,27.8336772 69.1899836,28.3999922 C67.794209,28.9641781 67.1205894,30.5528403 67.6860527,31.946912 C68.6074853,34.2198362 69.0758667,36.6256104 69.0758667,39.0995125 C69.0758667,41.5742662 68.6101268,43.9800414 67.6903122,46.1763215 C67.1257005,47.649592 67.7984668,49.2335699 69.195093,49.8041429 C69.5272175,49.9403991 69.8763741,50.0000114 70.2170146,50.0000114 C71.2951419,50.0000114 72.3153589,49.3560304 72.7437144,48.2968086 C73.8533509,45.3758157 74.5261154,42.2759858 74.5261154,39.0228682 C74.5261154,35.9221874 73.8533504,32.8283196 72.7377526,29.9039203 Z" id="Vector" fill-opacity="0.300000012" fill="#FFFFFF"></path>
        </g>
    </g>
</svg>