<?xml version="1.0" encoding="UTF-8" standalone="no"?>
<!DOCTYPE svg PUBLIC "-//W3C//DTD SVG 1.1//EN" "http://www.w3.org/Graphics/SVG/1.1/DTD/svg11.dtd">
<svg width="100%" height="100%" viewBox="0 0 340 80" version="1.1" xmlns="http://www.w3.org/2000/svg" xmlns:xlink="http://www.w3.org/1999/xlink" xml:space="preserve" xmlns:serif="http://www.serif.com/" style="fill-rule:evenodd;clip-rule:evenodd;">
    <g id="Group" transform="matrix(1,0,0,1,20,3.5)">
        <g id="Simplified5">
            <g id="Group1" serif:id="Group">
                <g transform="matrix(1,0,0,1,0,67)">
                    <g id="Bring-Your">
                        <g transform="matrix(32,0,0,32,0,0)">
                            <path d="M0.1,-0.038L0.1,-0.655C0.1,-0.666 0.104,-0.675 0.111,-0.682C0.118,-0.689 0.127,-0.693 0.138,-0.693L0.796,-0.693C0.816,-0.693 0.836,-0.691 0.856,-0.686C0.875,-0.681 0.893,-0.674 0.911,-0.665C0.928,-0.655 0.943,-0.643 0.957,-0.63C0.971,-0.616 0.982,-0.6 0.991,-0.582C1.003,-0.558 1.009,-0.533 1.009,-0.508C1.009,-0.483 1.004,-0.458 0.993,-0.434C0.982,-0.41 0.966,-0.39 0.945,-0.373L0.924,-0.358C0.949,-0.34 0.97,-0.317 0.986,-0.289C1.001,-0.261 1.009,-0.231 1.009,-0.199C1.009,-0.171 1.003,-0.145 0.992,-0.121C0.981,-0.097 0.965,-0.076 0.946,-0.058C0.927,-0.04 0.904,-0.026 0.879,-0.016C0.854,-0.005 0.827,-0 0.799,-0L0.138,-0C0.127,-0 0.118,-0.004 0.111,-0.011C0.104,-0.018 0.1,-0.027 0.1,-0.038ZM0.923,-0.152C0.93,-0.166 0.933,-0.181 0.933,-0.198C0.933,-0.215 0.93,-0.23 0.923,-0.245C0.916,-0.26 0.906,-0.273 0.894,-0.284C0.882,-0.295 0.868,-0.304 0.852,-0.311C0.836,-0.318 0.819,-0.321 0.801,-0.321L0.176,-0.321L0.176,-0.076L0.801,-0.076C0.826,-0.076 0.85,-0.083 0.874,-0.097C0.897,-0.111 0.913,-0.129 0.923,-0.152ZM0.176,-0.398L0.8,-0.398C0.815,-0.398 0.831,-0.401 0.847,-0.406C0.863,-0.411 0.877,-0.418 0.89,-0.428C0.903,-0.437 0.913,-0.449 0.921,-0.462C0.929,-0.475 0.933,-0.49 0.933,-0.507C0.933,-0.524 0.929,-0.54 0.921,-0.554C0.913,-0.567 0.903,-0.579 0.89,-0.588C0.877,-0.597 0.862,-0.604 0.846,-0.61C0.829,-0.615 0.813,-0.617 0.796,-0.617L0.176,-0.617L0.176,-0.398Z" style="fill-rule:nonzero;"/>
                        </g>
                        <g transform="matrix(32,0,0,32,34.9227,0)">
                            <path d="M0.1,-0.408C0.1,-0.448 0.108,-0.485 0.123,-0.52C0.137,-0.554 0.158,-0.584 0.183,-0.609C0.209,-0.635 0.239,-0.656 0.274,-0.671C0.308,-0.686 0.345,-0.693 0.384,-0.693L0.849,-0.693C0.86,-0.693 0.869,-0.689 0.876,-0.682C0.883,-0.675 0.887,-0.666 0.887,-0.655C0.887,-0.644 0.883,-0.635 0.876,-0.628C0.869,-0.621 0.859,-0.617 0.848,-0.617L0.384,-0.617C0.355,-0.617 0.329,-0.612 0.304,-0.601C0.279,-0.59 0.256,-0.574 0.237,-0.555C0.218,-0.536 0.203,-0.515 0.192,-0.49C0.181,-0.464 0.176,-0.437 0.176,-0.408L0.176,-0.038C0.176,-0.027 0.172,-0.018 0.165,-0.011C0.158,-0.004 0.149,-0 0.138,-0C0.127,-0 0.118,-0.004 0.111,-0.011C0.104,-0.018 0.1,-0.027 0.1,-0.038L0.1,-0.408Z" style="fill-rule:nonzero;"/>
                        </g>
                        <g transform="matrix(32,0,0,32,63.8293,0)">
                            <path d="M0.115,-0.655C0.115,-0.666 0.119,-0.675 0.126,-0.682C0.133,-0.689 0.142,-0.693 0.153,-0.693C0.164,-0.693 0.173,-0.689 0.18,-0.682C0.187,-0.675 0.191,-0.666 0.191,-0.655L0.191,-0.038C0.191,-0.027 0.187,-0.018 0.18,-0.011C0.173,-0.004 0.164,-0 0.153,-0C0.142,-0 0.133,-0.004 0.126,-0.011C0.119,-0.018 0.115,-0.027 0.115,-0.038L0.115,-0.655Z" style="fill-rule:nonzero;"/>
                        </g>
                        <g transform="matrix(32,0,0,32,73.76,0)">
                            <path d="M0.982,-0.038C0.982,-0.027 0.978,-0.018 0.971,-0.011C0.964,-0.004 0.955,-0 0.944,-0C0.933,-0 0.924,-0.004 0.917,-0.011C0.91,-0.018 0.906,-0.027 0.906,-0.038L0.906,-0.408C0.906,-0.436 0.901,-0.463 0.89,-0.488C0.878,-0.513 0.864,-0.536 0.845,-0.555C0.826,-0.574 0.805,-0.589 0.78,-0.6C0.755,-0.611 0.728,-0.617 0.7,-0.617L0.176,-0.617L0.176,-0.038C0.176,-0.027 0.172,-0.018 0.165,-0.011C0.158,-0.004 0.149,-0 0.138,-0C0.127,-0 0.118,-0.004 0.111,-0.011C0.104,-0.018 0.1,-0.027 0.1,-0.038L0.1,-0.655C0.1,-0.666 0.104,-0.675 0.111,-0.682C0.118,-0.689 0.127,-0.693 0.138,-0.693L0.698,-0.693C0.737,-0.693 0.773,-0.686 0.808,-0.671C0.843,-0.656 0.873,-0.635 0.899,-0.61C0.924,-0.584 0.945,-0.554 0.96,-0.519C0.974,-0.484 0.982,-0.447 0.982,-0.408L0.982,-0.038Z" style="fill-rule:nonzero;"/>
                        </g>
                        <g transform="matrix(32,0,0,32,107.755,0)">
                            <path d="M0.434,-0.335C0.434,-0.346 0.438,-0.355 0.445,-0.362C0.452,-0.369 0.461,-0.373 0.472,-0.373L0.931,-0.373C0.942,-0.373 0.951,-0.369 0.958,-0.362C0.965,-0.355 0.969,-0.346 0.969,-0.335L0.969,-0.038C0.969,-0.027 0.965,-0.018 0.958,-0.011C0.951,-0.004 0.942,-0 0.931,-0L0.385,-0C0.346,-0 0.309,-0.008 0.274,-0.023C0.239,-0.038 0.209,-0.058 0.184,-0.083C0.158,-0.109 0.137,-0.139 0.123,-0.174C0.108,-0.208 0.1,-0.245 0.1,-0.284L0.1,-0.409C0.1,-0.448 0.108,-0.484 0.123,-0.519C0.137,-0.554 0.158,-0.584 0.184,-0.61C0.209,-0.635 0.239,-0.656 0.274,-0.671C0.309,-0.686 0.346,-0.693 0.385,-0.693L0.931,-0.693C0.942,-0.693 0.951,-0.689 0.958,-0.682C0.965,-0.675 0.969,-0.666 0.969,-0.655C0.969,-0.644 0.965,-0.635 0.958,-0.628C0.951,-0.621 0.942,-0.617 0.931,-0.617L0.385,-0.617C0.356,-0.617 0.329,-0.612 0.304,-0.601C0.279,-0.59 0.257,-0.575 0.238,-0.556C0.219,-0.537 0.204,-0.516 0.193,-0.491C0.182,-0.466 0.176,-0.439 0.176,-0.41L0.176,-0.284C0.176,-0.256 0.182,-0.229 0.193,-0.204C0.204,-0.179 0.218,-0.157 0.237,-0.138C0.256,-0.119 0.278,-0.103 0.303,-0.093C0.328,-0.082 0.354,-0.076 0.383,-0.076L0.893,-0.076L0.893,-0.297L0.472,-0.297C0.461,-0.297 0.452,-0.301 0.445,-0.308C0.438,-0.315 0.434,-0.324 0.434,-0.335Z" style="fill-rule:nonzero;"/>
                        </g>
                        <g transform="matrix(32,0,0,32,154.592,0)">
                            <path d="M0.1,-0.655C0.1,-0.666 0.104,-0.675 0.111,-0.682C0.118,-0.689 0.127,-0.693 0.138,-0.693C0.149,-0.693 0.158,-0.689 0.165,-0.682C0.172,-0.675 0.176,-0.666 0.176,-0.655L0.176,-0.504C0.176,-0.476 0.182,-0.449 0.193,-0.424C0.204,-0.399 0.218,-0.377 0.237,-0.358C0.256,-0.339 0.278,-0.324 0.303,-0.313C0.328,-0.302 0.354,-0.296 0.383,-0.296L0.668,-0.296C0.696,-0.296 0.723,-0.302 0.748,-0.313C0.773,-0.324 0.796,-0.338 0.815,-0.357C0.833,-0.376 0.849,-0.397 0.86,-0.423C0.87,-0.448 0.876,-0.474 0.876,-0.502L0.876,-0.655C0.876,-0.666 0.88,-0.675 0.887,-0.682C0.894,-0.689 0.903,-0.693 0.914,-0.693C0.925,-0.693 0.934,-0.689 0.941,-0.682C0.948,-0.675 0.952,-0.666 0.952,-0.655L0.952,-0.504C0.952,-0.465 0.945,-0.428 0.93,-0.394C0.915,-0.359 0.894,-0.329 0.868,-0.303C0.843,-0.278 0.813,-0.258 0.779,-0.243C0.744,-0.228 0.707,-0.22 0.668,-0.22L0.567,-0.22L0.567,-0.038C0.567,-0.027 0.563,-0.018 0.556,-0.011C0.549,-0.004 0.54,-0 0.529,-0C0.518,-0 0.509,-0.004 0.502,-0.011C0.495,-0.018 0.491,-0.027 0.491,-0.038L0.491,-0.22L0.385,-0.22C0.345,-0.22 0.308,-0.228 0.274,-0.243C0.239,-0.258 0.209,-0.278 0.184,-0.303C0.158,-0.329 0.137,-0.359 0.123,-0.394C0.108,-0.428 0.1,-0.465 0.1,-0.504L0.1,-0.655Z" style="fill-rule:nonzero;"/>
                        </g>
                        <g transform="matrix(32,0,0,32,187.563,0)">
                            <path d="M0.384,-0C0.345,-0 0.308,-0.008 0.274,-0.023C0.239,-0.038 0.209,-0.058 0.184,-0.084C0.158,-0.109 0.137,-0.139 0.123,-0.174C0.108,-0.208 0.1,-0.245 0.1,-0.284L0.1,-0.409C0.1,-0.448 0.108,-0.484 0.123,-0.519C0.137,-0.554 0.158,-0.584 0.184,-0.61C0.209,-0.635 0.239,-0.656 0.274,-0.671C0.308,-0.686 0.345,-0.693 0.384,-0.693L0.878,-0.693C0.917,-0.693 0.954,-0.686 0.989,-0.671C1.024,-0.656 1.054,-0.635 1.08,-0.61C1.105,-0.584 1.126,-0.554 1.141,-0.519C1.156,-0.484 1.163,-0.448 1.163,-0.409L1.163,-0.284C1.163,-0.245 1.156,-0.208 1.141,-0.174C1.126,-0.139 1.105,-0.109 1.08,-0.084C1.054,-0.058 1.024,-0.038 0.989,-0.023C0.954,-0.008 0.917,-0 0.878,-0L0.384,-0ZM0.176,-0.284C0.176,-0.255 0.182,-0.229 0.193,-0.204C0.204,-0.179 0.219,-0.157 0.238,-0.138C0.257,-0.119 0.279,-0.103 0.304,-0.093C0.329,-0.082 0.355,-0.076 0.384,-0.076L0.878,-0.076C0.907,-0.076 0.934,-0.082 0.959,-0.093C0.984,-0.103 1.006,-0.119 1.026,-0.138C1.045,-0.157 1.06,-0.179 1.071,-0.204C1.081,-0.229 1.087,-0.255 1.087,-0.284L1.087,-0.409C1.087,-0.438 1.081,-0.464 1.071,-0.49C1.06,-0.515 1.045,-0.537 1.026,-0.556C1.006,-0.575 0.984,-0.59 0.959,-0.601C0.934,-0.612 0.907,-0.617 0.878,-0.617L0.384,-0.617C0.355,-0.617 0.329,-0.612 0.304,-0.601C0.279,-0.59 0.257,-0.575 0.238,-0.556C0.219,-0.537 0.204,-0.515 0.193,-0.49C0.182,-0.464 0.176,-0.438 0.176,-0.409L0.176,-0.284Z" style="fill-rule:nonzero;"/>
                        </g>
                        <g transform="matrix(32,0,0,32,227.925,0)">
                            <path d="M0.1,-0.655C0.1,-0.666 0.104,-0.675 0.111,-0.682C0.118,-0.689 0.127,-0.693 0.138,-0.693C0.149,-0.693 0.158,-0.689 0.165,-0.682C0.172,-0.675 0.176,-0.666 0.176,-0.655L0.176,-0.285C0.176,-0.257 0.182,-0.23 0.193,-0.205C0.204,-0.18 0.218,-0.158 0.237,-0.139C0.256,-0.12 0.278,-0.104 0.303,-0.093C0.328,-0.082 0.354,-0.076 0.382,-0.076L0.876,-0.076L0.876,-0.655C0.876,-0.666 0.88,-0.675 0.887,-0.682C0.894,-0.689 0.903,-0.693 0.914,-0.693C0.925,-0.693 0.934,-0.689 0.941,-0.682C0.948,-0.675 0.952,-0.666 0.952,-0.655L0.952,-0.038C0.952,-0.027 0.948,-0.018 0.941,-0.011C0.934,-0.004 0.925,-0 0.914,-0L0.384,-0C0.345,-0 0.308,-0.008 0.274,-0.023C0.239,-0.038 0.209,-0.058 0.184,-0.084C0.158,-0.109 0.137,-0.139 0.123,-0.174C0.108,-0.209 0.1,-0.246 0.1,-0.285L0.1,-0.655Z" style="fill-rule:nonzero;"/>
                        </g>
                        <g transform="matrix(32,0,0,32,261.824,0)">
                            <path d="M0.1,-0.408C0.1,-0.448 0.108,-0.485 0.123,-0.52C0.137,-0.554 0.158,-0.584 0.183,-0.609C0.209,-0.635 0.239,-0.656 0.274,-0.671C0.308,-0.686 0.345,-0.693 0.384,-0.693L0.849,-0.693C0.86,-0.693 0.869,-0.689 0.876,-0.682C0.883,-0.675 0.887,-0.666 0.887,-0.655C0.887,-0.644 0.883,-0.635 0.876,-0.628C0.869,-0.621 0.859,-0.617 0.848,-0.617L0.384,-0.617C0.355,-0.617 0.329,-0.612 0.304,-0.601C0.279,-0.59 0.256,-0.574 0.237,-0.555C0.218,-0.536 0.203,-0.515 0.192,-0.49C0.181,-0.464 0.176,-0.437 0.176,-0.408L0.176,-0.038C0.176,-0.027 0.172,-0.018 0.165,-0.011C0.158,-0.004 0.149,-0 0.138,-0C0.127,-0 0.118,-0.004 0.111,-0.011C0.104,-0.018 0.1,-0.027 0.1,-0.038L0.1,-0.408Z" style="fill-rule:nonzero;"/>
                        </g>
                    </g>
                </g>
                <circle id="Oval" cx="16" cy="16" r="15" style="fill:none;stroke:rgb(255,128,39);stroke-width:2px;"/>
                <circle id="Oval1" serif:id="Oval" cx="54" cy="16" r="16" style="fill:rgb(255,128,39);"/>
                <circle id="Oval2" serif:id="Oval" cx="93" cy="16" r="15" style="fill:none;stroke:rgb(32,178,76);stroke-width:2px;"/>
                <circle id="Oval3" serif:id="Oval" cx="131" cy="16" r="16" style="fill:rgb(65,72,205);"/>
                <circle id="Oval4" serif:id="Oval" cx="169" cy="16" r="15" style="fill:none;stroke:rgb(65,72,205);stroke-width:2px;"/>
                <circle id="Oval5" serif:id="Oval" cx="207" cy="16" r="16" style="fill:rgb(32,178,76);"/>
                <circle id="Oval6" serif:id="Oval" cx="246" cy="16" r="15" style="fill:none;stroke:rgb(183,123,88);stroke-width:2px;"/>
                <circle id="Oval7" serif:id="Oval" cx="284" cy="16" r="16" style="fill:rgb(183,123,88);"/>
            </g>
        </g>
    </g>
</svg>
