<?xml version="1.0" encoding="UTF-8" standalone="no"?>
<!DOCTYPE svg PUBLIC "-//W3C//DTD SVG 1.1//EN" "http://www.w3.org/Graphics/SVG/1.1/DTD/svg11.dtd">
<svg width="100%" height="100%" viewBox="0 0 600 200" version="1.1" xmlns="http://www.w3.org/2000/svg" xmlns:xlink="http://www.w3.org/1999/xlink" xml:space="preserve" xmlns:serif="http://www.serif.com/" style="fill-rule:evenodd;clip-rule:evenodd;stroke-linecap:square;">
    <g id="ProvidedExtended">
        <rect id="Rectangle" x="50" y="105" width="125" height="35" style="fill:rgb(65,72,205);"/>
        <rect id="Rectangle1" serif:id="Rectangle" x="175" y="105" width="125" height="35" style="fill:rgb(255,128,39);"/>
        <rect id="Rectangle2" serif:id="Rectangle" x="300" y="105" width="250" height="35" style="fill:rgb(183,123,88);"/>
        <path id="Line" d="M50.5,72.5L550.5,72.5" style="fill:none;stroke:rgb(151,151,151);stroke-width:1px;"/>
        <path id="Line-2" d="M50.5,72.5L50.5,82.5" style="fill:none;stroke:rgb(151,151,151);stroke-width:1px;"/>
        <g transform="matrix(1,0,0,1,188,57)">
            <g id="net-income-per-GiB">
                <g transform="matrix(24,0,0,24,0,0)">
                    <path d="M0.316,-0.54C0.375,-0.54 0.42,-0.524 0.452,-0.493C0.483,-0.462 0.499,-0.413 0.499,-0.347L0.499,-0L0.46,-0L0.46,-0.345C0.46,-0.4 0.447,-0.441 0.422,-0.467C0.397,-0.492 0.36,-0.505 0.313,-0.505C0.255,-0.505 0.21,-0.488 0.177,-0.454C0.144,-0.419 0.128,-0.367 0.128,-0.297L0.128,-0L0.089,-0L0.089,-0.53L0.12,-0.53L0.126,-0.426L0.129,-0.426C0.142,-0.456 0.163,-0.483 0.194,-0.506C0.224,-0.529 0.265,-0.54 0.316,-0.54Z" style="fill-rule:nonzero;"/>
                </g>
                <g transform="matrix(24,0,0,24,14.208,0)">
                    <path d="M0.288,-0.54C0.333,-0.54 0.371,-0.529 0.4,-0.508C0.429,-0.486 0.45,-0.456 0.465,-0.42C0.479,-0.383 0.486,-0.341 0.486,-0.294L0.486,-0.263L0.098,-0.263C0.097,-0.186 0.115,-0.128 0.15,-0.087C0.185,-0.046 0.235,-0.025 0.3,-0.025C0.333,-0.025 0.361,-0.028 0.385,-0.033C0.408,-0.038 0.435,-0.047 0.465,-0.061L0.465,-0.023C0.439,-0.012 0.413,-0.003 0.388,0.002C0.362,0.007 0.332,0.01 0.299,0.01C0.245,0.01 0.2,-0.001 0.165,-0.024C0.129,-0.047 0.102,-0.078 0.085,-0.119C0.067,-0.16 0.058,-0.207 0.058,-0.26C0.058,-0.311 0.067,-0.358 0.084,-0.401C0.101,-0.443 0.127,-0.477 0.161,-0.502C0.195,-0.527 0.237,-0.54 0.288,-0.54ZM0.288,-0.505C0.235,-0.505 0.191,-0.487 0.158,-0.452C0.125,-0.416 0.105,-0.364 0.099,-0.297L0.446,-0.297C0.446,-0.359 0.433,-0.409 0.407,-0.448C0.381,-0.486 0.341,-0.505 0.288,-0.505Z" style="fill-rule:nonzero;"/>
                </g>
                <g transform="matrix(24,0,0,24,27.528,0)">
                    <path d="M0.223,-0.025C0.238,-0.025 0.253,-0.026 0.266,-0.028C0.279,-0.03 0.29,-0.033 0.301,-0.037L0.301,-0.004C0.29,0 0.278,0.003 0.265,0.006C0.252,0.009 0.237,0.01 0.22,0.01C0.174,0.01 0.141,-0.003 0.121,-0.029C0.101,-0.055 0.091,-0.093 0.091,-0.143L0.091,-0.496L0.011,-0.496L0.011,-0.522L0.091,-0.531L0.103,-0.659L0.13,-0.659L0.13,-0.53L0.298,-0.53L0.298,-0.496L0.13,-0.496L0.13,-0.146C0.13,-0.107 0.137,-0.077 0.151,-0.056C0.164,-0.035 0.188,-0.025 0.223,-0.025Z" style="fill-rule:nonzero;"/>
                </g>
                <g transform="matrix(24,0,0,24,42.12,0)">
                    <path d="M0.108,-0.724C0.121,-0.724 0.129,-0.721 0.134,-0.714C0.138,-0.707 0.14,-0.699 0.14,-0.688C0.14,-0.677 0.138,-0.669 0.134,-0.662C0.129,-0.655 0.121,-0.652 0.108,-0.652C0.097,-0.652 0.09,-0.655 0.085,-0.662C0.08,-0.669 0.078,-0.677 0.078,-0.688C0.078,-0.699 0.08,-0.707 0.085,-0.714C0.09,-0.721 0.097,-0.724 0.108,-0.724ZM0.128,-0.53L0.128,-0L0.089,-0L0.089,-0.53L0.128,-0.53Z" style="fill-rule:nonzero;"/>
                </g>
                <g transform="matrix(24,0,0,24,47.568,0)">
                    <path d="M0.316,-0.54C0.375,-0.54 0.42,-0.524 0.452,-0.493C0.483,-0.462 0.499,-0.413 0.499,-0.347L0.499,-0L0.46,-0L0.46,-0.345C0.46,-0.4 0.447,-0.441 0.422,-0.467C0.397,-0.492 0.36,-0.505 0.313,-0.505C0.255,-0.505 0.21,-0.488 0.177,-0.454C0.144,-0.419 0.128,-0.367 0.128,-0.297L0.128,-0L0.089,-0L0.089,-0.53L0.12,-0.53L0.126,-0.426L0.129,-0.426C0.142,-0.456 0.163,-0.483 0.194,-0.506C0.224,-0.529 0.265,-0.54 0.316,-0.54Z" style="fill-rule:nonzero;"/>
                </g>
                <g transform="matrix(24,0,0,24,61.776,0)">
                    <path d="M0.302,0.01C0.247,0.01 0.202,-0.001 0.166,-0.024C0.13,-0.047 0.103,-0.079 0.085,-0.12C0.067,-0.161 0.058,-0.208 0.058,-0.262C0.058,-0.318 0.069,-0.367 0.09,-0.409C0.111,-0.45 0.14,-0.483 0.179,-0.506C0.218,-0.529 0.263,-0.54 0.316,-0.54C0.341,-0.54 0.364,-0.538 0.385,-0.534C0.406,-0.529 0.425,-0.523 0.443,-0.515L0.434,-0.48C0.415,-0.488 0.395,-0.494 0.375,-0.498C0.354,-0.502 0.335,-0.504 0.316,-0.504C0.271,-0.504 0.232,-0.494 0.199,-0.474C0.166,-0.454 0.141,-0.426 0.124,-0.39C0.107,-0.353 0.098,-0.311 0.098,-0.262C0.098,-0.217 0.105,-0.177 0.12,-0.142C0.134,-0.106 0.156,-0.078 0.186,-0.057C0.216,-0.036 0.254,-0.025 0.301,-0.025C0.326,-0.025 0.351,-0.028 0.374,-0.033C0.397,-0.038 0.419,-0.044 0.438,-0.052L0.438,-0.017C0.421,-0.009 0.402,-0.003 0.379,0.003C0.356,0.008 0.33,0.01 0.302,0.01Z" style="fill-rule:nonzero;"/>
                </g>
                <g transform="matrix(24,0,0,24,73.392,0)">
                    <path d="M0.522,-0.265C0.522,-0.212 0.514,-0.164 0.497,-0.123C0.48,-0.082 0.454,-0.049 0.419,-0.026C0.384,-0.002 0.341,0.01 0.289,0.01C0.239,0.01 0.197,-0.002 0.163,-0.025C0.128,-0.048 0.102,-0.081 0.085,-0.122C0.067,-0.163 0.058,-0.211 0.058,-0.265C0.058,-0.35 0.079,-0.417 0.121,-0.466C0.162,-0.515 0.22,-0.54 0.294,-0.54C0.347,-0.54 0.39,-0.528 0.423,-0.504C0.456,-0.48 0.481,-0.447 0.498,-0.406C0.514,-0.365 0.522,-0.318 0.522,-0.265ZM0.098,-0.265C0.098,-0.194 0.114,-0.136 0.145,-0.092C0.176,-0.047 0.224,-0.025 0.289,-0.025C0.334,-0.025 0.37,-0.035 0.399,-0.056C0.428,-0.076 0.449,-0.104 0.462,-0.14C0.475,-0.176 0.482,-0.218 0.482,-0.265C0.482,-0.31 0.476,-0.351 0.463,-0.387C0.45,-0.423 0.43,-0.452 0.403,-0.473C0.375,-0.494 0.339,-0.505 0.294,-0.505C0.231,-0.505 0.182,-0.484 0.149,-0.442C0.115,-0.399 0.098,-0.34 0.098,-0.265Z" style="fill-rule:nonzero;"/>
                </g>
                <g transform="matrix(24,0,0,24,87.576,0)">
                    <path d="M0.626,-0.54C0.674,-0.54 0.713,-0.525 0.743,-0.496C0.772,-0.467 0.787,-0.421 0.787,-0.359L0.787,-0L0.749,-0L0.749,-0.357C0.749,-0.408 0.737,-0.446 0.714,-0.47C0.69,-0.493 0.66,-0.505 0.623,-0.505C0.572,-0.505 0.532,-0.49 0.502,-0.461C0.472,-0.432 0.457,-0.384 0.457,-0.319L0.457,-0L0.419,-0L0.419,-0.357C0.419,-0.408 0.407,-0.446 0.384,-0.47C0.36,-0.493 0.33,-0.505 0.293,-0.505C0.245,-0.505 0.206,-0.49 0.175,-0.46C0.143,-0.43 0.128,-0.382 0.128,-0.315L0.128,-0L0.089,-0L0.089,-0.53L0.12,-0.53L0.126,-0.438L0.129,-0.438C0.136,-0.455 0.147,-0.472 0.162,-0.487C0.176,-0.502 0.194,-0.515 0.216,-0.525C0.238,-0.535 0.265,-0.54 0.296,-0.54C0.333,-0.54 0.365,-0.531 0.392,-0.513C0.418,-0.495 0.436,-0.469 0.446,-0.434L0.448,-0.434C0.462,-0.467 0.484,-0.493 0.514,-0.512C0.544,-0.531 0.581,-0.54 0.626,-0.54Z" style="fill-rule:nonzero;"/>
                </g>
                <g transform="matrix(24,0,0,24,108.672,0)">
                    <path d="M0.288,-0.54C0.333,-0.54 0.371,-0.529 0.4,-0.508C0.429,-0.486 0.45,-0.456 0.465,-0.42C0.479,-0.383 0.486,-0.341 0.486,-0.294L0.486,-0.263L0.098,-0.263C0.097,-0.186 0.115,-0.128 0.15,-0.087C0.185,-0.046 0.235,-0.025 0.3,-0.025C0.333,-0.025 0.361,-0.028 0.385,-0.033C0.408,-0.038 0.435,-0.047 0.465,-0.061L0.465,-0.023C0.439,-0.012 0.413,-0.003 0.388,0.002C0.362,0.007 0.332,0.01 0.299,0.01C0.245,0.01 0.2,-0.001 0.165,-0.024C0.129,-0.047 0.102,-0.078 0.085,-0.119C0.067,-0.16 0.058,-0.207 0.058,-0.26C0.058,-0.311 0.067,-0.358 0.084,-0.401C0.101,-0.443 0.127,-0.477 0.161,-0.502C0.195,-0.527 0.237,-0.54 0.288,-0.54ZM0.288,-0.505C0.235,-0.505 0.191,-0.487 0.158,-0.452C0.125,-0.416 0.105,-0.364 0.099,-0.297L0.446,-0.297C0.446,-0.359 0.433,-0.409 0.407,-0.448C0.381,-0.486 0.341,-0.505 0.288,-0.505Z" style="fill-rule:nonzero;"/>
                </g>
                <g transform="matrix(24,0,0,24,128.472,0)">
                    <path d="M0.318,-0.54C0.387,-0.54 0.44,-0.517 0.478,-0.471C0.515,-0.425 0.533,-0.358 0.533,-0.269C0.533,-0.18 0.513,-0.111 0.474,-0.063C0.435,-0.014 0.38,0.01 0.31,0.01C0.26,0.01 0.22,-0.001 0.191,-0.024C0.161,-0.047 0.14,-0.074 0.128,-0.106L0.126,-0.106C0.127,-0.086 0.127,-0.066 0.128,-0.045C0.128,-0.024 0.128,-0.003 0.128,0.016L0.128,0.234L0.09,0.234L0.09,-0.53L0.122,-0.53L0.126,-0.414L0.128,-0.414C0.136,-0.436 0.148,-0.456 0.165,-0.476C0.182,-0.495 0.203,-0.51 0.228,-0.522C0.253,-0.534 0.283,-0.54 0.318,-0.54ZM0.315,-0.505C0.253,-0.505 0.207,-0.485 0.176,-0.444C0.145,-0.403 0.129,-0.344 0.128,-0.269L0.128,-0.263C0.128,-0.182 0.144,-0.123 0.175,-0.084C0.206,-0.045 0.251,-0.025 0.308,-0.025C0.367,-0.025 0.412,-0.046 0.445,-0.088C0.477,-0.13 0.493,-0.19 0.493,-0.269C0.493,-0.426 0.434,-0.505 0.315,-0.505Z" style="fill-rule:nonzero;"/>
                </g>
                <g transform="matrix(24,0,0,24,142.872,0)">
                    <path d="M0.288,-0.54C0.333,-0.54 0.371,-0.529 0.4,-0.508C0.429,-0.486 0.45,-0.456 0.465,-0.42C0.479,-0.383 0.486,-0.341 0.486,-0.294L0.486,-0.263L0.098,-0.263C0.097,-0.186 0.115,-0.128 0.15,-0.087C0.185,-0.046 0.235,-0.025 0.3,-0.025C0.333,-0.025 0.361,-0.028 0.385,-0.033C0.408,-0.038 0.435,-0.047 0.465,-0.061L0.465,-0.023C0.439,-0.012 0.413,-0.003 0.388,0.002C0.362,0.007 0.332,0.01 0.299,0.01C0.245,0.01 0.2,-0.001 0.165,-0.024C0.129,-0.047 0.102,-0.078 0.085,-0.119C0.067,-0.16 0.058,-0.207 0.058,-0.26C0.058,-0.311 0.067,-0.358 0.084,-0.401C0.101,-0.443 0.127,-0.477 0.161,-0.502C0.195,-0.527 0.237,-0.54 0.288,-0.54ZM0.288,-0.505C0.235,-0.505 0.191,-0.487 0.158,-0.452C0.125,-0.416 0.105,-0.364 0.099,-0.297L0.446,-0.297C0.446,-0.359 0.433,-0.409 0.407,-0.448C0.381,-0.486 0.341,-0.505 0.288,-0.505Z" style="fill-rule:nonzero;"/>
                </g>
                <g transform="matrix(24,0,0,24,156.192,0)">
                    <path d="M0.29,-0.538C0.305,-0.538 0.318,-0.537 0.331,-0.536C0.344,-0.534 0.356,-0.531 0.367,-0.528L0.36,-0.492C0.348,-0.495 0.337,-0.498 0.326,-0.5C0.315,-0.501 0.302,-0.502 0.288,-0.502C0.235,-0.502 0.196,-0.483 0.169,-0.446C0.141,-0.409 0.128,-0.358 0.128,-0.295L0.128,-0L0.09,-0L0.09,-0.53L0.124,-0.53L0.127,-0.429L0.13,-0.429C0.141,-0.46 0.16,-0.486 0.187,-0.507C0.214,-0.528 0.248,-0.538 0.29,-0.538Z" style="fill-rule:nonzero;"/>
                </g>
                <g transform="matrix(24,0,0,24,172.104,0)">
                    <path d="M0.375,-0.355L0.642,-0.355L0.642,-0.034C0.609,-0.019 0.573,-0.008 0.535,-0.001C0.496,0.006 0.456,0.01 0.414,0.01C0.299,0.01 0.212,-0.022 0.153,-0.086C0.093,-0.149 0.063,-0.239 0.063,-0.355C0.063,-0.426 0.077,-0.49 0.106,-0.546C0.135,-0.601 0.176,-0.645 0.231,-0.678C0.285,-0.71 0.35,-0.726 0.425,-0.726C0.464,-0.726 0.5,-0.722 0.535,-0.715C0.57,-0.708 0.603,-0.697 0.634,-0.682L0.617,-0.646C0.585,-0.661 0.553,-0.673 0.521,-0.68C0.488,-0.687 0.456,-0.69 0.424,-0.69C0.357,-0.69 0.3,-0.676 0.252,-0.647C0.204,-0.618 0.167,-0.579 0.142,-0.529C0.116,-0.478 0.103,-0.421 0.103,-0.356C0.103,-0.243 0.131,-0.159 0.187,-0.106C0.243,-0.053 0.321,-0.026 0.42,-0.026C0.457,-0.026 0.491,-0.029 0.521,-0.035C0.551,-0.04 0.578,-0.048 0.603,-0.057L0.603,-0.319L0.375,-0.319L0.375,-0.355Z" style="fill-rule:nonzero;"/>
                </g>
                <g transform="matrix(24,0,0,24,189.672,0)">
                    <path d="M0.108,-0.724C0.121,-0.724 0.129,-0.721 0.134,-0.714C0.138,-0.707 0.14,-0.699 0.14,-0.688C0.14,-0.677 0.138,-0.669 0.134,-0.662C0.129,-0.655 0.121,-0.652 0.108,-0.652C0.097,-0.652 0.09,-0.655 0.085,-0.662C0.08,-0.669 0.078,-0.677 0.078,-0.688C0.078,-0.699 0.08,-0.707 0.085,-0.714C0.09,-0.721 0.097,-0.724 0.108,-0.724ZM0.128,-0.53L0.128,-0L0.089,-0L0.089,-0.53L0.128,-0.53Z" style="fill-rule:nonzero;"/>
                </g>
                <g transform="matrix(24,0,0,24,195.12,0)">
                    <path d="M0.295,-0.714C0.383,-0.714 0.447,-0.7 0.487,-0.672C0.526,-0.644 0.546,-0.6 0.546,-0.541C0.546,-0.5 0.534,-0.465 0.51,-0.435C0.486,-0.404 0.451,-0.385 0.406,-0.377L0.406,-0.375C0.462,-0.366 0.502,-0.347 0.528,-0.318C0.553,-0.289 0.565,-0.25 0.565,-0.203C0.565,-0.155 0.554,-0.116 0.533,-0.087C0.511,-0.057 0.481,-0.035 0.443,-0.021C0.405,-0.007 0.361,-0 0.312,-0L0.102,-0L0.102,-0.714L0.295,-0.714ZM0.306,-0.392C0.375,-0.392 0.425,-0.404 0.457,-0.429C0.489,-0.454 0.505,-0.49 0.505,-0.538C0.505,-0.588 0.488,-0.624 0.455,-0.646C0.422,-0.667 0.368,-0.678 0.294,-0.678L0.141,-0.678L0.141,-0.392L0.306,-0.392ZM0.141,-0.357L0.141,-0.035L0.315,-0.035C0.382,-0.035 0.434,-0.049 0.47,-0.077C0.506,-0.104 0.524,-0.147 0.524,-0.204C0.524,-0.261 0.505,-0.3 0.467,-0.323C0.429,-0.346 0.375,-0.357 0.305,-0.357L0.141,-0.357Z" style="fill-rule:nonzero;"/>
                </g>
            </g>
        </g>
        <g transform="matrix(1,0,0,1,69,164)">
            <g id="BringYour">
                <g transform="matrix(18,0,0,18,0,0)">
                    <path d="M0.295,-0.714C0.383,-0.714 0.447,-0.7 0.487,-0.672C0.526,-0.644 0.546,-0.6 0.546,-0.541C0.546,-0.5 0.534,-0.465 0.51,-0.435C0.486,-0.404 0.451,-0.385 0.406,-0.377L0.406,-0.375C0.462,-0.366 0.502,-0.347 0.528,-0.318C0.553,-0.289 0.565,-0.25 0.565,-0.203C0.565,-0.155 0.554,-0.116 0.533,-0.087C0.511,-0.057 0.481,-0.035 0.443,-0.021C0.405,-0.007 0.361,-0 0.312,-0L0.102,-0L0.102,-0.714L0.295,-0.714ZM0.306,-0.392C0.375,-0.392 0.425,-0.404 0.457,-0.429C0.489,-0.454 0.505,-0.49 0.505,-0.538C0.505,-0.588 0.488,-0.624 0.455,-0.646C0.422,-0.667 0.368,-0.678 0.294,-0.678L0.141,-0.678L0.141,-0.392L0.306,-0.392ZM0.141,-0.357L0.141,-0.035L0.315,-0.035C0.382,-0.035 0.434,-0.049 0.47,-0.077C0.506,-0.104 0.524,-0.147 0.524,-0.204C0.524,-0.261 0.505,-0.3 0.467,-0.323C0.429,-0.346 0.375,-0.357 0.305,-0.357L0.141,-0.357Z" style="fill-rule:nonzero;"/>
                </g>
                <g transform="matrix(18,0,0,18,11.313,0)">
                    <path d="M0.29,-0.538C0.305,-0.538 0.318,-0.537 0.331,-0.536C0.344,-0.534 0.356,-0.531 0.367,-0.528L0.36,-0.492C0.348,-0.495 0.337,-0.498 0.326,-0.5C0.315,-0.501 0.302,-0.502 0.288,-0.502C0.235,-0.502 0.196,-0.483 0.169,-0.446C0.141,-0.409 0.128,-0.358 0.128,-0.295L0.128,-0L0.09,-0L0.09,-0.53L0.124,-0.53L0.127,-0.429L0.13,-0.429C0.141,-0.46 0.16,-0.486 0.187,-0.507C0.214,-0.528 0.248,-0.538 0.29,-0.538Z" style="fill-rule:nonzero;"/>
                </g>
                <g transform="matrix(18,0,0,18,18.342,0)">
                    <path d="M0.108,-0.724C0.121,-0.724 0.129,-0.721 0.134,-0.714C0.138,-0.707 0.14,-0.699 0.14,-0.688C0.14,-0.677 0.138,-0.669 0.134,-0.662C0.129,-0.655 0.121,-0.652 0.108,-0.652C0.097,-0.652 0.09,-0.655 0.085,-0.662C0.08,-0.669 0.078,-0.677 0.078,-0.688C0.078,-0.699 0.08,-0.707 0.085,-0.714C0.09,-0.721 0.097,-0.724 0.108,-0.724ZM0.128,-0.53L0.128,-0L0.089,-0L0.089,-0.53L0.128,-0.53Z" style="fill-rule:nonzero;"/>
                </g>
                <g transform="matrix(18,0,0,18,22.383,0)">
                    <path d="M0.316,-0.54C0.375,-0.54 0.42,-0.524 0.452,-0.493C0.483,-0.462 0.499,-0.413 0.499,-0.347L0.499,-0L0.46,-0L0.46,-0.345C0.46,-0.4 0.447,-0.441 0.422,-0.467C0.397,-0.492 0.36,-0.505 0.313,-0.505C0.255,-0.505 0.21,-0.488 0.177,-0.454C0.144,-0.419 0.128,-0.367 0.128,-0.297L0.128,-0L0.089,-0L0.089,-0.53L0.12,-0.53L0.126,-0.426L0.129,-0.426C0.142,-0.456 0.163,-0.483 0.194,-0.506C0.224,-0.529 0.265,-0.54 0.316,-0.54Z" style="fill-rule:nonzero;"/>
                </g>
                <g transform="matrix(18,0,0,18,32.994,0)">
                    <path d="M0.287,-0.54C0.333,-0.54 0.369,-0.531 0.396,-0.513C0.423,-0.495 0.444,-0.472 0.459,-0.443L0.462,-0.443L0.468,-0.53L0.5,-0.53L0.5,0.022C0.5,0.088 0.483,0.141 0.449,0.181C0.414,0.22 0.357,0.24 0.276,0.24C0.236,0.24 0.201,0.237 0.171,0.23C0.14,0.223 0.113,0.214 0.089,0.204L0.089,0.163C0.113,0.175 0.141,0.185 0.173,0.193C0.205,0.201 0.24,0.205 0.277,0.205C0.343,0.205 0.39,0.189 0.419,0.156C0.447,0.123 0.461,0.078 0.461,0.023L0.461,-0.015C0.461,-0.032 0.461,-0.047 0.462,-0.062C0.462,-0.076 0.463,-0.091 0.464,-0.108L0.461,-0.108C0.448,-0.069 0.425,-0.04 0.394,-0.02C0.362,0 0.323,0.01 0.276,0.01C0.208,0.01 0.155,-0.013 0.116,-0.059C0.077,-0.104 0.058,-0.171 0.058,-0.258C0.058,-0.345 0.077,-0.413 0.116,-0.464C0.155,-0.515 0.212,-0.54 0.287,-0.54ZM0.289,-0.505C0.224,-0.505 0.176,-0.483 0.145,-0.44C0.114,-0.396 0.098,-0.335 0.098,-0.258C0.098,-0.182 0.114,-0.124 0.145,-0.085C0.175,-0.045 0.22,-0.025 0.279,-0.025C0.328,-0.025 0.365,-0.036 0.392,-0.057C0.418,-0.078 0.436,-0.105 0.447,-0.139C0.457,-0.172 0.462,-0.208 0.462,-0.246L0.462,-0.289C0.462,-0.332 0.456,-0.369 0.446,-0.402C0.435,-0.434 0.417,-0.459 0.392,-0.478C0.367,-0.496 0.332,-0.505 0.289,-0.505Z" style="fill-rule:nonzero;"/>
                </g>
                <g transform="matrix(18,0,0,18,43.749,0)">
                    <path d="M0.259,-0.314L0.474,-0.714L0.517,-0.714L0.279,-0.275L0.279,-0L0.24,-0L0.24,-0.271L0,-0.714L0.044,-0.714L0.259,-0.314Z" style="fill-rule:nonzero;"/>
                </g>
                <g transform="matrix(18,0,0,18,53.19,0)">
                    <path d="M0.522,-0.265C0.522,-0.212 0.514,-0.164 0.497,-0.123C0.48,-0.082 0.454,-0.049 0.419,-0.026C0.384,-0.002 0.341,0.01 0.289,0.01C0.239,0.01 0.197,-0.002 0.163,-0.025C0.128,-0.048 0.102,-0.081 0.085,-0.122C0.067,-0.163 0.058,-0.211 0.058,-0.265C0.058,-0.35 0.079,-0.417 0.121,-0.466C0.162,-0.515 0.22,-0.54 0.294,-0.54C0.347,-0.54 0.39,-0.528 0.423,-0.504C0.456,-0.48 0.481,-0.447 0.498,-0.406C0.514,-0.365 0.522,-0.318 0.522,-0.265ZM0.098,-0.265C0.098,-0.194 0.114,-0.136 0.145,-0.092C0.176,-0.047 0.224,-0.025 0.289,-0.025C0.334,-0.025 0.37,-0.035 0.399,-0.056C0.428,-0.076 0.449,-0.104 0.462,-0.14C0.475,-0.176 0.482,-0.218 0.482,-0.265C0.482,-0.31 0.476,-0.351 0.463,-0.387C0.45,-0.423 0.43,-0.452 0.403,-0.473C0.375,-0.494 0.339,-0.505 0.294,-0.505C0.231,-0.505 0.182,-0.484 0.149,-0.442C0.115,-0.399 0.098,-0.34 0.098,-0.265Z" style="fill-rule:nonzero;"/>
                </g>
                <g transform="matrix(18,0,0,18,63.783,0)">
                    <path d="M0.492,-0.53L0.492,-0L0.46,-0L0.454,-0.103L0.452,-0.103C0.439,-0.073 0.418,-0.047 0.388,-0.024C0.357,-0.001 0.316,0.01 0.264,0.01C0.142,0.01 0.081,-0.054 0.081,-0.183L0.081,-0.53L0.12,-0.53L0.12,-0.187C0.12,-0.131 0.133,-0.09 0.158,-0.064C0.183,-0.038 0.22,-0.025 0.267,-0.025C0.325,-0.025 0.371,-0.042 0.404,-0.076C0.437,-0.11 0.453,-0.162 0.453,-0.232L0.453,-0.53L0.492,-0.53Z" style="fill-rule:nonzero;"/>
                </g>
                <g transform="matrix(18,0,0,18,74.394,0)">
                    <path d="M0.29,-0.538C0.305,-0.538 0.318,-0.537 0.331,-0.536C0.344,-0.534 0.356,-0.531 0.367,-0.528L0.36,-0.492C0.348,-0.495 0.337,-0.498 0.326,-0.5C0.315,-0.501 0.302,-0.502 0.288,-0.502C0.235,-0.502 0.196,-0.483 0.169,-0.446C0.141,-0.409 0.128,-0.358 0.128,-0.295L0.128,-0L0.09,-0L0.09,-0.53L0.124,-0.53L0.127,-0.429L0.13,-0.429C0.141,-0.46 0.16,-0.486 0.187,-0.507C0.214,-0.528 0.248,-0.538 0.29,-0.538Z" style="fill-rule:nonzero;"/>
                </g>
            </g>
        </g>
        <g transform="matrix(1,0,0,1,199,164)">
            <g id="extender">
                <g transform="matrix(18,0,0,18,0,0)">
                    <path d="M0.288,-0.54C0.333,-0.54 0.371,-0.529 0.4,-0.508C0.429,-0.486 0.45,-0.456 0.465,-0.42C0.479,-0.383 0.486,-0.341 0.486,-0.294L0.486,-0.263L0.098,-0.263C0.097,-0.186 0.115,-0.128 0.15,-0.087C0.185,-0.046 0.235,-0.025 0.3,-0.025C0.333,-0.025 0.361,-0.028 0.385,-0.033C0.408,-0.038 0.435,-0.047 0.465,-0.061L0.465,-0.023C0.439,-0.012 0.413,-0.003 0.388,0.002C0.362,0.007 0.332,0.01 0.299,0.01C0.245,0.01 0.2,-0.001 0.165,-0.024C0.129,-0.047 0.102,-0.078 0.085,-0.119C0.067,-0.16 0.058,-0.207 0.058,-0.26C0.058,-0.311 0.067,-0.358 0.084,-0.401C0.101,-0.443 0.127,-0.477 0.161,-0.502C0.195,-0.527 0.237,-0.54 0.288,-0.54ZM0.288,-0.505C0.235,-0.505 0.191,-0.487 0.158,-0.452C0.125,-0.416 0.105,-0.364 0.099,-0.297L0.446,-0.297C0.446,-0.359 0.433,-0.409 0.407,-0.448C0.381,-0.486 0.341,-0.505 0.288,-0.505Z" style="fill-rule:nonzero;"/>
                </g>
                <g transform="matrix(18,0,0,18,9.945,0)">
                    <path d="M0.218,-0.272L0.033,-0.53L0.079,-0.53L0.242,-0.299L0.404,-0.53L0.45,-0.53L0.267,-0.272L0.462,-0L0.416,-0L0.242,-0.245L0.069,-0L0.024,-0L0.218,-0.272Z" style="fill-rule:nonzero;"/>
                </g>
                <g transform="matrix(18,0,0,18,18.882,0)">
                    <path d="M0.223,-0.025C0.238,-0.025 0.253,-0.026 0.266,-0.028C0.279,-0.03 0.29,-0.033 0.301,-0.037L0.301,-0.004C0.29,0 0.278,0.003 0.265,0.006C0.252,0.009 0.237,0.01 0.22,0.01C0.174,0.01 0.141,-0.003 0.121,-0.029C0.101,-0.055 0.091,-0.093 0.091,-0.143L0.091,-0.496L0.011,-0.496L0.011,-0.522L0.091,-0.531L0.103,-0.659L0.13,-0.659L0.13,-0.53L0.298,-0.53L0.298,-0.496L0.13,-0.496L0.13,-0.146C0.13,-0.107 0.137,-0.077 0.151,-0.056C0.164,-0.035 0.188,-0.025 0.223,-0.025Z" style="fill-rule:nonzero;"/>
                </g>
                <g transform="matrix(18,0,0,18,24.921,0)">
                    <path d="M0.288,-0.54C0.333,-0.54 0.371,-0.529 0.4,-0.508C0.429,-0.486 0.45,-0.456 0.465,-0.42C0.479,-0.383 0.486,-0.341 0.486,-0.294L0.486,-0.263L0.098,-0.263C0.097,-0.186 0.115,-0.128 0.15,-0.087C0.185,-0.046 0.235,-0.025 0.3,-0.025C0.333,-0.025 0.361,-0.028 0.385,-0.033C0.408,-0.038 0.435,-0.047 0.465,-0.061L0.465,-0.023C0.439,-0.012 0.413,-0.003 0.388,0.002C0.362,0.007 0.332,0.01 0.299,0.01C0.245,0.01 0.2,-0.001 0.165,-0.024C0.129,-0.047 0.102,-0.078 0.085,-0.119C0.067,-0.16 0.058,-0.207 0.058,-0.26C0.058,-0.311 0.067,-0.358 0.084,-0.401C0.101,-0.443 0.127,-0.477 0.161,-0.502C0.195,-0.527 0.237,-0.54 0.288,-0.54ZM0.288,-0.505C0.235,-0.505 0.191,-0.487 0.158,-0.452C0.125,-0.416 0.105,-0.364 0.099,-0.297L0.446,-0.297C0.446,-0.359 0.433,-0.409 0.407,-0.448C0.381,-0.486 0.341,-0.505 0.288,-0.505Z" style="fill-rule:nonzero;"/>
                </g>
                <g transform="matrix(18,0,0,18,34.866,0)">
                    <path d="M0.316,-0.54C0.375,-0.54 0.42,-0.524 0.452,-0.493C0.483,-0.462 0.499,-0.413 0.499,-0.347L0.499,-0L0.46,-0L0.46,-0.345C0.46,-0.4 0.447,-0.441 0.422,-0.467C0.397,-0.492 0.36,-0.505 0.313,-0.505C0.255,-0.505 0.21,-0.488 0.177,-0.454C0.144,-0.419 0.128,-0.367 0.128,-0.297L0.128,-0L0.089,-0L0.089,-0.53L0.12,-0.53L0.126,-0.426L0.129,-0.426C0.142,-0.456 0.163,-0.483 0.194,-0.506C0.224,-0.529 0.265,-0.54 0.316,-0.54Z" style="fill-rule:nonzero;"/>
                </g>
                <g transform="matrix(18,0,0,18,45.477,0)">
                    <path d="M0.281,0.01C0.207,0.01 0.151,-0.013 0.114,-0.058C0.077,-0.103 0.058,-0.17 0.058,-0.257C0.058,-0.348 0.078,-0.418 0.118,-0.467C0.158,-0.516 0.215,-0.54 0.288,-0.54C0.335,-0.54 0.373,-0.529 0.402,-0.507C0.431,-0.484 0.451,-0.457 0.463,-0.425L0.466,-0.425C0.465,-0.444 0.464,-0.464 0.464,-0.485C0.463,-0.505 0.463,-0.525 0.463,-0.544L0.463,-0.76L0.501,-0.76L0.501,-0L0.469,-0L0.465,-0.105L0.463,-0.105C0.45,-0.074 0.43,-0.047 0.401,-0.024C0.372,-0.001 0.332,0.01 0.281,0.01ZM0.284,-0.025C0.349,-0.025 0.395,-0.046 0.422,-0.087C0.449,-0.128 0.463,-0.185 0.463,-0.26L0.463,-0.266C0.463,-0.343 0.449,-0.403 0.422,-0.444C0.394,-0.485 0.35,-0.505 0.29,-0.505C0.228,-0.505 0.181,-0.484 0.148,-0.442C0.115,-0.4 0.098,-0.338 0.098,-0.256C0.098,-0.179 0.113,-0.122 0.144,-0.083C0.175,-0.044 0.221,-0.025 0.284,-0.025Z" style="fill-rule:nonzero;"/>
                </g>
                <g transform="matrix(18,0,0,18,56.232,0)">
                    <path d="M0.288,-0.54C0.333,-0.54 0.371,-0.529 0.4,-0.508C0.429,-0.486 0.45,-0.456 0.465,-0.42C0.479,-0.383 0.486,-0.341 0.486,-0.294L0.486,-0.263L0.098,-0.263C0.097,-0.186 0.115,-0.128 0.15,-0.087C0.185,-0.046 0.235,-0.025 0.3,-0.025C0.333,-0.025 0.361,-0.028 0.385,-0.033C0.408,-0.038 0.435,-0.047 0.465,-0.061L0.465,-0.023C0.439,-0.012 0.413,-0.003 0.388,0.002C0.362,0.007 0.332,0.01 0.299,0.01C0.245,0.01 0.2,-0.001 0.165,-0.024C0.129,-0.047 0.102,-0.078 0.085,-0.119C0.067,-0.16 0.058,-0.207 0.058,-0.26C0.058,-0.311 0.067,-0.358 0.084,-0.401C0.101,-0.443 0.127,-0.477 0.161,-0.502C0.195,-0.527 0.237,-0.54 0.288,-0.54ZM0.288,-0.505C0.235,-0.505 0.191,-0.487 0.158,-0.452C0.125,-0.416 0.105,-0.364 0.099,-0.297L0.446,-0.297C0.446,-0.359 0.433,-0.409 0.407,-0.448C0.381,-0.486 0.341,-0.505 0.288,-0.505Z" style="fill-rule:nonzero;"/>
                </g>
                <g transform="matrix(18,0,0,18,66.177,0)">
                    <path d="M0.29,-0.538C0.305,-0.538 0.318,-0.537 0.331,-0.536C0.344,-0.534 0.356,-0.531 0.367,-0.528L0.36,-0.492C0.348,-0.495 0.337,-0.498 0.326,-0.5C0.315,-0.501 0.302,-0.502 0.288,-0.502C0.235,-0.502 0.196,-0.483 0.169,-0.446C0.141,-0.409 0.128,-0.358 0.128,-0.295L0.128,-0L0.09,-0L0.09,-0.53L0.124,-0.53L0.127,-0.429L0.13,-0.429C0.141,-0.46 0.16,-0.486 0.187,-0.507C0.214,-0.528 0.248,-0.538 0.29,-0.538Z" style="fill-rule:nonzero;"/>
                </g>
            </g>
        </g>
        <g transform="matrix(1,0,0,1,389,164)">
            <g id="provider">
                <g transform="matrix(18,0,0,18,0,0)">
                    <path d="M0.318,-0.54C0.387,-0.54 0.44,-0.517 0.478,-0.471C0.515,-0.425 0.533,-0.358 0.533,-0.269C0.533,-0.18 0.513,-0.111 0.474,-0.063C0.435,-0.014 0.38,0.01 0.31,0.01C0.26,0.01 0.22,-0.001 0.191,-0.024C0.161,-0.047 0.14,-0.074 0.128,-0.106L0.126,-0.106C0.127,-0.086 0.127,-0.066 0.128,-0.045C0.128,-0.024 0.128,-0.003 0.128,0.016L0.128,0.234L0.09,0.234L0.09,-0.53L0.122,-0.53L0.126,-0.414L0.128,-0.414C0.136,-0.436 0.148,-0.456 0.165,-0.476C0.182,-0.495 0.203,-0.51 0.228,-0.522C0.253,-0.534 0.283,-0.54 0.318,-0.54ZM0.315,-0.505C0.253,-0.505 0.207,-0.485 0.176,-0.444C0.145,-0.403 0.129,-0.344 0.128,-0.269L0.128,-0.263C0.128,-0.182 0.144,-0.123 0.175,-0.084C0.206,-0.045 0.251,-0.025 0.308,-0.025C0.367,-0.025 0.412,-0.046 0.445,-0.088C0.477,-0.13 0.493,-0.19 0.493,-0.269C0.493,-0.426 0.434,-0.505 0.315,-0.505Z" style="fill-rule:nonzero;"/>
                </g>
                <g transform="matrix(18,0,0,18,10.755,0)">
                    <path d="M0.29,-0.538C0.305,-0.538 0.318,-0.537 0.331,-0.536C0.344,-0.534 0.356,-0.531 0.367,-0.528L0.36,-0.492C0.348,-0.495 0.337,-0.498 0.326,-0.5C0.315,-0.501 0.302,-0.502 0.288,-0.502C0.235,-0.502 0.196,-0.483 0.169,-0.446C0.141,-0.409 0.128,-0.358 0.128,-0.295L0.128,-0L0.09,-0L0.09,-0.53L0.124,-0.53L0.127,-0.429L0.13,-0.429C0.141,-0.46 0.16,-0.486 0.187,-0.507C0.214,-0.528 0.248,-0.538 0.29,-0.538Z" style="fill-rule:nonzero;"/>
                </g>
                <g transform="matrix(18,0,0,18,17.784,0)">
                    <path d="M0.522,-0.265C0.522,-0.212 0.514,-0.164 0.497,-0.123C0.48,-0.082 0.454,-0.049 0.419,-0.026C0.384,-0.002 0.341,0.01 0.289,0.01C0.239,0.01 0.197,-0.002 0.163,-0.025C0.128,-0.048 0.102,-0.081 0.085,-0.122C0.067,-0.163 0.058,-0.211 0.058,-0.265C0.058,-0.35 0.079,-0.417 0.121,-0.466C0.162,-0.515 0.22,-0.54 0.294,-0.54C0.347,-0.54 0.39,-0.528 0.423,-0.504C0.456,-0.48 0.481,-0.447 0.498,-0.406C0.514,-0.365 0.522,-0.318 0.522,-0.265ZM0.098,-0.265C0.098,-0.194 0.114,-0.136 0.145,-0.092C0.176,-0.047 0.224,-0.025 0.289,-0.025C0.334,-0.025 0.37,-0.035 0.399,-0.056C0.428,-0.076 0.449,-0.104 0.462,-0.14C0.475,-0.176 0.482,-0.218 0.482,-0.265C0.482,-0.31 0.476,-0.351 0.463,-0.387C0.45,-0.423 0.43,-0.452 0.403,-0.473C0.375,-0.494 0.339,-0.505 0.294,-0.505C0.231,-0.505 0.182,-0.484 0.149,-0.442C0.115,-0.399 0.098,-0.34 0.098,-0.265Z" style="fill-rule:nonzero;"/>
                </g>
                <g transform="matrix(18,0,0,18,28.377,0)">
                    <path d="M0.204,-0L0,-0.53L0.041,-0.53L0.183,-0.155C0.192,-0.133 0.199,-0.113 0.205,-0.096C0.211,-0.078 0.217,-0.061 0.222,-0.045L0.224,-0.045C0.229,-0.061 0.235,-0.078 0.241,-0.096C0.247,-0.113 0.254,-0.133 0.263,-0.155L0.405,-0.53L0.446,-0.53L0.242,-0L0.204,-0Z" style="fill-rule:nonzero;"/>
                </g>
                <g transform="matrix(18,0,0,18,36.54,0)">
                    <path d="M0.108,-0.724C0.121,-0.724 0.129,-0.721 0.134,-0.714C0.138,-0.707 0.14,-0.699 0.14,-0.688C0.14,-0.677 0.138,-0.669 0.134,-0.662C0.129,-0.655 0.121,-0.652 0.108,-0.652C0.097,-0.652 0.09,-0.655 0.085,-0.662C0.08,-0.669 0.078,-0.677 0.078,-0.688C0.078,-0.699 0.08,-0.707 0.085,-0.714C0.09,-0.721 0.097,-0.724 0.108,-0.724ZM0.128,-0.53L0.128,-0L0.089,-0L0.089,-0.53L0.128,-0.53Z" style="fill-rule:nonzero;"/>
                </g>
                <g transform="matrix(18,0,0,18,40.581,0)">
                    <path d="M0.281,0.01C0.207,0.01 0.151,-0.013 0.114,-0.058C0.077,-0.103 0.058,-0.17 0.058,-0.257C0.058,-0.348 0.078,-0.418 0.118,-0.467C0.158,-0.516 0.215,-0.54 0.288,-0.54C0.335,-0.54 0.373,-0.529 0.402,-0.507C0.431,-0.484 0.451,-0.457 0.463,-0.425L0.466,-0.425C0.465,-0.444 0.464,-0.464 0.464,-0.485C0.463,-0.505 0.463,-0.525 0.463,-0.544L0.463,-0.76L0.501,-0.76L0.501,-0L0.469,-0L0.465,-0.105L0.463,-0.105C0.45,-0.074 0.43,-0.047 0.401,-0.024C0.372,-0.001 0.332,0.01 0.281,0.01ZM0.284,-0.025C0.349,-0.025 0.395,-0.046 0.422,-0.087C0.449,-0.128 0.463,-0.185 0.463,-0.26L0.463,-0.266C0.463,-0.343 0.449,-0.403 0.422,-0.444C0.394,-0.485 0.35,-0.505 0.29,-0.505C0.228,-0.505 0.181,-0.484 0.148,-0.442C0.115,-0.4 0.098,-0.338 0.098,-0.256C0.098,-0.179 0.113,-0.122 0.144,-0.083C0.175,-0.044 0.221,-0.025 0.284,-0.025Z" style="fill-rule:nonzero;"/>
                </g>
                <g transform="matrix(18,0,0,18,51.336,0)">
                    <path d="M0.288,-0.54C0.333,-0.54 0.371,-0.529 0.4,-0.508C0.429,-0.486 0.45,-0.456 0.465,-0.42C0.479,-0.383 0.486,-0.341 0.486,-0.294L0.486,-0.263L0.098,-0.263C0.097,-0.186 0.115,-0.128 0.15,-0.087C0.185,-0.046 0.235,-0.025 0.3,-0.025C0.333,-0.025 0.361,-0.028 0.385,-0.033C0.408,-0.038 0.435,-0.047 0.465,-0.061L0.465,-0.023C0.439,-0.012 0.413,-0.003 0.388,0.002C0.362,0.007 0.332,0.01 0.299,0.01C0.245,0.01 0.2,-0.001 0.165,-0.024C0.129,-0.047 0.102,-0.078 0.085,-0.119C0.067,-0.16 0.058,-0.207 0.058,-0.26C0.058,-0.311 0.067,-0.358 0.084,-0.401C0.101,-0.443 0.127,-0.477 0.161,-0.502C0.195,-0.527 0.237,-0.54 0.288,-0.54ZM0.288,-0.505C0.235,-0.505 0.191,-0.487 0.158,-0.452C0.125,-0.416 0.105,-0.364 0.099,-0.297L0.446,-0.297C0.446,-0.359 0.433,-0.409 0.407,-0.448C0.381,-0.486 0.341,-0.505 0.288,-0.505Z" style="fill-rule:nonzero;"/>
                </g>
                <g transform="matrix(18,0,0,18,61.281,0)">
                    <path d="M0.29,-0.538C0.305,-0.538 0.318,-0.537 0.331,-0.536C0.344,-0.534 0.356,-0.531 0.367,-0.528L0.36,-0.492C0.348,-0.495 0.337,-0.498 0.326,-0.5C0.315,-0.501 0.302,-0.502 0.288,-0.502C0.235,-0.502 0.196,-0.483 0.169,-0.446C0.141,-0.409 0.128,-0.358 0.128,-0.295L0.128,-0L0.09,-0L0.09,-0.53L0.124,-0.53L0.127,-0.429L0.13,-0.429C0.141,-0.46 0.16,-0.486 0.187,-0.507C0.214,-0.528 0.248,-0.538 0.29,-0.538Z" style="fill-rule:nonzero;"/>
                </g>
            </g>
        </g>
        <g transform="matrix(1,0,0,1,93,130)">
            <g id="_25-" serif:id="25%">
                <g transform="matrix(18,0,0,18,0,0)">
                    <path d="M0.526,-0L0.046,-0L0.046,-0.082L0.23,-0.269C0.266,-0.306 0.296,-0.337 0.32,-0.365C0.344,-0.392 0.362,-0.418 0.374,-0.443C0.386,-0.467 0.392,-0.495 0.392,-0.524C0.392,-0.56 0.381,-0.587 0.36,-0.606C0.339,-0.625 0.311,-0.634 0.277,-0.634C0.244,-0.634 0.215,-0.628 0.189,-0.616C0.163,-0.604 0.136,-0.587 0.108,-0.564L0.051,-0.635C0.08,-0.659 0.112,-0.68 0.149,-0.698C0.186,-0.715 0.229,-0.724 0.28,-0.724C0.348,-0.724 0.401,-0.707 0.441,-0.672C0.48,-0.637 0.499,-0.591 0.499,-0.533C0.499,-0.495 0.491,-0.46 0.476,-0.428C0.461,-0.395 0.439,-0.363 0.411,-0.331C0.383,-0.299 0.35,-0.265 0.312,-0.228L0.179,-0.099L0.179,-0.094L0.526,-0.094L0.526,-0Z" style="fill:white;fill-rule:nonzero;"/>
                </g>
                <g transform="matrix(18,0,0,18,10.431,0)">
                    <path d="M0.282,-0.443C0.353,-0.443 0.41,-0.425 0.453,-0.388C0.496,-0.351 0.518,-0.299 0.518,-0.231C0.518,-0.156 0.494,-0.098 0.447,-0.055C0.4,-0.012 0.333,0.01 0.246,0.01C0.209,0.01 0.174,0.007 0.142,-0C0.109,-0.007 0.082,-0.016 0.059,-0.029L0.059,-0.126C0.083,-0.112 0.112,-0.101 0.147,-0.092C0.181,-0.083 0.214,-0.079 0.245,-0.079C0.295,-0.079 0.335,-0.091 0.365,-0.114C0.395,-0.136 0.41,-0.172 0.41,-0.221C0.41,-0.264 0.397,-0.298 0.37,-0.321C0.343,-0.343 0.3,-0.355 0.242,-0.355C0.223,-0.355 0.202,-0.353 0.179,-0.35C0.156,-0.347 0.138,-0.343 0.124,-0.34L0.075,-0.369L0.102,-0.714L0.469,-0.714L0.469,-0.62L0.194,-0.62L0.178,-0.433C0.189,-0.435 0.204,-0.437 0.221,-0.44C0.238,-0.442 0.259,-0.443 0.282,-0.443Z" style="fill:white;fill-rule:nonzero;"/>
                </g>
                <g transform="matrix(18,0,0,18,20.862,0)">
                    <path d="M0.196,-0.724C0.247,-0.724 0.286,-0.705 0.313,-0.666C0.339,-0.626 0.352,-0.572 0.352,-0.501C0.352,-0.43 0.339,-0.375 0.315,-0.336C0.29,-0.296 0.25,-0.276 0.196,-0.276C0.147,-0.276 0.109,-0.296 0.083,-0.336C0.057,-0.375 0.044,-0.43 0.044,-0.501C0.044,-0.572 0.056,-0.626 0.081,-0.666C0.105,-0.705 0.143,-0.724 0.196,-0.724ZM0.668,-0.714L0.272,-0L0.183,-0L0.579,-0.714L0.668,-0.714ZM0.196,-0.65C0.153,-0.65 0.131,-0.6 0.131,-0.501C0.131,-0.4 0.153,-0.35 0.196,-0.35C0.242,-0.35 0.265,-0.4 0.265,-0.501C0.265,-0.6 0.242,-0.65 0.196,-0.65ZM0.652,-0.438C0.703,-0.438 0.741,-0.419 0.768,-0.38C0.795,-0.341 0.808,-0.286 0.808,-0.215C0.808,-0.145 0.796,-0.09 0.771,-0.05C0.745,-0.01 0.706,0.01 0.652,0.01C0.602,0.01 0.564,-0.01 0.538,-0.05C0.512,-0.09 0.499,-0.145 0.499,-0.215C0.499,-0.286 0.511,-0.341 0.536,-0.38C0.56,-0.419 0.599,-0.438 0.652,-0.438ZM0.652,-0.364C0.609,-0.364 0.587,-0.314 0.587,-0.215C0.587,-0.115 0.609,-0.065 0.652,-0.065C0.697,-0.065 0.72,-0.115 0.72,-0.215C0.72,-0.314 0.697,-0.364 0.652,-0.364Z" style="fill:white;fill-rule:nonzero;"/>
                </g>
            </g>
        </g>
        <g transform="matrix(1,0,0,1,218,130)">
            <g id="_25-1" serif:id="25%">
                <g transform="matrix(18,0,0,18,0,0)">
                    <path d="M0.526,-0L0.046,-0L0.046,-0.082L0.23,-0.269C0.266,-0.306 0.296,-0.337 0.32,-0.365C0.344,-0.392 0.362,-0.418 0.374,-0.443C0.386,-0.467 0.392,-0.495 0.392,-0.524C0.392,-0.56 0.381,-0.587 0.36,-0.606C0.339,-0.625 0.311,-0.634 0.277,-0.634C0.244,-0.634 0.215,-0.628 0.189,-0.616C0.163,-0.604 0.136,-0.587 0.108,-0.564L0.051,-0.635C0.08,-0.659 0.112,-0.68 0.149,-0.698C0.186,-0.715 0.229,-0.724 0.28,-0.724C0.348,-0.724 0.401,-0.707 0.441,-0.672C0.48,-0.637 0.499,-0.591 0.499,-0.533C0.499,-0.495 0.491,-0.46 0.476,-0.428C0.461,-0.395 0.439,-0.363 0.411,-0.331C0.383,-0.299 0.35,-0.265 0.312,-0.228L0.179,-0.099L0.179,-0.094L0.526,-0.094L0.526,-0Z" style="fill:white;fill-rule:nonzero;"/>
                </g>
                <g transform="matrix(18,0,0,18,10.431,0)">
                    <path d="M0.282,-0.443C0.353,-0.443 0.41,-0.425 0.453,-0.388C0.496,-0.351 0.518,-0.299 0.518,-0.231C0.518,-0.156 0.494,-0.098 0.447,-0.055C0.4,-0.012 0.333,0.01 0.246,0.01C0.209,0.01 0.174,0.007 0.142,-0C0.109,-0.007 0.082,-0.016 0.059,-0.029L0.059,-0.126C0.083,-0.112 0.112,-0.101 0.147,-0.092C0.181,-0.083 0.214,-0.079 0.245,-0.079C0.295,-0.079 0.335,-0.091 0.365,-0.114C0.395,-0.136 0.41,-0.172 0.41,-0.221C0.41,-0.264 0.397,-0.298 0.37,-0.321C0.343,-0.343 0.3,-0.355 0.242,-0.355C0.223,-0.355 0.202,-0.353 0.179,-0.35C0.156,-0.347 0.138,-0.343 0.124,-0.34L0.075,-0.369L0.102,-0.714L0.469,-0.714L0.469,-0.62L0.194,-0.62L0.178,-0.433C0.189,-0.435 0.204,-0.437 0.221,-0.44C0.238,-0.442 0.259,-0.443 0.282,-0.443Z" style="fill:white;fill-rule:nonzero;"/>
                </g>
                <g transform="matrix(18,0,0,18,20.862,0)">
                    <path d="M0.196,-0.724C0.247,-0.724 0.286,-0.705 0.313,-0.666C0.339,-0.626 0.352,-0.572 0.352,-0.501C0.352,-0.43 0.339,-0.375 0.315,-0.336C0.29,-0.296 0.25,-0.276 0.196,-0.276C0.147,-0.276 0.109,-0.296 0.083,-0.336C0.057,-0.375 0.044,-0.43 0.044,-0.501C0.044,-0.572 0.056,-0.626 0.081,-0.666C0.105,-0.705 0.143,-0.724 0.196,-0.724ZM0.668,-0.714L0.272,-0L0.183,-0L0.579,-0.714L0.668,-0.714ZM0.196,-0.65C0.153,-0.65 0.131,-0.6 0.131,-0.501C0.131,-0.4 0.153,-0.35 0.196,-0.35C0.242,-0.35 0.265,-0.4 0.265,-0.501C0.265,-0.6 0.242,-0.65 0.196,-0.65ZM0.652,-0.438C0.703,-0.438 0.741,-0.419 0.768,-0.38C0.795,-0.341 0.808,-0.286 0.808,-0.215C0.808,-0.145 0.796,-0.09 0.771,-0.05C0.745,-0.01 0.706,0.01 0.652,0.01C0.602,0.01 0.564,-0.01 0.538,-0.05C0.512,-0.09 0.499,-0.145 0.499,-0.215C0.499,-0.286 0.511,-0.341 0.536,-0.38C0.56,-0.419 0.599,-0.438 0.652,-0.438ZM0.652,-0.364C0.609,-0.364 0.587,-0.314 0.587,-0.215C0.587,-0.115 0.609,-0.065 0.652,-0.065C0.697,-0.065 0.72,-0.115 0.72,-0.215C0.72,-0.314 0.697,-0.364 0.652,-0.364Z" style="fill:white;fill-rule:nonzero;"/>
                </g>
            </g>
        </g>
        <g transform="matrix(1,0,0,1,406,130)">
            <g id="_50-" serif:id="50%">
                <g transform="matrix(18,0,0,18,0,0)">
                    <path d="M0.282,-0.443C0.353,-0.443 0.41,-0.425 0.453,-0.388C0.496,-0.351 0.518,-0.299 0.518,-0.231C0.518,-0.156 0.494,-0.098 0.447,-0.055C0.4,-0.012 0.333,0.01 0.246,0.01C0.209,0.01 0.174,0.007 0.142,-0C0.109,-0.007 0.082,-0.016 0.059,-0.029L0.059,-0.126C0.083,-0.112 0.112,-0.101 0.147,-0.092C0.181,-0.083 0.214,-0.079 0.245,-0.079C0.295,-0.079 0.335,-0.091 0.365,-0.114C0.395,-0.136 0.41,-0.172 0.41,-0.221C0.41,-0.264 0.397,-0.298 0.37,-0.321C0.343,-0.343 0.3,-0.355 0.242,-0.355C0.223,-0.355 0.202,-0.353 0.179,-0.35C0.156,-0.347 0.138,-0.343 0.124,-0.34L0.075,-0.369L0.102,-0.714L0.469,-0.714L0.469,-0.62L0.194,-0.62L0.178,-0.433C0.189,-0.435 0.204,-0.437 0.221,-0.44C0.238,-0.442 0.259,-0.443 0.282,-0.443Z" style="fill:white;fill-rule:nonzero;"/>
                </g>
                <g transform="matrix(18,0,0,18,10.431,0)">
                    <path d="M0.527,-0.358C0.527,-0.281 0.519,-0.215 0.503,-0.16C0.486,-0.105 0.46,-0.063 0.425,-0.034C0.39,-0.005 0.343,0.01 0.285,0.01C0.203,0.01 0.142,-0.023 0.104,-0.088C0.065,-0.153 0.045,-0.243 0.045,-0.358C0.045,-0.435 0.053,-0.501 0.069,-0.556C0.084,-0.611 0.11,-0.653 0.145,-0.682C0.18,-0.711 0.227,-0.725 0.285,-0.725C0.366,-0.725 0.427,-0.693 0.467,-0.629C0.507,-0.564 0.527,-0.474 0.527,-0.358ZM0.151,-0.358C0.151,-0.265 0.161,-0.195 0.181,-0.149C0.201,-0.102 0.236,-0.079 0.285,-0.079C0.334,-0.079 0.368,-0.102 0.389,-0.148C0.41,-0.194 0.42,-0.264 0.42,-0.358C0.42,-0.451 0.41,-0.52 0.389,-0.567C0.368,-0.613 0.334,-0.636 0.285,-0.636C0.236,-0.636 0.201,-0.613 0.181,-0.567C0.161,-0.52 0.151,-0.451 0.151,-0.358Z" style="fill:white;fill-rule:nonzero;"/>
                </g>
                <g transform="matrix(18,0,0,18,20.862,0)">
                    <path d="M0.196,-0.724C0.247,-0.724 0.286,-0.705 0.313,-0.666C0.339,-0.626 0.352,-0.572 0.352,-0.501C0.352,-0.43 0.339,-0.375 0.315,-0.336C0.29,-0.296 0.25,-0.276 0.196,-0.276C0.147,-0.276 0.109,-0.296 0.083,-0.336C0.057,-0.375 0.044,-0.43 0.044,-0.501C0.044,-0.572 0.056,-0.626 0.081,-0.666C0.105,-0.705 0.143,-0.724 0.196,-0.724ZM0.668,-0.714L0.272,-0L0.183,-0L0.579,-0.714L0.668,-0.714ZM0.196,-0.65C0.153,-0.65 0.131,-0.6 0.131,-0.501C0.131,-0.4 0.153,-0.35 0.196,-0.35C0.242,-0.35 0.265,-0.4 0.265,-0.501C0.265,-0.6 0.242,-0.65 0.196,-0.65ZM0.652,-0.438C0.703,-0.438 0.741,-0.419 0.768,-0.38C0.795,-0.341 0.808,-0.286 0.808,-0.215C0.808,-0.145 0.796,-0.09 0.771,-0.05C0.745,-0.01 0.706,0.01 0.652,0.01C0.602,0.01 0.564,-0.01 0.538,-0.05C0.512,-0.09 0.499,-0.145 0.499,-0.215C0.499,-0.286 0.511,-0.341 0.536,-0.38C0.56,-0.419 0.599,-0.438 0.652,-0.438ZM0.652,-0.364C0.609,-0.364 0.587,-0.314 0.587,-0.215C0.587,-0.115 0.609,-0.065 0.652,-0.065C0.697,-0.065 0.72,-0.115 0.72,-0.215C0.72,-0.314 0.697,-0.364 0.652,-0.364Z" style="fill:white;fill-rule:nonzero;"/>
                </g>
            </g>
        </g>
    </g>
</svg>
