<?xml version="1.0" encoding="UTF-8"?>
<svg width="45px" height="45px" viewBox="0 0 45 45" version="1.1" xmlns="http://www.w3.org/2000/svg" xmlns:xlink="http://www.w3.org/1999/xlink">
    <title>superfast</title>
    <g id="superfast" stroke="none" stroke-width="1" fill="none" fill-rule="evenodd">
        <circle id="Oval" fill="#A5ACB9" fill-rule="nonzero" cx="24.9045" cy="23.4761" r="14.2837"></circle>
        <path d="M42.3781,23 C42.3781,33.7034 33.7033,42.3782 22.9998,42.3782 C12.2964,42.3782 3.62158,33.7034 3.62158,23 C3.62158,12.2966 12.2964,3.62177 22.9998,3.62177 C33.7033,3.62177 42.3781,12.2966 42.3781,23 Z M27.8444,30.2668 C27.8444,29.0633 27.4053,27.9657 26.6862,27.1179 L32.4846,15.9603 C32.9463,15.067 32.5981,13.9694 31.7125,13.5077 C30.8268,13.0459 29.7292,13.3941 29.2599,14.2798 L23.4616,25.445 C23.3102,25.4298 23.1588,25.4223 22.9998,25.4223 C20.3277,25.4223 18.1553,27.5948 18.1553,30.2668 C18.1553,32.9389 20.3277,35.1114 22.9998,35.1114 C25.6719,35.1114 27.8444,32.9389 27.8444,30.2668 Z" id="Shape" fill="#1D3150" fill-rule="nonzero"></path>
    </g>
</svg>