<?xml version="1.0" encoding="UTF-8"?>
<svg width="1024px" height="1024px" viewBox="0 0 1024 1024" version="1.1" xmlns="http://www.w3.org/2000/svg" xmlns:xlink="http://www.w3.org/1999/xlink">
    <title>Group 2</title>
    <defs>
        <path d="M667.5,178 C642.924391,178 623,158.075609 623,133.5 C623,108.924391 603.075609,89 578.5,89 C553.924391,89 534,69.0756087 534,44.5 C534,19.9243913 514.075609,0 489.5,0 L222.5,0 C197.924391,0 178,19.9243913 178,44.5 C178,69.0756087 158.075609,89 133.5,89 C108.924391,89 89,108.924391 89,133.5 C89,158.075609 69.0756087,178 44.5,178 C19.9243913,178 0,197.924391 0,222.5 L0,489.5 C0,514.075609 19.9243913,534 44.5,534 C69.0756087,534 89,553.924391 89,578.5 C89,603.075609 108.924391,623 133.5,623 C158.075609,623 178,642.924391 178,667.5 C178,692.075609 197.924391,712 222.5,712 L489.5,712 C514.075609,712 534,692.075609 534,667.5 C534,642.924391 553.924391,623 578.5,623 C603.075609,623 623,603.075609 623,578.5 C623,553.924391 642.924391,534 667.5,534 C692.075609,534 712,514.075609 712,489.5 L712,222.5 C712,197.924391 692.075609,178 667.5,178 Z" id="path-1"></path>
    </defs>
    <g id="Page-1" stroke="none" stroke-width="1" fill="none" fill-rule="evenodd">
        <g id="Group-2">
            <rect id="Rectangle" fill="#101010" x="0" y="0" width="1024" height="1024" rx="48"></rect>
            <g id="Clipped" transform="translate(156, 156)">
                <mask id="mask-2" fill="white">
                    <use xlink:href="#path-1"></use>
                </mask>
                <g id="Path"></g>
                <g id="Group" mask="url(#mask-2)" fill-rule="nonzero">
                    <g transform="translate(-441.1301, -526.2609)" id="Oval">
                        <circle fill="#FF6C58" cx="1026.41253" cy="822.282609" r="386.956522"></circle>
                        <circle fill="#ED8FFF" cx="636.54996" cy="729.413043" r="386.956522"></circle>
                        <circle fill="#87FB67" cx="666.533286" cy="1304.04348" r="386.956522"></circle>
                        <circle fill="#D6E6F4" cx="386.956522" cy="949.01087" r="386.956522"></circle>
                        <circle fill="#EFF7BB" cx="1069.93836" cy="386.956522" r="386.956522"></circle>
                    </g>
                </g>
            </g>
        </g>
    </g>
</svg>