<?xml version="1.0" encoding="UTF-8"?>
<svg width="45px" height="35px" viewBox="0 0 45 35" version="1.1" xmlns="http://www.w3.org/2000/svg" xmlns:xlink="http://www.w3.org/1999/xlink">
    <title>Lagdev</title>
    <g id="Lagdev" stroke="none" stroke-width="1" fill="none" fill-rule="evenodd">
        <path d="M9.761,12.8996 C9.0201,14.1326 9.5473,15.545 9.395,16.892 C9.3149,17.6001 8.8003,18.1911 8.1142,18.3836 C7.8048,18.4704 7.4785,18.5164 7.1415,18.5164 C5.16056,18.5164 3.55493,16.9088 3.55493,14.9298 C3.55493,12.9508 5.16056,11.3433 7.1415,11.3433 C8.2435,11.3433 9.2297,11.8374 9.8876,12.6218 C9.9017,12.6386 9.904,12.6624 9.8935,12.6818 L9.761,12.8996 Z M34.2968,16.9793 C34.2968,16.4157 34.758,15.9545 35.3216,15.9545 C35.8852,15.9545 36.3463,16.4157 36.3463,16.9793 C36.3463,17.5429 35.8852,18.004 35.3216,18.004 C34.758,18.004 34.2968,17.5429 34.2968,16.9793 Z" id="Shape" fill="#A5ACB9" fill-rule="nonzero"></path>
        <path d="M32.9261,3.9908 L33.0606,4.1285 C35.3769,6.3968 36.4147,9.6401 35.8801,12.7948 C35.8792,12.8 35.8817,12.8052 35.8862,12.8078 C36.21,12.9926 36.5149,13.2088 36.8073,13.4439 L39.0232,15.25 C39.9199,15.9865 40.4451,17.0817 40.4451,18.2409 C40.4451,20.3737 38.7158,22.1029 36.5831,22.1029 L30.0986,22.1029 C30.0964,22.1029 30.0943,22.1035 30.0924,22.1046 L26.1176,24.4041 C26.1093,24.4089 26.0988,24.4029 26.0988,24.3932 L26.0988,23.4158 C26.0988,19.7524 23.6715,16.5373 20.1554,15.5318 L18.1828,14.9682 C17.6384,14.8145 17.0684,15.1283 16.9147,15.6727 C16.761,16.2171 17.0748,16.7295 17.6192,16.9408 L19.5918,17.5044 C22.2305,18.2025 24.0494,20.6683 24.0494,23.4158 L24.0494,26.1893 C24.0494,26.1962 24.055,26.2018 24.0619,26.2018 L30.1978,26.2018 C31.3314,26.2018 32.2472,27.1177 32.2472,28.2513 C32.2472,29.3849 31.3314,30.3007 30.1978,30.3007 L22.7941,30.3007 C21.7693,30.3007 20.783,29.9165 20.0273,29.2248 L10.8624,20.8732 C8.6874,18.8302 8.2032,15.4934 9.7608,12.8995 L9.8934,12.6818 C10.9648,10.8949 12.8862,9.8061 14.9677,9.8061 C17.2477,9.8061 19.4893,10.4018 21.4683,11.529 L28.1839,15.3692 C28.1915,15.3735 28.2011,15.3689 28.2025,15.3603 C28.286,14.8719 28.4491,14.4143 28.68,13.9996 C28.6834,13.9934 28.681,13.9856 28.6748,13.9823 C26.3041,12.7522 24.4257,10.7691 23.473,8.2434 C23.1912,7.4967 23.505,6.6474 24.1903,6.249 C24.5489,6.0422 24.978,5.9807 25.3815,6.0819 L25.5993,6.1363 C28.6131,6.8965 31.0515,8.9762 32.2312,11.8478 C32.2331,11.8525 32.2377,11.8556 32.2428,11.8556 C32.273,11.8556 32.3076,11.8556 32.3369,11.8556 C32.873,11.8556 33.4028,11.8618 33.9204,12.0332 C33.9302,12.0365 33.9397,12.0271 33.9364,12.0173 C33.2694,10.0375 32.0832,8.312 30.5354,6.9972 C30.5325,6.9947 30.5309,6.991 30.531,6.9872 C30.5571,6.2271 30.6786,5.4631 30.883,4.7119 L30.9407,4.523 C31.0496,4.1163 31.3698,3.7999 31.7797,3.6904 C32.1896,3.5815 32.6251,3.6955 32.9261,3.9908 Z M35.3214,15.9545 C34.7578,15.9545 34.2967,16.4156 34.2967,16.9792 C34.2967,17.5428 34.7578,18.004 35.3214,18.004 C35.885,18.004 36.3461,17.5428 36.3461,16.9792 C36.3461,16.4156 35.885,15.9545 35.3214,15.9545 Z M12.6653,28.5971 C12.6643,28.5971 12.6639,28.5959 12.6647,28.5954 L14.7674,27.1936 C14.7722,27.1904 14.7786,27.1909 14.7828,27.1948 L17.8764,30.0274 C17.8824,30.0328 17.8816,30.0425 17.8749,30.047 L14.9421,32.0044 C13.9942,32.632 12.7261,32.3822 12.0985,31.4407 C11.4714,30.4938 11.7201,29.2272 12.6658,28.5989 C12.6666,28.5984 12.6662,28.5971 12.6653,28.5971 Z" id="Shape" fill="#1D3150" fill-rule="nonzero"></path>
    </g>
</svg>