<?xml version="1.0" encoding="UTF-8"?>
<svg width="100px" height="100px" viewBox="0 0 100 100" version="1.1" xmlns="http://www.w3.org/2000/svg" xmlns:xlink="http://www.w3.org/1999/xlink">
    <title>Container</title>
    <g id="Page-1" stroke="none" stroke-width="1" fill="none" fill-rule="evenodd">
        <g id="Container" fill-rule="nonzero">
            <rect id="Frame-Background" fill="#B77B58" x="0" y="0" width="100" height="100" rx="15"></rect>
            <g id="Group-4" transform="translate(31.7208, 29.1106)" fill="#FFFFFF">
                <path d="M22.416546,24.8074951 L14.1419269,24.8074951 C6.33326565,24.8074951 0,31.1399441 0,38.9494211 C0,40.5113165 1.26648995,41.7786274 2.82838532,41.7786274 L33.7317172,41.7786274 C35.2936126,41.7810718 36.5584717,40.5162129 36.5584717,38.9494211 C36.5584717,31.1399441 30.2260229,24.8074951 22.416546,24.8074951 Z" id="Vector"></path>
                <path d="M28.7245388,10.4452772 C28.7245388,16.213845 24.0486449,20.8905544 18.2792616,20.8905544 C12.5098783,20.8905544 7.83398438,16.2146606 7.83398438,10.4452772 C7.83398438,4.67589388 12.5106938,0 18.2792616,0 C24.0486449,0 28.7245388,4.67670947 28.7245388,10.4452772 Z" id="Vector" fill-opacity="0.300000012"></path>
            </g>
        </g>
    </g>
</svg>