<?xml version="1.0" encoding="UTF-8"?>
<svg width="474px" height="265px" viewBox="0 0 474 265" version="1.1" xmlns="http://www.w3.org/2000/svg" xmlns:xlink="http://www.w3.org/1999/xlink">
    <title>Frame</title>
    <defs>
        <path d="M0,0 L474,0 L474,265 L0,265 L0,0 Z" id="path-1"></path>
    </defs>
    <g id="Frame" stroke="none" fill="none" xlink:href="#path-1" fill-rule="evenodd" opacity="0.99" stroke-width="1">
        <g id="URnetwork-logo-dark" transform="translate(42, 63)" fill="#F8F8F8">
            <path d="M26.2240205,0.161339191 C23.3273953,0.161339191 20.9792164,2.50951817 20.9792164,5.40614336 C20.9792164,8.30276855 18.6310374,10.6509475 15.7344123,10.6509475 C12.8377871,10.6509475 10.4896082,12.9991265 10.4896082,15.8957517 C10.4896082,18.7923769 8.14142924,21.1405559 5.24480409,21.1405559 C2.34817895,21.1405559 0,23.4887348 0,26.38536 L0,57.854185 C0,60.7508102 2.34817895,63.0989892 5.24480409,63.0989892 C8.14142924,63.0989892 10.4896082,65.4471682 10.4896082,68.3437934 C10.4896082,71.2404186 12.8377871,73.5885975 15.7344123,73.5885975 C18.6310374,73.5885975 20.9792164,75.9367765 20.9792164,78.8334017 C20.9792164,81.7300269 23.3273953,84.0782059 26.2240205,84.0782059 L57.692845,84.0782059 C60.5894702,84.0782059 62.9376491,81.7300269 62.9376491,78.8334017 C62.9376491,75.9367765 65.2858281,73.5885975 68.1824532,73.5885975 C71.0790784,73.5885975 73.4272573,71.2404186 73.4272573,68.3437934 C73.4272573,65.4471682 75.7754363,63.0989892 78.6720614,63.0989892 C81.5686866,63.0989892 83.9168655,60.7508102 83.9168655,57.854185 L83.9168655,26.38536 C83.9168655,23.4887348 81.5686866,21.1405559 78.6720614,21.1405559 C75.7754363,21.1405559 73.4272573,18.7923769 73.4272573,15.8957517 C73.4272573,12.9991265 71.0790784,10.6509475 68.1824532,10.6509475 C65.2858281,10.6509475 62.9376491,8.30276855 62.9376491,5.40614336 C62.9376491,2.50951817 60.5894702,0.161339191 57.692845,0.161339191 L26.2240205,0.161339191 Z" fill-rule="nonzero"></path>
            <path d="M246.505792,0.161339191 C243.609167,0.161339191 241.260988,2.50952192 241.260988,5.40614711 L241.260988,131.281443 C241.260988,134.178069 243.609167,136.526248 246.505792,136.526248 L256.995401,136.526248 C259.892026,136.526248 262.240205,134.178069 262.240205,131.281443 L262.240205,89.3230101 C262.240205,86.4263849 264.588384,84.0782059 267.485009,84.0782059 L309.443442,84.0782059 C312.340067,84.0782059 314.688246,86.4263849 314.688246,89.3230101 C314.688246,92.2196352 317.036425,94.5678142 319.93305,94.5678142 C322.829675,94.5678142 325.177854,96.9159932 325.177854,99.8126184 C325.177854,102.709244 327.526033,105.057423 330.422658,105.057423 C333.319283,105.057423 335.667462,107.405602 335.667462,110.302227 L335.667462,131.281443 C335.667462,134.178069 338.015641,136.526248 340.912266,136.526248 L351.401874,136.526248 C354.298499,136.526248 356.646678,134.178069 356.646678,131.281443 L356.646678,99.8126184 C356.646678,96.9159932 354.298499,94.5678142 351.401874,94.5678142 C348.505249,94.5678142 346.15707,92.2196352 346.15707,89.3230101 C346.15707,86.4263849 343.808891,84.0782059 340.912266,84.0782059 C338.015641,84.0782059 335.667462,81.7300269 335.667462,78.8334017 C335.667462,75.9367765 338.015641,73.5885975 340.912266,73.5885975 C343.808891,73.5885975 346.15707,71.2404186 346.15707,68.3437934 C346.15707,65.4471682 348.505249,63.0989892 351.401874,63.0989892 C354.298499,63.0989892 356.646678,60.7508102 356.646678,57.854185 L356.646678,26.38536 C356.646678,23.4887348 354.298499,21.1405559 351.401874,21.1405559 C348.505249,21.1405559 346.15707,18.7923769 346.15707,15.8957517 C346.15707,12.9991265 343.808891,10.6509475 340.912266,10.6509475 C338.015641,10.6509475 335.667462,8.30276855 335.667462,5.40614336 C335.667462,2.50951817 333.319283,0.161339191 330.422658,0.161339191 L246.505792,0.161339191 Z M335.667462,47.3645767 C335.667462,50.2612019 333.319283,52.6093809 330.422658,52.6093809 C327.526033,52.6093809 325.177854,54.9575599 325.177854,57.854185 C325.177854,60.7508102 322.829675,63.0989892 319.93305,63.0989892 L267.485009,63.0989892 C264.588384,63.0989892 262.240205,60.7508102 262.240205,57.854185 L262.240205,26.38536 C262.240205,23.4887348 264.588384,21.1405559 267.485009,21.1405559 L319.93305,21.1405559 C322.829675,21.1405559 325.177854,23.4887348 325.177854,26.38536 C325.177854,29.2819852 327.526033,31.6301642 330.422658,31.6301642 C333.319283,31.6301642 335.667462,33.9783432 335.667462,36.8749684 L335.667462,47.3645767 Z"></path>
            <path d="M110.140886,0.161339191 C107.244261,0.161339191 104.896082,2.50952005 104.896082,5.40614523 L104.896082,110.302227 C104.896082,113.198852 107.244261,115.547031 110.140886,115.547031 C113.037511,115.547031 115.38569,117.89521 115.38569,120.791835 C115.38569,123.68846 117.733869,126.036639 120.630494,126.036639 C123.527119,126.036639 125.875298,128.384818 125.875298,131.281443 C125.875298,134.178069 128.223477,136.526248 131.120102,136.526248 L194.057751,136.526248 C196.954377,136.526248 199.302556,134.178069 199.302556,131.281443 C199.302556,128.384818 201.650735,126.036639 204.54736,126.036639 C207.443985,126.036639 209.792164,123.68846 209.792164,120.791835 C209.792164,117.89521 212.140343,115.547031 215.036968,115.547031 C217.933593,115.547031 220.281772,113.198852 220.281772,110.302227 L220.281772,5.40614336 C220.281772,2.50951817 217.933593,0.161339191 215.036968,0.161339191 L204.54736,0.161339191 C201.650735,0.161339191 199.302556,2.50951942 199.302556,5.40614461 L199.302556,99.8126184 C199.302556,102.709244 196.954377,105.057423 194.057751,105.057423 C191.161126,105.057423 188.812947,107.405602 188.812947,110.302227 C188.812947,113.198852 186.464768,115.547031 183.568143,115.547031 L141.609711,115.547031 C138.713085,115.547031 136.364906,113.198852 136.364906,110.302227 C136.364906,107.405602 134.016727,105.057423 131.120102,105.057423 C128.223477,105.057423 125.875298,102.709244 125.875298,99.8126184 L125.875298,5.40614336 C125.875298,2.50951817 123.527119,0.161339191 120.630494,0.161339191 L110.140886,0.161339191 Z" fill-rule="nonzero"></path>
        </g>
    </g>
</svg>