<?xml version="1.0" encoding="UTF-8" standalone="yes"?>
<svg width="1024px" height="1024px" viewBox="0 0 1024 1024" version="1.2" baseProfile="tiny-ps" xmlns="http://www.w3.org/2000/svg">
  <title>bimi-svg-tiny-12-ps</title>
  <defs>
    <path d="M0,0 L1024,0 L1024,1024 L0,1024 L0,0 Z" id="path-1"/>
  </defs>
  <g id="Frame" stroke="none" fill="none" fill-rule="nonzero">
    <path d="M834.041887,328.438049 C808.637667,328.438049 788.041887,307.842268 788.041887,282.438049 C788.041887,257.033829 767.446107,236.438049 742.041887,236.438049 C716.637667,236.438049 696.041887,215.842268 696.041887,190.438049 C696.041887,165.033829 675.446107,144.438049 650.041887,144.438049 L374.041887,144.438049 C348.637667,144.438049 328.041887,165.033829 328.041887,190.438049 C328.041887,215.842268 307.446107,236.438049 282.041887,236.438049 C256.637667,236.438049 236.041887,257.033829 236.041887,282.438049 C236.041887,307.842268 215.446107,328.438049 190.041887,328.438049 C164.637667,328.438049 144.041887,349.033829 144.041887,374.438049 L144.041887,650.438049 C144.041887,675.842268 164.637667,696.438049 190.041887,696.438049 C215.446107,696.438049 236.041887,717.033829 236.041887,742.438049 C236.041887,767.842268 256.637667,788.438049 282.041887,788.438049 C307.446107,788.438049 328.041887,809.033829 328.041887,834.438049 C328.041887,859.842268 348.637667,880.438049 374.041887,880.438049 L650.041887,880.438049 C675.446107,880.438049 696.041887,859.842268 696.041887,834.438049 C696.041887,809.033829 716.637667,788.438049 742.041887,788.438049 C767.446107,788.438049 788.041887,767.842268 788.041887,742.438049 C788.041887,717.033829 808.637667,696.438049 834.041887,696.438049 C859.446107,696.438049 880.041887,675.842268 880.041887,650.438049 L880.041887,374.438049 C880.041887,349.033829 859.446107,328.438049 834.041887,328.438049 Z" id="Favicon" fill="#101010"/>
  </g>
</svg>