<?xml version="1.0" encoding="UTF-8"?>
<svg width="44px" height="44px" viewBox="0 0 44 44" version="1.1" xmlns="http://www.w3.org/2000/svg" xmlns:xlink="http://www.w3.org/1999/xlink">
    <title>superfast</title>
    <g id="superfast" stroke="none" stroke-width="1" fill="none" fill-rule="evenodd">
        <circle id="Oval" fill="#A5ACB9" fill-rule="nonzero" cx="24.9045" cy="23.4761" r="14.2837"></circle>
        <path d="M43,22.0000163 C43,33.5991961 33.5992179,43 21.9999567,43 C10.4008038,43 1,33.5991961 1,22.0000163 C1,10.4008365 10.4008038,1 21.9999567,1 C33.5992179,1 43,10.4008365 43,22.0000163 Z M27.2499946,29.8749831 C27.2499946,28.5707608 26.7741469,27.3813014 25.9948664,26.462548 L32.2785266,14.3711557 C32.7788656,13.4030944 32.4015252,12.213635 31.4418106,11.7132948 C30.4819875,11.2128462 29.2925309,11.5901875 28.7839558,12.5500127 L22.5004041,24.6496411 C22.3363336,24.633169 22.1722631,24.6250413 21.9999567,24.6250413 C19.1042323,24.6250413 16.7500271,26.9793603 16.7500271,29.8749831 C16.7500271,32.7707142 19.1042323,35.1250332 21.9999567,35.1250332 C24.895681,35.1250332 27.2499946,32.7707142 27.2499946,29.8749831 Z" id="Shape" fill="#1D3150" fill-rule="nonzero"></path>
    </g>
</svg>